<?xml version="1.0" encoding="utf-8"?>
<!-- Generator: Adobe Illustrator 18.1.0, SVG Export Plug-In . SVG Version: 6.00 Build 0)  -->
<!DOCTYPE svg PUBLIC "-//W3C//DTD SVG 1.1//EN" "http://www.w3.org/Graphics/SVG/1.1/DTD/svg11.dtd">
<svg version="1.1" id="Layer_1" xmlns="http://www.w3.org/2000/svg" xmlns:xlink="http://www.w3.org/1999/xlink" x="0px" y="0px" viewBox="0 0 1024 1024" xml:space="preserve">

<defs>
  <style>
    g {
      display: none;
    }
    g:target {
      display: inline;
    }
    .st0{
        fill:#0061ff;
    }
    .st1{
        fill:#00ff64;
    }
    .st2{
        fill:#ff00ff;
    }
    .st3{
        fill:#ffc800;
    }
    .st4{
        fill:#fcd500
    }
    .st5{
        fill:none;
        stroke:#000;
        stroke-width:60;
    }
    .st6{
        font-family:Century;
        font-size:445.3452px
    }
    

  </style>
</defs>

  <g id="newDb">
  <path d="M118 736c0 52 111 103 253 103s255-49 255-103V614c0-8 5-16 13-16s15 8 15 16v277c0 75-125 133-284 133S87 966 87 891V426c1-77 128-132 284-132 40 0 80 6 116 12 7 1 12 8 11 17-2 9-8 14-17 13-34-7-71-11-109-11h-19c-43 1-84 8-120 17-72 20-116 53-116 84 0 51 113 101 255 101 8 0 14 7 14 15 0 9-6 16-14 16-112 0-210-29-255-74v97c0 51 113 101 255 101 48 0 95-6 136-17 7-1 15 3 17 11 1 8-3 17-10 18-43 11-92 17-142 17-112 0-209-29-255-73v98zm-3 60v95c0 49 105 103 255 103s255-54 255-103v-95c-45 44-142 73-254 73s-210-29-256-73zm453-43c-11 0-18-9-18-18 0-11 9-18 18-18s16 9 16 18c2 9-7 18-16 18zm0 154c-11 0-18-9-18-19s9-18 18-18c9 1 16 9 16 18 2 10-7 19-16 19z"/><path d="M692 368V193c0-14 8-22 22-22s21 8 21 22v175h175c13 0 22 8 22 21s-9 21-22 21H735v175c0 14-8 23-21 23s-22-9-22-23V411H517c-13 0-22-9-22-22 0-12 9-21 22-21h175z" class="st1"/>
  </g>
  
  <g id="local">
  <path d="M118 734c0 52 110 102 252 102s255-49 255-102V611c0-8 6-15 14-15s15 7 15 15v278c0 75-126 132-284 132S87 964 87 889V423c1-76 128-131 283-131 41 0 81 5 116 11 7 2 13 9 11 18-1 8-8 14-16 12-34-7-71-11-109-11h-19c-44 2-84 9-120 17-72 20-117 54-117 84 0 51 114 102 256 102 7 0 14 6 14 14 0 9-6 16-14 16-112 0-210-29-256-73v96c0 51 114 102 256 102 48 0 94-6 136-17 7-2 15 3 16 11 2 7-2 16-9 18-43 10-92 17-142 17-112 0-210-29-255-74v99zm-3 59v96c0 49 105 102 255 102s255-53 255-102v-96c-45 45-143 74-255 74s-209-29-255-74zm452-42c-10 0-17-9-17-19s8-18 17-18c10 1 17 9 17 18 1 10-7 19-17 19zm0 153c-10 0-17-9-17-18 0-11 8-18 17-18 10 0 17 9 17 18 1 9-7 18-17 18z"/><path d="M978 104H844c-22 0-39 22-39 48v55H563c-22 0-40 22-40 48v206c0 27 18 48 39 48h146v50h-77v14h167v-14h-77v-50h84v30c0 26 17 48 39 48h134c21 0 38-22 38-48V152c0-26-17-48-38-48zM532 461V256c0-21 14-37 30-37h305c16 0 30 16 30 36v206c0 20-14 37-30 37H563c-17 0-31-17-31-37zm475 78c0 20-13 36-29 36H844c-16 0-30-16-30-36v-30h53c22 0 39-21 39-48V256c0-27-17-49-39-49h-53v-55c0-20 14-36 30-36h134c16 0 29 16 29 36v387z" class="st2"/></g>
  
  <g id="dbxFile">
  <path d="M120 734c0 52 111 103 253 103s255-49 255-103V612c0-8 5-16 13-16s15 8 15 16v277c0 75-125 133-284 133S89 964 89 889V424c1-77 128-132 284-132 40 0 80 6 116 12 7 1 12 8 11 17-2 9-8 14-17 13-34-7-71-11-109-11h-19c-43 1-84 8-120 17-72 20-116 53-116 84 0 51 113 101 255 101 8 0 14 7 14 15 0 9-6 16-14 16-112 0-210-29-255-74v97c0 51 113 101 255 101 48 0 95-6 136-17 7-1 15 3 17 11 1 8-3 17-10 18-43 11-92 17-142 17-112 0-209-29-255-73v98zm-3 60v95c0 49 105 103 255 103s255-54 255-103v-95c-45 44-142 73-254 73s-210-29-256-73zm453-43c-11 0-18-9-18-18 0-11 9-18 18-18s16 9 16 18c2 9-7 18-16 18zm0 154c-11 0-18-9-18-19s9-18 18-18c9 1 16 9 16 18 2 10-7 19-16 19z"/><path d="m598 137-143 91 143 91 142-91-142-91zm283 0-141 91 141 91 142-91-142-91zM455 408l143 91 142-91-142-89-143 89zm426-89-141 89 141 91 142-91-142-89zM598 530l142 89 141-89-141-91-142 91z" class="st0"/></g>
  
  <g id="localFile">
  <path d="M118 736c0 52 111 103 253 103s255-49 255-103V614c0-8 5-16 13-16s15 8 15 16v277c0 75-125 133-284 133S87 966 87 891V426c1-77 128-132 284-132 40 0 80 6 116 12 7 1 12 8 11 17-2 9-8 14-17 13-34-7-71-11-109-11h-19c-43 1-84 8-120 17-72 20-116 53-116 84 0 51 113 101 255 101 8 0 14 7 14 15 0 9-6 16-14 16-112 0-210-29-255-74v97c0 51 113 101 255 101 48 0 95-6 136-17 7-1 15 3 17 11 1 8-3 17-10 18-43 11-92 17-142 17-112 0-209-29-255-73v98zm-3 60v95c0 49 105 103 255 103s255-54 255-103v-95c-45 44-142 73-254 73s-210-29-256-73zm453-43c-11 0-18-9-18-18 0-11 9-18 18-18s16 9 16 18c2 9-7 18-16 18zm0 154c-11 0-18-9-18-19s9-18 18-18c9 1 16 9 16 18 2 10-7 19-16 19z"/><path d="M774 589h-83c-6 0-9-5-9-9v-39c0-6 3-11 9-11h11v-9c0-6 4-10 10-10h41c6 0 11 4 11 10v11h10c6 0 10 3 10 9v39c0 6-4 9-10 9zm-72-20h62v-19h-11c-6 0-10-3-10-9v-11h-21v11c0 6-4 9-10 9h-11v19z" class="st3"/><path d="M733 532c-6 0-11-5-11-11v-58c0-6 5-11 11-11s10 5 10 11v58c0 6-4 11-10 11zm185 37H774c-6 0-10-3-10-9s4-10 10-10h144c5 0 10 4 10 10s-4 9-10 9zm-225 0H548c-6 0-11-3-11-9s5-10 11-10h143c8 0 11 4 11 10s-3 9-9 9z" class="st3"/><path d="M918 472H548c-6 0-11-3-11-9V173l3-9L705 10l7-3h206c5 0 10 5 10 11v445c0 6-4 9-10 9zm-360-18h349V26H716L558 176v278z" class="st3"/><path d="M728 198H564c-6 0-11-4-11-9 2-6 5-10 11-10h153V34c0-6 5-11 11-11s10 5 10 11v155c0 5-4 9-10 9z" class="st3"/></g>
  
<!--   <g id="passReset">
  <path d="M290 408c-23 12-31 40-19 60v1c13 20 41 27 64 14 22-12 31-39 18-60-12-21-40-28-63-15z"/><path d="m964 597-169 95-40-67-68 38-37-63-68 38-37-63-23 13-1-2-5 6c-16 16-34 30-54 41-104 59-236 28-293-68s-19-222 85-280c105-59 236-28 293 68 7 12 13 24 17 37l1 2 322 75 77 130zM277 323c-82 45-112 144-67 219s148 99 229 54c2-1 38-21 61-43 4-4 9-8 15-11 19-11 44-17 53-19l33 54 67-37 38 63 68-39 40 67 87-48-46-77-309-72c-13-3-21-12-25-26-4-11-9-22-15-32-45-75-148-99-229-53z"/><path d="M512 1024a511 511 0 0 1-361-149A512 512 0 0 1 0 514 511 511 0 0 1 510 0c87 0 174 23 251 66a511 511 0 0 1 190 189l19 32v-91a27 27 0 0 1 28-26 26 26 0 0 1 26 26v149a27 27 0 0 1-26 28H849a28 28 0 0 1-1-54h77l-8-15A458 458 0 0 0 517 60h-5A460 460 0 0 0 54 514a458 458 0 0 0 192 375 452 452 0 0 0 264 85 457 457 0 0 0 368-188h2l3-6a26 26 0 0 1 24-14 27 27 0 0 1 27 26c0 5-2 11-5 16l-7 10a515 515 0 0 1-176 150 514 514 0 0 1-231 56h-3z"/></g> -->
  
  
  <g id="passReset">
  <path d="M312 495c-18 0-34-9-43-23l-1-2a50 50 0 0 1 21-65c9-5 18-7 28-7 17 0 33 9 42 23 6 11 8 23 5 36-4 13-13 24-25 31-8 4-17 7-27 7z"/><path d="M292 409c-23 12-31 40-19 59v1c13 20 41 27 64 14 21-12 30-38 17-59-11-21-39-28-62-15z"/><path d="m792 695-4-2-37-62-63 35h-3c-1 1-3 0-4-2l-34-58-63 35-3 1-4-3-34-58-19 11h-2l-2 2v1a241 241 0 0 1-169 71c-37 0-73-8-105-25a194 194 0 0 1-98-224 223 223 0 0 1 106-134 235 235 0 0 1 220-5 199 199 0 0 1 94 111l317 74 3 2 76 129 1 3c0 1-1 3-3 3l-167 94-3 1zm-21-136c2 0 4 0 5 2l37 62 77-43-41-70-304-71c-15-3-24-13-29-29a157 157 0 0 0-149-104 173 173 0 0 0-165 122c-10 38-5 78 15 111 27 45 80 73 136 73 30 0 59-7 84-21h1c4-3 38-22 59-42 5-5 10-9 16-12 18-10 41-16 54-19h1l4 2 30 50 62-35h3c1 0 3 0 4 2l35 58 63-36h2z"/><path d="M512 1024A508 508 0 0 1 40 710a509 509 0 0 1 108-558A510 510 0 0 1 508 0h2a516 516 0 0 1 441 255l10 16v-72c0-17 14-31 31-31h1c17 0 31 14 31 31v148c1 17-13 32-30 32H845a33 33 0 0 1-2-63h70l-4-8A448 448 0 0 0 517 69h-5A453 453 0 0 0 63 514a449 449 0 0 0 447 451 449 449 0 0 0 363-186l2-4c5-10 16-16 27-16h1c17 0 31 13 32 30 0 6-2 13-6 19l-7 10a515 515 0 0 1-407 206h-3z"/></g>
  
  
  <g id="unlockDb">
  <path d="M215 1024c-73 0-133-58-133-129V561c0-71 60-129 133-129h17c5 0 9-2 12-6s4-9 2-13c-6-18-12-35-16-52-18-68-20-128-5-180 18-67 63-118 133-152a244 244 0 0 1 206-12c51 19 100 57 146 111l27 34c9 13 6 32-8 42-6 5-13 7-21 7-12 0-24-6-32-16l-20-25c-38-45-78-76-118-91-20-8-41-12-62-12-28 0-57 7-87 22-52 25-84 61-97 109-11 41-10 90 5 146 7 26 16 52 27 79 2 5 8 9 14 9h471c73 0 133 58 133 129v334c0 71-60 129-133 129H215zm0-525c-35 0-64 28-64 62v334c0 34 29 62 64 62h594c35 0 64-28 64-62V561c0-34-29-62-65-62H216z"/><path d="M537 733v82a25 25 0 0 1-50 0v-82a50 50 0 0 1 25-93c28 0 50 23 50 50 0 18-10 34-25 43z"/>
  </g>
  
  <g id="protectDb">
  <path d="M843 1024H181c-54 0-99-43-99-96V448c0-53 45-96 99-96h66v-96C247 115 366 0 512 0s265 115 265 256v96h66c55 0 99 43 99 96v480c0 53-44 96-99 96zM711 256c0-106-89-192-199-192s-198 86-198 192v96h396v-96zm165 192c0-18-15-32-33-32H181c-18 0-33 14-33 32v480c0 18 15 32 33 32h662c18 0 33-14 33-32V448zM537 733v82a25 25 0 0 1-50 0v-82a50 50 0 0 1 25-93c28 0 50 23 50 50 0 18-10 34-25 43z"/>
    </g>
  
<!--   <g id="passHide">
  <path d="M802 222a26 26 0 0 0-36 0L222 766a26 26 0 1 0 36 36l544-544c10-10 10-26 0-36z"/><path d="M802 222a26 26 0 0 0-36 0L222 766a26 26 0 1 0 36 36l544-544c10-10 10-26 0-36zM552 371a147 147 0 0 0-187 141c0 14 3 27 6 40l181-181zm-79 282a146 146 0 0 0 180-180L473 653z"/><path d="m234 689 34-35c-54-36-101-84-136-142a445 445 0 0 1 482-203l39-39A486 486 0 0 0 84 500l-7 12 7 12c37 67 89 123 150 165zm706-189c-37-66-89-122-150-164l-34 34c54 36 101 84 136 142a445 445 0 0 1-482 204l-39 39a486 486 0 0 0 569-231l7-12-7-12z"/></g> -->

  <g id="passHide">
  <path d="M856 168a31 31 0 0 0-43 0L173 808a31 31 0 1 0 43 43l640-641c11-11 11-30 0-42zM562 343a173 173 0 0 0-220 166c0 17 3 32 7 47l213-213zm-93 332a172 172 0 0 0 211-212L469 675z"/><path d="M514 825a567 567 0 0 1-169-27v-2l46-46 1-1 1 1a519 519 0 0 0 561-236v-5a531 531 0 0 0-157-166l40-40h2c73 50 134 117 177 193l8 14v2l-8 15a571 571 0 0 1-502 298zM186 722l-1-1A577 577 0 0 1 9 527l-9-14v-2l9-15a572 572 0 0 1 670-269v1l-46 46-1 1h-1A519 519 0 0 0 70 509v5a531 531 0 0 0 157 166l-40 41-1 1z"/></g>
  
<!--   <g id="passShow">
  <path d="M953 497a505 505 0 0 0-441-271A505 505 0 0 0 71 495c-6 10-6 22 0 32a505 505 0 0 0 441 271c185-2 355-105 441-269 6-10 6-22 0-32zM512 735c-156-2-300-87-377-223a439 439 0 0 1 377-222c156 2 300 86 377 222a439 439 0 0 1-377 223z"/><path d="M512 360a152 152 0 1 0 0 304 152 152 0 0 0 0-304zm0 254a102 102 0 1 1 0-204 102 102 0 0 1 0 204z"/></g> -->
  
  <g id="passShow">
  <path d="M512 825c-105-2-207-30-297-83A567 567 0 0 1 4 526c-6-9-6-21 0-30a585 585 0 0 1 805-214 567 567 0 0 1 211 216c6 10 6 21 0 30l-1 1a563 563 0 0 1-210 214c-90 52-192 80-297 82zm0-565c-183 2-352 98-442 249v6a521 521 0 0 0 442 250c183-2 352-98 442-250v-6a521 521 0 0 0-442-249z"/><path d="M512 680a168 168 0 1 1 0-336 168 168 0 0 1 0 336zm0-289a121 121 0 1 0 0 242 121 121 0 0 0 0-242z"/></g>

<!--   <g id="arrowUp">
  <path d="M512 853c-26 0-43-17-43-42V213c0-25 17-42 43-42s43 17 43 42v598c0 25-17 42-43 42z"/><path d="M811 555c-13 0-22-5-30-13L512 273 243 542c-17 17-42 17-60 0s-17-43 0-60l299-299c17-17 43-17 60 0l299 299c17 17 17 43 0 60-9 8-18 13-30 13z"/></g> -->
  
  <g id="arrowUp">
  <path d="M513 964c-18 0-31-12-31-28V86c0-4 1-7 3-10 5-10 15-16 27-16 5 0 9 1 13 3 6 3 11 7 14 13 2 3 3 6 3 10v850c0 16-13 28-29 28z"/><path d="m92 581-8-1-3-1c-4-1-7-3-10-6a28 28 0 0 1-2-39L489 69l1-1c6-6 14-9 22-9s15 3 21 8c11 11 12 28 2 39L115 572c-3 4-8 6-13 7l-4 1-6 1z"/><path d="m933 582-6-1-4-1c-5-1-9-3-13-7L490 107l-3-5c-6-12-4-25 5-34 6-5 13-8 21-8s16 3 22 9l1 1 420 465c11 11 10 28-2 39-3 3-6 5-10 6l-3 1-8 1z"/>
  </g>
  
<!--   <g id="search">
  <path d="M964 875 747 653c-4-4-8-6-12-8 46-63 74-141 74-226 0-206-163-372-365-372A369 369 0 0 0 80 419c0 206 163 373 364 373 93 0 177-35 241-93l7 10 217 221c15 16 40 16 55 0 15-15 15-40 0-55zM444 733a310 310 0 0 1-307-314c0-173 138-314 307-314 170 0 307 141 307 314S614 733 444 733z"/></g> -->
  
  <g id="search">
  <path fill="#010202" d="M1011 947 763 693c-5-4-9-7-14-9 53-72 85-161 85-259C834 190 647 0 416 0A422 422 0 0 0 0 426c0 235 186 426 416 426 107 0 203-40 276-106l8 11 248 253c17 19 46 19 63 0 17-17 17-45 0-63zM416 785A355 355 0 0 1 65 427v-1C65 228 223 66 416 66c195 0 351 162 351 360S611 785 416 785z"/></g>
  
  <g id="cross">
  <path fill-rule="evenodd" d="M804 275a39 39 0 1 0-55-55L512 456 275 220a39 39 0 1 0-55 55l236 237-236 237a39 39 0 1 0 55 55l237-236 237 236a39 39 0 1 0 55-55L568 512Zm0 0"/></g>
  
  <g id="crossRed">
  <path fill="#b40000" fill-rule="evenodd" d="M804 275a39 39 0 1 0-55-55L512 456 275 220a39 39 0 1 0-55 55l236 237-236 237a39 39 0 1 0 55 55l237-236 237 236a39 39 0 1 0 55-55L568 512Zm0 0"/></g>
  
  <g id="tickGreen">
  <path fill="none" stroke="#00b400" stroke-linecap="round" stroke-linejoin="round" stroke-miterlimit="200" stroke-width="100" d="m66 533 298 298 597-639"/></g>
  
<!--   <g id="info">
  <path fill="#000" fill-rule="evenodd" d="M516 223a87 87 0 1 0-1-173 87 87 0 0 0 1 173zm-58 116a58 58 0 0 0 0 115v462a58 58 0 0 0 115 0V397c0-32-26-58-57-58h-58z" clip-rule="evenodd"/></g> -->
  
  <g id="info">
  <path fill="#000" d="M486 342c-31 29-57 79-83 152-4 11-4 17 0 23 3 4 4 2 8-6l1-2 12-28c20-46 29-64 44-81 13-15 24 7 22 34l-5 26-2 10-17 91v2l-5 27-25 131v2l-4 21c-8 43-13 71-16 101l-1 10-4 39c-1 19 0 35 3 49 3 15 11 26 19 28a57 57 0 0 0 58-13c19-14 36-36 53-64 15-25 29-56 44-94l3-7c4-11 6-19 7-26 1-9-2-18-5-15l-6 10-3 9a1184 1184 0 0 1-34 73c-5 10-12 19-18 26-11 10-21-3-20-27 1-16 3-33 6-49a27559 27559 0 0 1 32-177l20-111c8-42 12-73 14-104 1-24-2-47-10-63-8-18-20-26-35-25-16 0-35 11-53 28zM598 57c-29-23-64 16-70 79-5 46 4 85 21 102 34 32 75-20 75-96 0-43-9-72-26-85z"/></g>
  
  <g id="trashBin">
  <path d="M260 1024c-70 0-125-55-125-125V380c1-17 11-28 29-28s29 11 29 28v519c0 34 23 68 67 68h511c34 0 68-23 68-68V380c0-17 11-28 28-28 9 0 16 3 20 7 3 4 3 10 1 16l-1 3v521c0 70-55 125-126 125H260z"/><path d="M622 848c-10 0-21-11-21-28V380c0-10 2-18 5-22 2-3 6-6 16-6 17 0 36 11 36 28v440c0 15-25 28-36 28zm-220 0c-18 0-29-11-29-28V380c0-15 25-28 37-28 9 0 20 11 20 28v440c0 17-11 28-28 28zM76 233c-17 0-28-11-28-29s11-28 28-28h235V99c0-54 45-99 99-99h212c53 0 98 45 98 99v77h235c18 0 29 11 29 28s-11 29-29 29H76zM410 57c-27 0-42 15-42 42v77h295V99c0-27-15-42-42-42H410z"/></g>
  
<!--   <g id="deleteLeft">
    <path d="M324 847c-10 0-20-4-28-10A1297 1297 0 0 1 33 535a54 54 0 0 1-2-54 946 946 0 0 1 270-307c8-5 16-8 25-8h629c25 0 45 22 45 50v581c0 28-20 50-45 50H324z" class="st5"/><path d="M788 364 509 643m0-279 279 279" class="st5"/></g> -->
    
<!--   <g id="deleteLeft">
    <path d="M326 847c-10 0-20-4-28-10A1297 1297 0 0 1 35 535a54 54 0 0 1-2-54 946 946 0 0 1 270-307c8-5 16-8 25-8h629c25 0 45 22 45 50v581c0 28-20 50-45 50H326z" class="st5"/><path d="M749 364 470 643m0-279 279 279" class="st5"/></g> -->
    
    
  <g id="deleteLeft"><path d="M326 929c-16 0-32-6-46-16l-1-1v-1C175 822 85 717 13 600a88 88 0 0 1-3-87 990 990 0 0 1 275-320l1-1h1c14-9 27-13 41-13h620c43 0 76 36 76 82v585c0 47-33 83-76 83H326zm-8-68 8 4h622c7 0 13-8 13-18V262c0-11-6-18-13-18H328l-7 2A920 920 0 0 0 65 544c-3 7-3 15 1 22 69 111 154 211 252 295z"/><path d="M753 724c-8 0-15-3-21-9L614 597 495 715a30 30 0 0 1-43 0l-3-3a30 30 0 0 1 0-43l119-118-118-118a30 30 0 0 1 0-43l2-3a30 30 0 0 1 43 0l119 118 118-118a30 30 0 0 1 43 0l3 3a30 30 0 0 1 0 43L659 551l119 118c11 12 11 31 0 43l-3 3c-6 6-13 9-22 9z"/></g>
    
<!--   <g id="vNotes">
  <path d="M889 111H550a111 111 0 1 0-221 0h-63c-16 0-28 14-28 28v89H135c-16 0-28 12-28 28v528c0 8 4 16 8 20l212 212c4 6 12 8 20 8h411c16 0 28-12 28-28v-75h103c16 0 28-14 28-30V139c0-14-12-28-28-28Zm-502 0a52 52 0 0 1 105 0Zm-93 58h198v59H294Zm198 115v63a52 52 0 0 1-105 0v-63ZM318 927 204 812h114Zm412 41H375V784c0-14-12-28-28-28H163V284h166v63a111 111 0 1 0 221 0v-63h180Zm131-105h-75V256c0-16-12-28-28-28H550v-59h311Zm0 0"/></g> -->
  
  <!-- <g id="vNotes">
  <path d="M602 985H245c-59 0-106-48-106-106V215c0-58 47-106 106-106h109a12 12 0 0 1 0 25H245c-45 0-81 37-81 81v664c0 45 36 81 81 81h357a12 12 0 0 1 0 25zm121 0a12 12 0 0 1 0-25c45 0 82-36 82-81a12 12 0 0 1 25 0c0 58-48 106-107 106zm94-203c-7 0-12-5-12-12V215c0-44-37-81-82-81H614a12 12 0 0 1 0-25h109c59 0 107 48 107 106v555c0 7-6 12-13 12z"/><path d="M542 199H434a63 63 0 0 1 0-126h108a63 63 0 0 1 0 126zM434 98a38 38 0 0 0 0 76h108a38 38 0 0 0 0-76H434z"/><path d="M535 88c-6 0-12-5-12-12 0-17-14-31-31-31h-10c-17 0-31 14-31 31a12 12 0 0 1-24 0c0-31 25-56 55-56h10c31 0 56 25 56 56 0 7-6 12-13 12zm154 268H278a12 12 0 0 1 0-25h411a12 12 0 0 1 0 25zm0 86H278a12 12 0 0 1 0-25h411a12 12 0 0 1 0 25zm0 85H278a12 12 0 0 1 0-25h411a12 12 0 0 1 0 25zm0 86H278a12 12 0 0 1 0-25h411a12 12 0 0 1 0 25zm0 85H278a12 12 0 0 1 0-25h411a12 12 0 0 1 0 25zm-27 301L509 846a12 12 0 1 1 17-17l136 135 216-217a12 12 0 1 1 18 18L662 999z"/></g> -->
  
  <g id="vNotes">
  <path d="M423 978H250c-41 0-75-33-75-74V213c0-41 34-74 75-74h113a23 23 0 0 0 0-46H250c-67 0-121 53-121 120v691c1 66 54 120 121 120h173v-46z"/><path d="M758 93H645a23 23 0 0 0 0 46h113c41 0 75 33 75 74v691c0 41-34 74-75 74H387a23 23 0 0 0 0 46h372c66 0 120-54 120-120V213c0-66-54-120-121-120z"/><path d="M448 206a76 76 0 0 1 0-151h112a76 76 0 0 1 0 151H448zm0-105a30 30 0 0 0 0 59h112a30 30 0 0 0 0-59H448z"/><path d="M290 828a23 23 0 0 1 0-46h427a23 23 0 0 1 0 46H290zm0-125a23 23 0 0 1 0-46h427a23 23 0 0 1 0 46H290zm0-127a23 23 0 0 1 0-46h427a23 23 0 0 1 0 46H290zm0-128a23 23 0 0 1 0-46h427a23 23 0 0 1 0 46H290zm0-127a23 23 0 0 1 0-46h427a23 23 0 0 1 0 46H290zM553 91c-12 0-22-10-22-23 0-12-10-22-23-22h-10c-12 0-22 10-22 22a22 22 0 0 1-45 0c0-37 30-68 67-68h10c38 0 69 31 69 68 0 13-11 23-24 23z"/></g>
  
  <g id="vTags">
  <path d="M985 566 587 169c-21-21-49-33-78-33h-8l-287 19c-31 2-56 27-58 58l-7 103c-15-9-29-19-41-32-31-31-50-69-54-108-4-37 7-70 30-93 49-48 139-38 201 24a27 27 0 1 0 37-37C239-13 115-23 46 46 12 81-4 128 1 182a247 247 0 0 0 144 192l-9 127c-2 32 10 64 33 86l398 398a133 133 0 0 0 188 0l230-231a132 132 0 0 0 0-188Zm-38 151L717 947a80 80 0 0 1-113 0L206 550a58 58 0 0 1-17-45l8-116a270 270 0 0 0 33 3c45 0 85-16 115-46a27 27 0 1 0-37-38c-23 23-56 34-93 30l-15-2 8-119c0-4 4-8 9-9l288-19h4c15 0 30 6 41 17l397 398a80 80 0 0 1 0 113Zm0 0"/></g>
  
<!--   <g id="vNew">
  <path fill-rule="evenodd" d="M741 1c-13 5-15 7-15 55v40h-38l-40 2c-18 7-18 34-1 43l41 2h38v38l2 42c4 19 35 21 42 2l2-44v-40h38c41 0 41 2 47-5 10-12 7-31-6-38l-41-2h-38V56c0-44 0-44-8-50-5-5-16-7-23-5M175 3c-15 2-27 21-33 40-2 13-2 930 2 941 4 17 13 31 23 36l6 4h658l4-2c11-5 21-21 25-36l2-9V312l-2-6c-7-13-34-15-45-1-6 5-6-12-6 339v327H193V56h146l152-2c22-6 22-46 0-51H175m88 385c-20 13-16 55 4 63h315c21-8 25-52 3-63l-161-2H269l-6 2m9 268c-14 4-21 13-21 32 0 15 3 23 16 29l5 1h210c234 2 215 2 225-5 18-14 12-48-8-57-7-2-418-4-427 0" clip-rule="evenodd"/></g> -->
  
  <g id="plusBtn">
  <path d="M512 112v800M112 512h800" class="st5"/></g>
  
  <g id="minusBtn">
  <path d="M112 512h800" class="st5"/></g>
  
  <g id="hint">
  <path d="M512 0a512 512 0 1 0 0 1024A512 512 0 0 0 512 0zm0 960a448 448 0 1 1 0-896 448 448 0 0 1 0 896zm-32-160h64v-96h-64v96zm32-576-128 32-32 128h64l32-64 64-32 64 32 32 64-32 64c-28 46-60 88-96 128v64h64v-64l32-32 64-64 32-96-32-128-128-32z"/></g>
  
<!--   <g id="checked">
  <path d="M954 953c7-7 12-17 12-28V98c0-10-5-20-12-28-7-7-17-11-28-11H99c-11 0-21 4-28 11-7 8-12 18-12 28v827c0 21 17 39 38 40h829c11 0 21-5 28-12zM99 0h827c54 0 98 44 98 98v827c0 54-44 98-98 98v1H99a98 98 0 0 1-99-99V98A99 99 0 0 1 99 0z"/><path d="M402 774c-13 0-25-5-34-14L140 532a48 48 0 0 1 0-68l12-12a48 48 0 0 1 68 0l228 228a48 48 0 0 1 0 68l-12 12c-9 9-21 14-34 14z"/><path d="M405 779c-11 0-21-4-29-12l-24-24a41 41 0 0 1 0-58l456-456a41 41 0 0 1 59 0l23 24a41 41 0 0 1 0 58L434 767c-7 8-18 12-29 12z"/></g> -->
  
  <g id="checked">
  <path d="M954 953c7-7 12-17 12-28V98c0-10-5-20-12-28-7-7-17-11-28-11H99c-11 0-21 4-28 11-7 8-12 18-12 28v827c0 21 17 39 38 40h829c11 0 21-5 28-12zM99 0h827c54 0 98 44 98 98v827c0 54-44 98-98 98v1H99c-54 1-98-43-99-97V98C1 44 45 0 99 0z"/><path d="M414 746c-9 0-18-3-26-9a35 35 0 0 1-2-52l394-398c7-7 17-11 28-11 9 0 18 3 25 9a35 35 0 0 1 3 52L442 735c-7 7-17 11-28 11z"/><path d="M414 746c-10 0-19-4-27-11L189 538a40 40 0 0 1-2-54c7-8 16-13 27-13h1c10 0 19 4 27 11l198 197a40 40 0 0 1 2 54c-7 8-16 13-27 13h-1z"/>
  </g>
  
<!--   <g id="unchecked">
  <path d="M954 953c7-7 12-17 12-28V98c0-10-5-20-12-28-7-7-17-11-28-11H99c-11 0-21 4-28 11-7 8-12 18-12 28v827c0 21 17 39 38 40h829c11 0 21-5 28-12zM99 0h827c54 0 98 44 98 98v827c0 54-44 98-98 98v1H99a98 98 0 0 1-99-99V98A99 99 0 0 1 99 0z"/><path d="M774 822c-6 0-11-2-15-6L208 265c-8-8-8-21 0-29l28-28a20 20 0 0 1 29 0l551 551a20 20 0 0 1 0 29l-28 28c-4 4-9 6-14 6z"/><path d="M822 250c0 6-2 11-6 15L265 816c-8 8-21 8-29 0l-28-28a20 20 0 0 1 0-29l551-551a20 20 0 0 1 29 0l28 28c4 4 6 9 6 14z"/></g> -->
  
  <g id="unchecked">
  <path d="M955 953c7-7 12-17 12-28V98c0-10-5-20-12-28-7-7-17-11-28-11H100c-11 0-21 4-28 11-7 8-12 18-12 28v827c0 21 17 39 38 40h829c11 0 21-5 28-12zM100 0h827c54 0 98 44 98 98v827c0 54-44 98-98 98v1H100c-54 1-98-43-99-97V98C2 44 46 0 100 0z"/><path d="M315 747c-9 0-18-3-26-9a35 35 0 0 1-2-52l394-398c7-7 17-11 28-11 9 0 18 3 25 9a35 35 0 0 1 3 52L343 736c-7 7-17 11-28 11z"/><path d="M747 709c0 9-3 18-9 25a35 35 0 0 1-52 3L288 343c-7-7-11-17-11-28 0-9 3-18 9-25a35 35 0 0 1 52-3l398 394c7 7 11 17 11 28z"/></g>
  
<!--   <g id="formClose">
  <path d="M897 897c6-6 10-15 10-25V148c0-9-4-18-10-25-6-6-15-9-25-9H149c-10 0-19 3-25 9-6 7-10 16-10 25v724a34 34 0 0 0 35 35h723c10 0 19-4 25-10zM149 62h723a86 86 0 0 1 86 86v724a86 86 0 0 1-86 86v1H149c-24 0-45-10-61-25a86 86 0 0 1-26-62V148c0-23 10-45 26-61s37-25 61-25z"/><path d="M738 681 546 510l192-171a24 24 0 0 0-31-35L510 479 314 304a24 24 0 1 0-31 35l192 171-192 171a24 24 0 0 0 31 35l196-174 197 174a23 23 0 0 0 33-2c9-9 8-24-2-33z"/></g> -->
  
  <g id="formClose"> <!-- THE SAME AS <g id="unchecked"> -->
  <path d="M955 953c7-7 12-17 12-28V98c0-10-5-20-12-28-7-7-17-11-28-11H100c-11 0-21 4-28 11-7 8-12 18-12 28v827c0 21 17 39 38 40h829c11 0 21-5 28-12zM100 0h827c54 0 98 44 98 98v827c0 54-44 98-98 98v1H100c-54 1-98-43-99-97V98C2 44 46 0 100 0z"/><path d="M315 747c-9 0-18-3-26-9a35 35 0 0 1-2-52l394-398c7-7 17-11 28-11 9 0 18 3 25 9a35 35 0 0 1 3 52L343 736c-7 7-17 11-28 11z"/><path d="M747 709c0 9-3 18-9 25a35 35 0 0 1-52 3L288 343c-7-7-11-17-11-28 0-9 3-18 9-25a35 35 0 0 1 52-3l398 394c7 7 11 17 11 28z"/></g>
  
<!--   <g id="copyClipboard">
  <path d="M725 157H147C68 157 3 222 3 301v579c0 79 65 144 144 144h578c80 0 144-65 144-144V301c0-79-64-144-144-144zm80 723a79 79 0 0 1-80 79H147a79 79 0 0 1-79-79V301a79 79 0 0 1 79-79h578a79 79 0 0 1 80 79zm0 0"/><path d="M878 0H251c-44 0-87 22-115 57-11 15-7 35 8 47s35 7 46-8c15-20 37-31 63-31h627c43 0 78 35 78 77v629c0 20-9 40-24 55a34 34 0 0 0-2 46c4 6 13 10 22 10a34 34 0 0 0 22-10c28-25 45-64 45-103V142A142 142 0 0 0 878 0zm0 0"/><path d="M679 558H469V346a33 33 0 1 0-67 0v210H192a33 33 0 0 0 0 67h210v211a33 33 0 1 0 67 0V623h210a33 33 0 0 0 33-33c0-19-15-32-33-32zm0 0"/></g> -->
  
  
  <g id="copyClipboard">
  <path d="M140 1024c-37 0-72-15-99-41-26-26-41-61-41-98V304c0-37 15-72 41-99 27-26 62-41 99-41h580c77 0 140 63 140 140v581c0 76-63 139-140 139H140zm0-805c-47 0-85 38-85 85v581c0 46 38 84 85 84h581c47 0 85-38 85-85V303c-1-46-39-83-84-83H140z"/><path d="M962 880c-7 0-15-3-18-8-10-12-9-29 2-40 16-16 25-38 25-59V138c0-45-37-82-83-82H262c-27 0-51 11-67 33-5 8-14 13-23 13-6 0-11-2-15-6-14-11-17-28-8-40 28-35 69-56 111-56h627a138 138 0 0 1 137 138v633c0 38-17 76-43 100-5 6-12 9-19 9z"/><path d="M675 562H464V350a34 34 0 0 0-67 0v210H186a34 34 0 1 0 0 67h211v212a34 34 0 0 0 67 0V627h211c18 0 33-15 33-33 0-19-15-32-33-32z"/></g>
  
<!--   <g id="formEdit">
  <path d="m358 562-1 2-46 169c-3 10 0 21 7 28a29 29 0 0 0 28 7l168-45 5-2 449-449c13-13 20-31 20-51 0-22-9-45-26-61l-42-43a88 88 0 0 0-62-26c-19 0-38 8-51 21L359 560l-1 2m566-333-45 44-72-73 44-44c7-7 20-6 28 2l43 42c4 5 7 11 7 16s-2 9-5 13M438 569l323-324 73 74-323 323-73-73zm-59 131 23-86 63 63-86 23zm549-294c-17 0-32 14-32 31v420c0 22-18 39-40 39H166c-21 0-38-17-38-39V166c0-22 17-38 38-38h474c17 0 31-15 31-32s-14-32-31-32H162c-54 0-98 44-98 98v699c0 54 44 99 98 99h699c53 0 99-45 99-99V437c-1-17-15-31-32-31"/></g> -->
  
  
  <g id="formEdit">
  <path d="M104 1024A105 105 0 0 1 0 919V104C0 47 47 0 104 0h557c14 0 26 13 26 27 0 15-12 27-26 27H109c-31 0-55 24-55 55v805c0 31 24 56 55 56h804c32 0 57-25 57-56V425c0-14 12-26 27-26 14 0 26 12 27 26v494a106 106 0 0 1-105 105H104zm210-269c-6 0-11-2-15-7-6-5-8-14-6-22l51-192 1-2L841 21c12-13 31-21 49-21 23 0 45 9 61 27l47 49c16 16 26 39 26 62 0 21-7 39-19 52L509 701l-4 2-185 51-6 1zm66-176h-3c-3 1-6 4-7 7l-26 98c-1 4 0 7 3 10a10 10 0 0 0 10 3l95-27c3-1 6-3 7-7 1-3 0-7-2-9l-70-72c-2-2-5-3-7-3zm401-422c-2 0-5 1-7 3L416 530c-4 4-4 10 0 14l81 84 7 3 7-3 358-370c4-3 4-10 0-13l-80-85c-2-2-5-3-8-3 1 0 0 0 0 0zM889 57c-8 0-16 3-21 8l-49 51c-3 4-4 10 0 14l80 83c2 2 4 3 7 3s5-1 7-3l50-50 1-2c3-4 8-11 8-20a43 43 0 0 0-11-25l-48-48c-6-7-15-11-24-11z"/></g>
  
<!--   <g id="formSave">
  <path d="M928 896V314c0-8-3-16-10-22L731 105a31 31 0 0 0-23-9h-36v160c0 53-43 96-96 96H256c-53 0-96-43-96-96V96h-32c-18 0-32 14-32 32v768c0 18 14 32 32 32h64V640c0-53 43-96 96-96h448c53 0 96 43 96 96v288h64c18 0 32-14 32-32zm-160 32V640c0-18-14-32-32-32H288c-18 0-32 14-32 32v288h512zM224 96v160c0 18 14 32 32 32h320c18 0 32-14 32-32V96H224zm740 150c18 18 28 43 28 68v582c0 53-43 96-96 96H128c-53 0-96-43-96-96V128c0-53 43-96 96-96h580c26 0 50 10 68 28l188 186zm-452 10a32 32 0 0 1-32-32v-64a32 32 0 0 1 64 0v64a32 32 0 0 1-32 32z"/></g> -->
  
  
  <g id="formSave">
  <path d="M98 1024c-54 0-98-44-98-98V98C0 44 44 0 98 0h625c27 0 51 10 70 29l202 200c19 18 29 44 29 70v627c0 54-44 98-98 98H98zm655-472c54 0 99 44 99 98v310c0 3 2 5 5 5h69c22 0 39-17 39-39V299c0-11-4-21-12-28L752 70c-8-7-17-11-28-11h-40c-2 0-5 2-5 5v172c0 54-44 99-98 99H236c-54 0-98-45-98-99V64c0-3-2-5-5-5H98c-22 0-39 17-39 39v828c0 22 17 39 39 39h69c3 0 5-2 5-5V650c0-54 45-98 99-98h482zm-482 58c-23 0-40 18-40 40v310c0 3 2 5 5 5h552c3 0 5-2 5-5V650c0-22-18-40-40-40H271zM202 59c-3 0-5 2-5 5v172c0 22 17 40 39 40h345c22 0 40-18 40-40V64c0-3-3-5-5-5H202zm310 172c-16 0-29-13-29-29v-69a29 29 0 0 1 58 0v69c0 16-13 29-29 29z"/></g>
  
<!--   <g id="linkOpen">
  <path d="M811 640a43 43 0 1 1 85 0v235a107 107 0 0 1-107 106H149A107 107 0 0 1 43 875V235a107 107 0 0 1 106-107h235a43 43 0 1 1 0 85H149c-11 0-21 10-21 22v640c0 11 10 21 21 21h640a21 21 0 0 0 22-21V640zm25-512H640a43 43 0 1 1 0-85h299a43 43 0 0 1 42 42v299a43 43 0 1 1-85 0V188L542 542a43 43 0 0 1-60-60l354-354z"/></g> -->
  
  
  <g id="linkOpen">
  <path d="M99 1024a100 100 0 0 1-99-99V197A100 100 0 0 1 99 97h275c13 0 25 10 27 23a27 27 0 0 1-31 31H98c-25 0-45 21-45 46v728c0 24 21 45 45 45h729c24 0 44-19 45-43V654a27 27 0 1 1 54 1v270c0 26-11 51-30 70s-44 29-70 29H99zm418-490c-8 0-17-4-22-11-6-9-7-22-1-31L895 91a22 22 0 0 0-15-37H654l-4 1c-14 0-25-10-27-24-1-7 0-14 5-20a27 27 0 0 1 26-11h343c14 1 26 13 27 27v343a27 27 0 1 1-54 0V144a22 22 0 0 0-37-15L532 530c-4 3-9 4-15 4z"/></g>
  
  
  <g id="toggleToNote">
  <path d="M630 40h-26c-28 0-51 25-51 56v388c0 31 23 56 51 56h257c28 0 51-25 51-56V96c0-31-23-56-51-56h-27v28h27c14 0 25 12 25 28v388c0 15-11 28-25 28H604c-14 0-25-13-25-28V96c0-15 11-28 25-28h26V40zm64 28h77V40h-77v28z"/><path d="M630 190c0-7 5-14 12-14h180c7 0 13 7 13 14s-6 14-13 14H642c-7 0-12-6-12-14zm0 72c0-7 6-14 13-14h179c7 0 13 7 13 14s-6 14-13 14H643c-7 0-13-6-13-14zm0 70c0-8 6-14 13-14h179c7 0 13 6 13 14s-6 14-13 14H643c-7 0-13-7-13-14zm0 70c0-8 6-14 13-14h102c7 0 13 6 13 14s-6 14-13 14H643c-7 0-13-7-13-14z"/><path d="M515 107c7 0 13 6 13 13v376c0 38 28 69 64 69h244c7 0 13 6 13 14s-6 14-13 14H592c-50 0-90-44-90-97V120c0-7 6-14 13-14zm473 139h-25v213l13 18 12-18V246zm26 222-38 55-39-55V218h77v250zm-26-319h-25v27h25v-27zm-25-28h25c15 0 26 12 26 28v55h-77v-55c0-16 12-28 26-28zM803 10c10 0 19 9 19 21v41c0 12-9 21-19 21s-20-9-20-21V31c0-12 9-21 19-21zm-141 0c10 0 19 9 19 21v41c0 12-9 21-19 21s-19-9-19-21V31c0-12 8-21 19-21zM475 676h-3v-78c0-44-18-86-51-118-33-31-76-49-123-49-96 1-173 77-173 169v41c0 5 4 9 9 9h50c5 0 9-4 9-9v-41c0-56 47-102 104-103 29 0 55 10 75 29s32 45 32 72v77H122c-26 0-47 21-47 45v285c0 5 4 9 9 9h429c5 0 9-4 9-9V720c0-24-21-45-47-45zm-89-162c-24-23-55-35-89-35-67 1-122 55-122 121v32h-32v-32c0-83 70-150 155-151h1c41 0 80 16 109 44s46 65 46 105v77h-31v-77c-1-32-14-62-37-84zm117 482H94V720c0-15 12-27 28-27h353c16 0 28 12 28 27v276z"/><path d="M315 830c28-7 48-31 48-59 0-34-29-62-65-62s-64 28-64 62c0 28 20 52 48 59-47 8-83 47-83 94v48c0 5 5 9 10 9h179c5 0 9-4 9-9v-48c0-47-35-86-82-94zm-62-59c0-24 20-44 45-44s46 19 46 44-21 43-46 43-45-19-45-43zm126 192H218v-39c0-43 36-77 80-77s81 34 81 77v39zm84-225c-5 0-10 4-10 9v119c0 5 5 9 10 9s9-4 9-9V747c0-5-4-9-9-9zm0 153c-5 0-10 4-10 9v48c0 5 5 9 10 9s9-4 9-9v-48c0-5-4-9-9-9zM58 631H19c-5 0-9 4-9 9s4 9 9 9h39c5 0 9-4 9-9s-4-9-9-9zm18-28-25-24a10 10 0 0 0-13 0c-4 4-4 9-1 13h1l24 24c4 3 10 3 14 0 3-4 3-9 0-13zm-1 61a10 10 0 0 0-13 0l-25 24c-3 3-3 9 0 12 4 4 10 4 14 0l24-23c4-4 4-9 1-13h-1zm206-433c-5 0-8-2-12-5-7-7-7-17 0-23l83-83c7-7 17-7 24 0 6 6 6 16 0 23l-84 83c-3 3-6 5-11 5z"/><path d="M364 148c-5 0-8-2-12-5l-83-84c-7-6-7-16 0-23s17-7 23 0l84 83c7 7 7 17 0 24-3 3-7 5-12 5z"/><path d="M81 431c-10 0-17-7-17-17V231c0-65 52-117 117-117h183c10 0 17 7 17 17s-7 17-17 17H181c-47 0-83 36-83 83v183c0 10-7 17-17 17zm717 313c0 5 2 9 5 12 7 7 17 7 23 0l84-83c6-7 6-17 0-24-7-6-17-6-24 0l-83 84c-3 3-5 6-5 11z"/><path d="M882 661c0 5 1 8 5 12l83 83c6 7 16 7 23 0s7-17 0-23l-83-84c-7-6-17-6-24 0-3 4-4 7-4 12z"/><path d="M598 944c0 10 7 17 17 17h183c65 0 117-52 117-117V661c0-10-7-17-17-17s-17 7-17 17v183c0 47-36 84-83 84H615c-10 0-17 6-17 16z"/></g>
  
  <g id="toggleToLog">
  <path d="M138 462h-26c-28 0-51 24-51 55v389c0 30 23 55 51 55h257c28 0 51-25 51-55V517c0-30-23-55-51-55h-27v27h27c14 0 25 13 25 28v388c0 16-11 28-25 28H112c-14 0-25-12-25-28V517c0-15 11-28 25-28h26v-27zm64 27h77v-27h-77v27z"/><path d="M138 612c0-8 5-14 12-14h180c7 0 13 6 13 14s-6 14-13 14H150c-7-1-12-7-12-14zm0 72c0-8 6-14 13-14h179c7 0 13 6 13 14s-6 13-13 13H151c-7 0-13-6-13-14zm0 69c0-8 6-14 13-14h179c7 0 13 6 13 14s-6 14-13 14H151c-7 0-13-6-13-14zm0 70c0-8 6-14 13-14h102c7 0 13 6 13 14s-6 14-13 14H151c-7 0-13-6-13-14z"/><path d="M23 528c7 0 13 6 13 14v375c0 38 28 69 64 69h244c7 0 13 6 13 14s-6 14-13 14H100c-50 0-90-44-90-97V542c0-8 6-14 13-14zm473 139h-25v213l12 18 13-18V667zm26 222-39 56-38-56V639h77v250zm-26-319h-25v28h25v-28zm-25-28h25c14 0 26 13 26 28v55h-77v-55c0-15 12-28 26-28zM311 431c10 0 19 10 19 21v42c0 11-9 21-20 21s-19-10-19-21v-42c0-11 9-21 20-21zm-141 0c10 0 19 10 19 21v42c0 11-9 21-19 21s-20-10-20-21v-42c1-11 9-21 20-21zm796-177h-3v-77c0-45-18-87-51-118-33-32-76-49-123-49h-1c-95 1-172 76-172 169v41c0 5 4 9 9 9h50c5 0 9-4 9-9v-42c0-56 47-102 104-102 28 0 55 10 75 29s31 45 31 72v77H612c-25 0-46 20-46 45v285c0 5 4 9 9 9h429c5 0 9-4 9-9V299c0-25-21-45-47-45zM877 92c-24-22-55-34-89-34-67 0-122 54-122 120v33h-32v-32c0-83 70-151 155-151h1c41 0 80 15 109 43 29 29 46 66 46 106v77h-32v-77c0-32-13-62-36-85zm117 483H585V299c0-15 12-27 28-27h353c16 0 28 12 28 27v276z"/><path d="M806 409c27-8 48-31 48-60 0-34-29-61-65-61-35 0-64 27-64 61 0 29 20 52 47 60-46 7-82 46-82 93v48c0 5 4 9 10 9h179c5 0 9-4 9-9v-48c0-47-35-86-82-94zm-62-60c0-24 20-44 45-44s46 20 46 44-21 44-46 44-45-20-45-44zm126 192H709v-39c0-42 36-77 80-77s81 35 81 77v39zm84-225c-5 0-10 4-10 9v120c1 5 5 9 10 9s9-4 9-9V325c0-5-4-9-9-9zm0 153c-5 0-10 4-10 9v48c1 5 5 9 10 9s9-4 9-9v-48c0-5-4-9-9-9zM549 210h-39c-5 0-9 4-9 9s4 9 9 9h39c5 0 9-4 9-9s-4-9-9-9zm18-28-25-24a10 10 0 0 0-13 0c-4 3-4 9-1 12l1 1 24 23c4 4 10 4 14 0 3-3 3-8 0-12h-1zm-1 60a10 10 0 0 0-13 1l-25 23c-3 3-3 9 0 12v1c4 3 10 3 14 0l24-24c4-3 4-9 1-12l-1-1zm-285-11c-5 0-9-2-12-5-7-7-7-17 0-23l83-84c7-6 17-6 24 0 6 7 6 17 0 24l-84 83c-3 3-6 5-11 5z"/><path d="M364 148c-5 0-8-2-12-5l-83-84c-7-6-7-16 0-23s17-7 23 0l84 83c7 7 7 17 0 24-3 3-7 5-12 5z"/><path d="M81 431c-10 0-17-7-17-17V231c0-65 52-117 117-117h183c10 0 17 7 17 17s-7 17-17 17H181c-47 0-83 36-83 83v183c0 10-7 17-17 17zm717 313c0 5 2 9 5 12 7 7 17 7 23 0l84-83c6-7 6-17 0-24-7-6-17-6-24 0l-83 84c-3 3-5 6-5 11z"/><path d="M882 661c0 5 1 8 5 12l83 83c6 7 16 7 23 0s7-17 0-23l-83-84c-7-6-17-6-24 0-3 4-4 7-4 12z"/><path d="M598 944c0 10 7 17 17 17h183c65 0 117-52 117-117V661c0-10-7-17-17-17s-17 7-17 17v183c0 47-36 84-83 84H615c-10 0-17 6-17 16z"/></g>
  
  <g id="typeLog">
  <path d="M818 429h-6V293c0-78-32-152-90-208C664 30 588 0 507 0h-2a302 302 0 0 0-304 296v73c0 9 8 16 17 16h87c10 0 17-7 17-16v-73c0-99 82-179 183-180a183 183 0 0 1 187 177v136H196c-45 0-82 35-82 79v500c0 9 7 16 16 16h754c9 0 16-7 16-16V508c0-44-37-79-82-79ZM660 145c-41-40-97-61-155-61-119 1-216 96-216 212v57h-55v-57c0-145 122-264 271-264h2c72 0 141 27 192 76 52 49 81 115 81 185v136h-55V293c0-56-23-109-65-148Zm207 847H147V508c0-26 22-48 49-48h622c27 0 49 22 49 48Z"/><path d="M537 701c47-13 83-55 83-105 0-60-51-108-113-108s-113 48-113 108c0 50 35 92 83 105-82 13-144 82-144 164v84c0 9 7 16 16 16h316c9 0 16-7 16-16v-84c0-82-62-151-144-164ZM427 596c0-42 36-77 80-77s80 35 80 77-36 77-80 77-80-35-80-77Zm221 338H366v-69c0-75 63-135 141-135s141 60 141 135Zm148-396c-9 0-16 7-16 16v210c0 9 7 16 16 16s16-7 16-16V554c0-9-7-16-16-16Zm0 269c-9 0-16 7-16 16v84c0 9 7 16 16 16s16-7 16-16v-84c0-9-7-16-16-16ZM85 351H16c-9 0-16 7-16 15s7 16 16 16h69a16 16 0 1 0 0-32Zm30-49-43-42a17 17 0 0 0-23 0 15 15 0 0 0 0 22l43 42a17 17 0 0 0 23 0 15 15 0 0 0 0-22Zm0 107a17 17 0 0 0-23 0l-44 41a15 15 0 0 0 0 23 17 17 0 0 0 23 0l44-42a15 15 0 0 0 0-22Z"/></g>
  
  <g id="typeNote">
  <path d="M224 53h-44c-50 0-90 44-90 98v683c0 53 40 97 90 97h451c49 0 90-44 90-97V151c0-54-41-98-90-98h-46v49h46c24 0 45 22 45 49v683c0 27-21 48-45 48H180c-25 0-45-21-45-48V151c0-27 20-49 45-49h44V53Zm113 49h135V53H337v49Z"/><path d="M224 317c0-13 10-24 23-24h315c13 0 23 11 23 24s-10 24-23 24H247c-13 0-23-11-23-24Zm1 126c0-13 10-24 23-24h315c12 0 23 11 23 24s-11 25-23 25H248c-13 0-23-11-23-25Zm0 122c0-13 10-24 23-24h315c12 0 23 11 23 24s-11 25-23 25H248c-13 0-23-11-23-25Zm0 124c0-14 10-25 23-25h180c12 0 22 11 22 25s-10 24-22 24H248c-13 0-23-11-23-24Z"/><path d="M23 170c12 0 22 11 22 24v659c0 68 50 122 113 122h429c12 0 23 11 23 25s-11 24-23 24H158C71 1024 0 948 0 853V194c0-13 10-24 23-24Zm832 244h-45v374l23 33 22-33Zm45 391-68 97-67-97V366h135Zm-45-561h-45v49h45Zm-45-49h45c25 0 45 22 45 49v97H765v-97c0-27 20-49 45-49ZM528 0c19 0 34 16 34 37v73c0 20-15 36-34 36s-33-16-33-36V37c0-21 15-37 33-37ZM281 0c19 0 34 16 34 37v73c0 20-15 36-34 36s-34-16-34-36V37c0-21 15-37 34-37Z"/></g>
  
  <g id="newLog">
  <path d="M250 500a250 250 0 1 1 0-500 250 250 0 0 1 0 500Zm0-479a229 229 0 1 0 0 458 229 229 0 0 0 0-458Zm125 239H260v115a10 10 0 0 1-20 0V260H125a10 10 0 0 1 0-20h115V125a10 10 0 1 1 20 0v115h115a10 10 0 1 1 0 20Z"/><path d="M942 430h-5V294c0-78-32-152-91-208C789 31 712 1 631 1h-2c-50 0-97 12-138 33a333 333 0 0 1 20 25c36-17 76-26 118-27h2a271 271 0 0 1 273 262v136h-55V294c0-56-23-109-65-148a221 221 0 0 0-244-41l13 29a188 188 0 0 1 209 34c35 34 54 78 54 126v136H524a243 243 0 0 1-23 31h441c27 0 49 22 49 48v484H271V578a261 261 0 0 1-33 0v431c0 9 7 16 16 16h754c9 0 16-7 16-16V509c0-44-37-79-82-79Z"/><path d="M661 701c48-12 83-54 83-104 0-60-51-108-113-108s-113 48-113 108c0 50 36 92 83 104-81 14-144 83-144 165v84c0 9 7 16 16 16h316c9 0 16-7 16-16v-84c0-82-62-151-144-165ZM551 597c0-42 36-77 80-77s80 35 80 77-36 77-80 77-80-35-80-77Zm221 337H490v-68c0-75 63-136 141-136s141 61 141 136v68Zm148-126c-9 0-16 7-16 16v84c0 9 7 16 16 16s17-7 17-16v-84c0-9-8-16-17-16Zm0-269c-9 0-16 7-16 16v210c0 9 7 16 16 16s17-7 17-16V555c0-9-8-16-17-16Z"/></g>

  <g id="newNote">
  <path d="M509 54a320 320 0 0 1 30 49h57V54h-87Zm246 0h-46v49h46c25 0 45 22 45 48v683c0 27-20 49-45 49H304c-25 0-45-22-45-49V575h-10l-35-2v261c0 54 41 98 90 98h451c49 0 90-44 90-98V152c0-54-41-98-90-98Z"/><path d="M687 420H527c-10 17-22 33-36 48h196c13 0 23-10 23-24s-10-24-23-24Zm-1-127H572c-2 17-6 33-11 49h125c13 0 23-11 23-24s-10-25-23-25Zm1 249H389l-14 5-24 11-2 8c0 13 10 24 23 24h315c13 0 23-11 23-24s-10-24-23-24ZM552 665H372c-13 0-23 11-23 24s10 25 23 25h180c12 0 23-11 23-25s-11-24-23-24Zm101-518c18 0 33-16 33-37V37c0-20-15-36-33-36-19 0-34 16-34 36v73c0 21 15 37 34 37Zm236 658 68 98 67-98V366H889v439Zm45-390h45v374l-22 32-23-32V415Z"/><path d="M711 976H282c-62 0-113-55-113-122V565a320 320 0 0 1-45-15v304c0 94 71 171 158 171h429c13 0 23-11 23-25s-10-24-23-24Zm268-780h-45c-25 0-45 21-45 48v98h135v-98c0-27-20-48-45-48Zm0 97h-45v-49h45v49ZM250 500a250 250 0 1 1 0-500 250 250 0 0 1 0 500Zm0-479a229 229 0 1 0 0 458 229 229 0 0 0 0-458Zm125 239H260v115a10 10 0 0 1-20 0V260H125a10 10 0 0 1 0-20h115V125a10 10 0 1 1 20 0v115h115a10 10 0 1 1 0 20Z"/></g>
  
<!--   <g id="newEntry">
  <path d="M512 1024A512 512 0 1 1 512 0a512 512 0 0 1 0 1024Zm0-981a469 469 0 1 0 0 938 469 469 0 0 0 0-938Zm256 490H533v235a21 21 0 0 1-42 0V533H256a21 21 0 0 1 0-42h235V256a21 21 0 0 1 42 0v235h235a21 21 0 0 1 0 42Z"/></g>
   -->
  <g id="newEntry">
  <path d="M512 1024a508.8 508.8 0 0 1-362-150A511.1 511.1 0 0 1 0 512a508.8 508.8 0 0 1 150-362A511.1 511.1 0 0 1 512 0a508.8 508.8 0 0 1 362 150 511.1 511.1 0 0 1 109.7 561.3A506.8 506.8 0 0 1 874 874a511.1 511.1 0 0 1-362 150zm0-962.2A450.8 450.8 0 0 0 61.8 512c0 248.2 202 450.2 450.2 450.2s450.2-202 450.2-450.2S760.2 61.8 512 61.8zm0 731.7a30.4 30.4 0 0 1-30.4-30.4V542.4H260.9a30.4 30.4 0 1 1 0-60.8h220.7V260.9a30.4 30.4 0 1 1 60.8 0v220.7h220.7a30.4 30.4 0 1 1 0 60.8H542.4v220.7a30.4 30.4 0 0 1-30.4 30.4z"/>
  </g>
  
  <g id="vDates">
  <path d="M864 128h-96a32 32 0 0 0 0 64h96a32 32 0 0 1 32 32v96H128v-96a32 32 0 0 1 32-32h96a32 32 0 0 0 0-64h-96a96 96 0 0 0-96 96v637a96 96 0 0 0 96 96h704a96 96 0 0 0 96-96V224a96 96 0 0 0-96-96zm0 765H160a32 32 0 0 1-32-32V384h768v477a32 32 0 0 1-32 32z"/><path d="M448 192h128a32 32 0 0 0 0-64H448a32 32 0 0 0 0 64zm-96 32a32 32 0 0 0 32-32v-64a32 32 0 0 0-64 0v64a32 32 0 0 0 32 32zm320 0a32 32 0 0 0 32-32v-64a32 32 0 0 0-64 0v64a32 32 0 0 0 32 32zM288 512h-64a32 32 0 0 0 0 64h64a32 32 0 0 0 0-64zm256 0h-64a32 32 0 0 0 0 64h64a32 32 0 0 0 0-64zm256 0h-64a32 32 0 0 0 0 64h64a32 32 0 0 0 0-64zM288 640h-64a32 32 0 0 0 0 64h64a32 32 0 0 0 0-64zm256 0h-64a32 32 0 0 0 0 64h64a32 32 0 0 0 0-64zm256 0h-64a32 32 0 0 0 0 64h64a32 32 0 0 0 0-64zM288 768h-64a32 32 0 0 0 0 64h64a32 32 0 0 0 0-64zm256 0h-64a32 32 0 0 0 0 64h64a32 32 0 0 0 0-64z"/></g>
  
  <g id="vCr8Date">
  <path d="M300 600a300 300 0 1 1 0-600 300 300 0 0 1 0 600Zm0-575a275 275 0 1 0 0 550 275 275 0 0 0 0-550Zm150 288H313v137a12 12 0 0 1-25 0V313H150a12 12 0 0 1 0-25h137V150a13 13 0 0 1 25 0v138h138a13 13 0 0 1 0 25Z"/><path d="M915 57H805a37 37 0 1 0 0 73h110c20 0 36 16 36 37v109H645l5 37-1 36h302v546c0 20-16 36-36 36H110c-20 0-36-16-36-36V577l-22-17c-20-20-37-42-52-66v401c0 60 50 109 110 109h805c60 0 109-49 109-109V167c0-61-49-110-109-110Z"/><path d="M181 642c-19 1-34 17-34 37s16 36 36 36h73a37 37 0 0 0 33-52c-37-2-74-8-108-21Zm75 146h-73a37 37 0 1 0 0 73h73a37 37 0 1 0 0-73ZM547 65c19 20 36 41 50 63a37 37 0 0 0-11-71h-50l11 8Zm221 504h74a37 37 0 1 0 0-73h-74a37 37 0 1 0 0 73Zm-221-9-8 9h10a37 37 0 0 0 34-49c-10 14-22 28-36 40ZM732 57a37 37 0 1 0-73 0v73a37 37 0 1 0 73 0V57ZM549 788h-73a37 37 0 1 0 0 73h73a37 37 0 1 0 0-73Zm293-146h-74a37 37 0 1 0 0 73h74a37 37 0 1 0 0-73Zm-293 0h-73a37 37 0 1 0 0 73h73a37 37 0 1 0 0-73Z"/></g>
  
<!--   <g id="vModDate">
  <path d="m80 96 19-20a40 40 0 0 1 28-11c8 0 17 3 23 9l201 202 1 1v1l21 76c1 4 0 9-3 12a13 13 0 0 1-13 3l-75-20-3-1L77 146c-6-6-9-14-9-23 0-10 4-20 12-27Zm262 243-10-39-28 28 38 11Zm-59-26 33-33-146-146-32 33 145 146ZM97 127l20 20 33-33-20-20c-3-3-9-3-13 1l-19 19c-2 2-3 5-3 7l2 6Z"/><path fill="#010101" d="M292 590A293 293 0 0 1 3 254c0-8 8-15 15-17l15-2-2 13c-2 10-8 59-2 94a267 267 0 1 0 525-94A267 267 0 0 0 246 31l-9 1-2-8-1-4-1-6V6l8-2a293 293 0 0 1 340 239 295 295 0 0 1-289 347Z"/><path d="M914 57H805a37 37 0 1 0 0 73h109c20 0 37 16 37 37v109H644l5 37c1 12 0 24-1 36h303v546c0 20-17 36-37 36H110c-20 0-37-16-37-36V577l-21-17c-20-20-38-42-52-66v401c0 60 49 109 110 109h804c61 0 110-49 110-109V167c0-61-49-110-110-110Z"/><path d="M180 642c-19 1-34 17-34 37s17 36 37 36h73a37 37 0 0 0 33-52c-38-2-74-8-109-21Zm76 146h-73a37 37 0 1 0 0 73h73a37 37 0 1 0 0-73ZM547 65c19 20 36 41 50 63a37 37 0 0 0-12-71h-49l11 8Zm221 504h73a37 37 0 1 0 0-73h-73a37 37 0 1 0 0 73Zm-221-9-9 9h11a37 37 0 0 0 34-49c-11 14-23 28-36 40ZM731 57a37 37 0 1 0-73 0v73a37 37 0 1 0 73 0V57ZM549 788h-74a37 37 0 1 0 0 73h74a37 37 0 1 0 0-73Zm292-146h-73a37 37 0 1 0 0 73h73a37 37 0 1 0 0-73Zm-292 0h-74a37 37 0 1 0 0 73h74a37 37 0 1 0 0-73Z"/></g> -->
  
  <g id="vDetails">
  <path d="M44 343a50 50 0 1 0 100 0 50 50 0 0 0-100 0Zm911 31H246c-17 0-31-14-31-32s14-32 31-32h709c17 0 31 15 31 32s-14 32-31 32Zm37-310H32a32 32 0 1 1 0-64h960a32 32 0 1 1 0 64ZM44 653a50 50 0 1 0 100 0 50 50 0 0 0-100 0Zm911 31H246c-17 0-31-15-31-32s14-32 31-32h709c17 0 31 14 31 32s-14 32-31 32ZM44 974a50 50 0 1 0 100 0 50 50 0 0 0-100 0Zm911 31H246c-17 0-31-15-31-32s14-32 31-32h709c17 0 31 14 31 32s-14 32-31 32Z"/></g>
  
  <g id="vSort">
  <path d="M385 992a32 32 0 1 1-64 0V33c0-18 14-32 32-32 17 0 32 14 32 32v959z"/><path d="M377 971a32 32 0 0 1-48 42l-1-1L8 628a32 32 0 0 1 49-41l320 384zM640 33a32 32 0 1 1 64 0v959a32 32 0 1 1-64 0V33z"/><path d="M648 53a32 32 0 0 1 48-42l1 1 320 385c11 13 9 33-5 44-13 11-33 9-44-4L648 53z"/></g>
  
  <g id="vSortCr8Desc">
  <path d="M724 600a300 300 0 1 1 0-600 300 300 0 0 1 0 600Zm0-575a275 275 0 1 0 0 550 275 275 0 0 0 0-550Zm150 288H737v137a12 12 0 0 1-25 0V313H574a12 12 0 0 1 0-25h138V150a13 13 0 0 1 25 0v138h137a13 13 0 0 1 0 25Z"/><path fill="#010101" d="M465 770a26 26 0 0 0-37 0L263 935V27a26 26 0 0 0-53 0v908L45 770a26 26 0 0 0-37 37l210 210a26 26 0 0 0 37 0l210-210c10-11 10-27 0-37Z"/></g>
    
  <g id="vSortCr8Asc">
  <path d="M724 424a300 300 0 1 0 0 600 300 300 0 0 0 0-600Zm0 575a275 275 0 1 1 0-550 275 275 0 0 1 0 550Zm150-287H737V574a12 12 0 0 0-25 0v138H574a12 12 0 0 0 0 25h138v137a13 13 0 0 0 25 0V737h137a13 13 0 0 0 0-25Z"/><path fill="#010101" d="M465 255a26 26 0 0 1-37 0L263 90v908a26 26 0 0 1-53 0V90L45 255a26 26 0 0 1-37-37L218 8a26 26 0 0 1 37 0l210 210c10 10 10 27 0 37Z"/></g>
  
  <g id="vSortModDesc">
  <path d="M465 769a26 26 0 0 0-37 0L263 935V26a26 26 0 0 0-53 0v909L45 769a26 26 0 0 0-37 37l210 211a26 26 0 0 0 37 0l210-211c10-10 10-26 0-37Zm14-169c-14 0-28-6-39-17a59 59 0 0 1-16-41V58c0-32 25-58 56-58h321c5 0 10 6 10 12s-5 12-10 12H482c-20 0-36 16-36 36v479c0 21 16 37 36 37h464c20 0 37-16 37-37V248c0-6 5-11 11-11s11 5 11 11v294a59 59 0 0 1-56 58H479Zm119-132c-2 0-5-1-6-3-3-2-3-6-2-9l30-116v-1L920 30c7-7 17-11 27-11 13 0 25 5 34 15l29 29v1c9 8 14 21 14 34 0 12-4 22-11 29L713 436l-113 31-2 1Zm13-23 92-25-68-70-24 95Zm39-106 64 66 231-239-63-66-231 240ZM950 41c-6 0-11 2-15 6l-37 38 63 65 38-38 1-1c2-3 5-8 5-15s-4-14-7-17v-1l-29-29c-5-5-12-8-19-8Z"/></g>
  
  <g id="vSortModAsc">
  <path d="M465 255a26 26 0 0 1-37 0L263 90v908a26 26 0 0 1-53 0V90L45 255a26 26 0 0 1-37-37L218 8a26 26 0 0 1 37 0l210 210c10 10 10 27 0 37ZM479 1024c-14 0-28-6-39-17a59 59 0 0 1-16-41V482c0-32 25-58 55-58h322c5 0 10 6 10 12s-5 12-10 12H482c-20 0-36 16-36 36v479c0 21 16 37 36 37h464c20 0 37-16 37-37V672c0-6 5-11 11-11s11 5 11 12v293a59 59 0 0 1-56 58H479Zm119-132c-2 0-5-1-6-3-3-2-3-6-2-9l30-116v-1l300-309c7-7 17-11 27-11 13 0 25 5 34 15l29 30c9 8 14 21 14 35 0 11-4 21-11 28L713 860l-113 32h-2Zm13-23 92-25-68-70-24 95Zm39-105 64 65 231-239-63-66-231 240Zm300-300c-6 0-11 2-15 6l-37 38 63 65 38-38 1-1c2-3 5-8 5-15s-4-14-7-17v-1l-29-29c-5-5-12-8-19-8Z"/></g>

  <g id="vSortNameAsc">
  <path d="M465 769a26 26 0 0 0-37 0L263 934V26a26 26 0 0 0-53 0v908L45 769a26 26 0 0 0-37 37l210 210a26 26 0 0 0 37 0l210-210c10-10 10-26 0-37Zm556-395L867 16a26 26 0 0 0-47 0L666 374a26 26 0 0 0 48 20l59-138h142l59 138a26 26 0 0 0 33 13c13-5 19-20 14-33ZM795 205l49-114 49 114h-98Zm151 819H741a26 26 0 0 1-22-38l183-320H741a26 26 0 0 1 0-52h205a26 26 0 0 1 22 39L785 973h161a26 26 0 0 1 0 51Z"/></g>
  
  <g id="vSortNameDesc">
  <path d="M465 769a26 26 0 0 0-37 0L263 934V26a26 26 0 0 0-53 0v908L45 769a26 26 0 0 0-37 37l210 210a26 26 0 0 0 37 0l210-210c10-10 10-27 0-37Zm557 219L868 629a26 26 0 0 0-47 0L667 988a26 26 0 0 0 48 20l59-138h142l59 138a26 26 0 0 0 33 13c13-5 19-20 14-33ZM796 819l49-115 49 115h-98Zm150-409H741a26 26 0 0 1-22-38L902 51H741a26 26 0 0 1 0-51h205a26 26 0 0 1 22 39L785 359h161a26 26 0 0 1 0 51Z"/></g>
  
  <g id="moreMenu">
  <path d="M96.7 507.2a91.5 91.5 0 1 0 183 0 91.5 91.5 0 1 0-183 0Zm328 0a91.5 91.5 0 1 0 183 0 91.5 91.5 0 1 0-183 0Zm320.3 0a91.5 91.5 0 1 0 183 0 91.5 91.5 0 1 0-183 0Z"/></g>
  
  <g id="emergDb">
  <path d="M991 494A24692 24692 0 0 1 731 51L588 291 466 495l24-1a22688 22688 0 0 1 502 0z" class="st4"/><path d="M108 720c0 52 114 103 256 103s257-49 257-103V598c0-8 5-16 13-16 9 0 15 8 15 16v277c0 75-126 133-285 133S79 950 79 875V409c1-76 129-131 285-131 41 0 81 5 117 11 7 2 12 9 11 18-1 8-8 14-17 13-34-8-71-12-110-12h-18c-44 2-85 9-121 18-73 20-117 53-117 83 0 52 114 102 256 102 9 0 15 6 15 15s-6 15-15 15c-112 0-210-29-256-73v96c0 52 114 102 256 102 49 0 96-6 137-17 7-2 16 3 17 11 1 7-3 16-10 18-43 10-92 17-142 17-113 0-211-29-257-74v99h-2zm0 60v95c0 49 105 103 256 103s257-54 257-103v-95c-46 44-144 73-257 73s-211-29-256-73zm454-43c-10 0-17-9-17-18 0-11 8-18 17-18 10 0 17 9 17 18 1 9-7 18-17 18zm0 154c-10 0-17-9-17-19s8-18 17-18c10 1 17 9 17 18 1 10-7 19-17 19z"/><path d="M474 522c-15 0-26-5-32-14-5-10-4-22 4-34L702 42c7-13 17-20 28-20s21 7 29 20l256 432c7 12 8 24 3 33-5 10-16 15-32 15H474zm-5-29h522L730 52 469 493z"/><path d="M730 463c-17 0-32-14-32-31s15-31 32-31c18 0 32 14 32 31s-14 31-32 31zm0-119c-13 0-24-9-24-20V170c0-11 11-20 24-20h1c13 0 23 9 24 20v154c-1 11-11 20-24 20h-1z"/></g>
  
  <g id="impDb">
  <path d="M78 726c0 52 114 103 256 103s257-49 257-103V604c0-8 5-16 13-16 9 0 15 8 15 16v277c0 75-126 133-285 133S49 956 49 881V415c1-76 129-131 285-131 41 0 81 5 117 11 7 2 12 9 11 18-1 8-8 14-17 13-34-8-71-12-110-12h-18c-44 2-85 9-121 18-73 20-117 53-117 83 0 52 114 102 256 102 9 0 15 6 15 15s-6 15-15 15c-112 0-210-29-256-73v96c0 52 114 102 256 102 49 0 96-6 137-17 7-2 16 3 17 11 1 7-3 16-10 18-43 10-92 17-142 17-113 0-211-29-257-74v99h-2zm0 60v95c0 49 105 103 256 103s257-54 257-103v-95c-46 44-144 73-257 73s-211-29-256-73zm454-43c-10 0-17-9-17-18 0-11 8-18 17-18 10 0 17 9 17 18 1 9-7 18-17 18zm0 154c-10 0-17-9-17-19s8-18 17-18c10 1 17 9 17 18 1 10-7 19-17 19z"/><path d="M522 456c-8-9-4-27 10-41L891 53c13-14 31-18 39-9 9 8 5 27-9 40L562 446c-14 14-31 18-40 10z"/><path d="M516 446c-3-11 5-24 17-27l322-86c12-3 25 3 28 15s-5 24-17 27l-322 87c-12 3-25-4-28-16z"/><path d="M533 463c-12-4-19-16-15-29l87-326c3-12 15-20 27-17 11 4 18 16 15 29l-88 326c-3 12-15 20-26 17z"/>
  </g>
  
  <g id="downDb">
  <path d="M105 723c0 52 114 103 256 103s257-49 257-103V601c0-8 5-16 13-16 9 0 15 8 15 16v277c0 75-126 133-285 133S76 953 76 878V412c1-76 129-131 285-131 41 0 81 5 117 11 7 2 12 9 11 18-1 8-8 14-17 13-34-8-71-12-110-12h-18c-44 2-85 9-121 18-73 20-117 53-117 83 0 52 114 102 256 102 9 0 15 6 15 15s-6 15-15 15c-112 0-210-29-256-73v96c0 52 114 102 256 102 49 0 96-6 137-17 7-2 16 3 17 11 1 7-3 16-10 18-43 10-92 17-142 17-113 0-211-29-257-74v99h-2zm0 60v95c0 49 105 103 256 103s257-54 257-103v-95c-46 44-144 73-257 73s-211-29-256-73zm454-43c-10 0-17-9-17-18 0-11 8-18 17-18 10 0 17 9 17 18 1 9-7 18-17 18zm0 154c-10 0-17-9-17-19s8-18 17-18c10 1 17 9 17 18 1 10-7 19-17 19zm199-263c-12-1-22-16-22-36l-2-510c-1-19 9-34 21-34s23 16 22 35l2 510c0 20-9 34-21 35z"/><path d="M747 628c-10-5-14-20-8-31l167-288c7-11 20-16 31-10 10 7 13 21 7 32L778 620c-7 10-21 15-31 8z"/><path d="M771 628c-12 6-25 2-32-10L570 326c-6-10-3-24 7-31 11-5 25-1 32 10l168 293c6 11 3 25-6 30z"/>
  </g>
<!--   <g id="emergDb">
  <path d="M969 489C878 337 788 184 700 30L552 278 426 490l24-1c174-2 347-2 520 0h-1z" class="st4"/><path d="M55 722c0 54 118 107 265 107s266-51 266-107V596c0-8 5-16 13-16 10 0 16 8 16 16v287c0 77-131 137-295 137S25 960 25 883V401c1-79 134-136 295-136 42 0 84 5 121 11 7 2 12 10 11 19-1 8-8 14-17 13-35-8-74-12-114-12h-19c-45 2-88 9-125 19-75 20-121 55-121 86 0 53 118 105 265 105 9 0 15 6 15 16 0 9-6 15-15 15-116 0-217-30-265-75v99c0 54 118 105 265 105 51 1 99-6 142-17 7-2 16 3 17 11 1 7-3 17-10 19-44 10-95 17-147 17-117 1-218-29-266-76v102h-2zm0 63v98c0 50 109 106 265 106s266-56 266-106v-99c-48 46-149 76-266 76s-218-30-265-75zm470-45c-10 0-18-9-18-19 0-11 9-18 18-18 10 0 17 9 17 18 2 10-7 19-17 19zm0 159c-10 0-18-9-18-19s9-19 18-19c10 1 17 9 17 19 2 10-7 19-17 19z"/><path d="M434 517c-16 0-27-5-33-14-6-10-4-23 4-35L670 21c7-14 17-21 29-21 11 0 21 7 30 21l265 447c7 12 8 25 3 34-5 10-17 16-33 16H434zm-5-30h540L699 31 429 487z"/><path d="M699 456c-18 0-33-14-33-32 0-17 15-32 33-32s33 15 33 32c0 18-15 32-33 32zm0-123c-14 0-25-9-25-21V154c0-11 11-21 25-21h1c13 1 24 10 25 21v160c-1 11-12 20-25 20h-1z"/></g> -->
  
<!--   <g id="emergDb">
  <path d="M41 620c0 73 160 145 359 145s360-69 360-145V449c0-11 7-23 18-23 13 1 22 12 22 23v389c0 105-177 186-400 186S0 943 0 837V184C1 77 181 0 400 0c57 0 113 7 164 15 10 3 17 13 15 26-1 11-11 19-24 18-47-11-99-17-154-17h-25c-62 3-119 13-170 25C104 95 42 142 42 184c0 73 160 143 359 143 13 0 21 8 21 21s-8 21-21 21c-157 0-294-41-359-103v135c0 73 160 143 359 143 69 0 135-8 192-24 10-2 23 5 24 16 2 10-4 22-14 25-60 14-129 24-199 24-158 0-296-41-360-104v139h-3zm0 84v134c0 68 147 144 359 144s360-76 360-144V704c-64 62-202 103-360 103S104 766 41 704zm637-60c-14 0-24-13-24-25 0-16 11-26 24-26 14 0 23 13 23 26 2 12-9 25-23 25zm0 216c-14 0-24-13-24-27s11-25 24-25c14 1 23 13 23 25 2 14-9 27-23 27z"/><path d="M988 547C881 377 777 206 674 35L502 312 355 548l29-1c202-3 403-3 605 0h-1z" class="st4"/><path d="M365 579c-18 0-32-6-39-16-6-12-5-26 5-40L640 25c8-15 20-23 33-23 14 0 26 8 35 23l309 500c8 13 9 27 3 38s-19 17-38 17H365zm-6-33h629L673 36 359 546z"/><path d="M673 511c-20 0-38-16-38-36s18-36 38-36c22 0 39 16 39 36s-17 36-39 36zm0-138c-15 0-29-10-29-23V172c0-13 14-23 29-23h1c16 0 28 10 29 23v178c-1 13-13 23-29 23h-1z"/></g> -->
  
  
<!--   <g id="reload">
  <path fill="#000" d="M904 587c-14 0-25 10-29 23a361 361 0 0 1-695 0c-4-13-16-23-29-23-20 0-35 19-29 39a421 421 0 0 0 811 0 30 30 0 0 0-29-39M151 437c13 0 25-10 29-23a361 361 0 0 1 695 0c4 13 15 23 29 23 20 0 34-19 29-39a421 421 0 0 0-811 0 30 30 0 0 0 29 39"/><path fill="#000" d="m87 369 139 34a12 12 0 0 1 5 21l-100 90a12 12 0 0 1-20-6L73 385a12 12 0 0 1 14-16zm885 278-141-22a12 12 0 0 1-7-20l92-98a12 12 0 0 1 20 4l49 119a12 12 0 0 1-13 17z"/></g> -->
  
  
  <g id="reload">
  <path d="M932 597c-16 0-28 12-33 26a404 404 0 0 1-778 1c-5-15-18-27-33-27-22 0-39 22-32 45a471 471 0 0 0 908 0 34 34 0 0 0-32-45M88 427c15 0 28-12 33-27a404 404 0 0 1 779 1c4 14 16 26 32 26 22 0 38-22 33-45a471 471 0 0 0-909 0 34 34 0 0 0 32 45"/><path d="m17 349 155 39a14 14 0 0 1 6 24L66 514a13 13 0 0 1-22-6L1 368c-3-7 1-15 8-18l8-1zm991 317-158-25a14 14 0 0 1-8-23l103-112c5-5 14-6 19 0l4 5 55 135c3 7 0 15-7 18-2 2-5 2-8 2z"/></g>
  
  <g id="langGB">
  <path fill="#002781" d="M981 128H43c-24 0-43 19-43 43v682c0 24 19 43 43 43h938c24 0 43-19 43-43V171c0-24-19-43-43-43z"/><path fill="#E6E6E6" d="M1024 171c0-24-19-43-43-43H871L597 339V128H427v211L153 128H43c-24 0-43 19-43 43v55l261 201H0v170h261L0 798v55c0 24 19 43 43 43h110l274-211v211h170V685l274 211h110c24 0 43-19 43-43v-55L763 597h261V427H763l261-201v-55z"/><path fill="#D10D24" d="M1024 469H555V128h-86v341H0v86h469v341h86V555h469z"/><path fill="#D10D24" d="M1003 135 623 427h70l331-255v-1c0-16-9-29-21-36zM693 597h-70l380 292c12-7 21-20 21-36v-1L693 597zm-362 0L0 852v1c0 16 9 29 21 36l380-292h-70zm0-170h70L21 135c-12 7-21 20-21 36v1l331 255z"/></g>

  <g id="langPL">
  <path fill="#E6E6E6" d="M970 128H54c-30 0-54 23-54 52v332h1024V180c0-29-24-52-54-52z"/><path fill="#e73b28" d="M0 844c0 29 24 52 54 52h916c30 0 54-23 54-52V512H0v332z"/></g>
  
  <g id="langES">
  <path fill="#c71620" d="M0 171h1024v682H0V171z"/><path fill="#fdc309" d="M0 341h1024v342H0V341z"/></g>
      
  <g id="langFR">
  <path fill='#01209F' d="M341 896H43c-24 0-43-19-43-43V171c0-24 19-43 43-43h298v768z"/><path fill='#EF4234' d="M1024 853c0 24-19 43-43 43H683V128h298c24 0 43 19 43 43v682z"/><path fill='#E6E6E6' d="M341 128h341v768H341z"/></g>

  <g id="msgHistory">
  <path class="st5" stroke-linecap="round" d="M30 512A482 482 0 1 0 512 30"/><path class="st5" stroke-linecap="round" stroke-linejoin="round" d="M512 367v193h193"/><circle cx="512" cy="512" r="482" class="st5" stroke-dasharray="48 193" stroke-linecap="round"/>
  </g>
  <g id="donate">
  <path d="M-961 322h11"/><path d="m569 605-17 6c-75 27-102-96-174-130s-186 23-214-52-25-158 8-230S268 71 343 44l16-6c158-56 331 25 388 183a295 295 0 0 1-178 384z" class="st5"/><path d="M129 935 20 692c71-30 138-64 209-84 33-9 74 7 109 18 21 6 39 21 56 35 74 64 170 95 267 87 21 4 49 1 50 32 1 30-25 36-47 37-97 3-195 14-289-19-5-2-10-2-16-1 30 32 63 59 107 61 68 4 137 3 205-1 23-2 51-16 68-34 34-35 13-98-35-108-37-9-74-10-113-14 73-68 133-84 182-47 83-36 102-33 123 17 22-6 45-18 67-17 17 1 40 14 49 29 6 9-4 33-14 47-9 14-25 23-39 32-106 70-214 138-319 211-67 47-131 51-201 10-46-28-97-48-143-75-48-28-91-30-134 7-9 7-20 12-33 20z" class="st5"/><text class="st6" transform="translate(346 433)">$</text></g>
  
  <g id="privMode">
  <path d="M510 605c-108 0-215-5-322-20-45-7-89-17-134-28-15-4-30-13-44-23-14-9-14-20 1-29 16-11 34-20 53-25 39-10 78-18 118-25 10-1 13-6 15-14l65-240c16-56 57-77 111-55l45 18c61 26 122 26 183 2l54-22c47-19 91 2 104 51l67 246c3 9 7 13 17 15 43 8 86 17 128 28 16 4 31 13 44 23 12 9 12 17 0 25-14 10-30 19-46 25-57 19-116 28-175 33-95 8-47 4-141 10 0-1-142 6-143 5zm126 282c-23 1-43-5-62-20-13-11-28-20-43-26-17-7-35-2-50 10l-1 1c-37 39-83 40-131 28-38-9-75-21-110-39a99 99 0 0 1-47-49c-14-33-28-68-38-103-8-26 11-47 38-44 176 20 352 21 529 10 37-2 74-6 111-10 34-3 53 17 43 50-10 32-22 64-35 95-11 26-31 44-56 56-47 23-96 38-148 41zM343 721l-56 8c-9 2-12 9-12 19 2 17 11 29 24 39 19 13 41 17 63 19 23 1 45-1 63-19 24-24 18-48-15-56-20-5-42-7-67-10zm324 86c10-3 28-6 44-12 19-8 35-20 42-41 5-15 2-22-13-26-44-10-88-7-130 7-20 6-23 19-15 38 13 27 38 32 72 34z"/>
  </g>
</svg>