<?xml version="1.0" encoding="utf-8"?>
<!-- <!DOCTYPE svg PUBLIC "-//W3C//DTD SVG 1.1//EN" "http://www.w3.org/Graphics/SVG/1.1/DTD/svg11.dtd"> -->
<!-- 'frequent_0.052_GitHub' -->
<svg version="1.1" xmlns="http://www.w3.org/2000/svg" xmlns:xlink="http://www.w3.org/1999/xlink" x="0px" y="0px" viewBox="0 0 1024 1024" xml:space="preserve">

    <defs>
      <style>
        g {
            display:none;
        }
        g:target {
            display:inline;
        }
        .fl00{
            fill:#fff;
        }
        .fl01{
            fill:#00b400; <!-- NewDB, tick #00b400 rgb(0 180 0) / green #00ff64-->
        }
        .fl01_invert{
            fill:#ff4bff; <!-- rgb(255 75 255)-->
        }
        .fl02{
            fill:#f0f; <!-- Local purple --> <!--rgb(255 0 255)-->
        }
        .fl02_invert{
            fill:#0f0; <!-- Local purple --> <!--rgb(0 255 0)-->
        }
        .fl03{
            fill:#ffc800; <!-- EmergDB, Local File amber --> <!--rgb(255 200 0)-->
        }
        .fl03_invert{ <!--rgb(0 55 255)-->
            fill:#0037ff;
        }
        .fl04{
            fill:#b40000;  <!-- dark-red rgb(180 0 0) -->
        }
        .fl04_invert{
            fill:#4bffff;  <!-- ~cyan rgb(75 255 255) -->
        }
        .fl05{
            fill:#0061ff; <!-- DBX blue --> <!--rgb(0 97 255)-->
        }
        .fl05_invert{
            fill:#ff9e00; <!-- DBX blue inverse--> <!--rgb(255 158 0);-->
        }
        
        
        
        .fl06{
            fill:#1a66b1; <!-- OneDrive blue rgb(26 102 177)-->
        }
        .fl06_invert{
            fill:#e5994e; <!-- rgb(229 153 78)-->
        }
        
        .fl07{
            fill:#2f8dcd; <!-- OneDrive blue rgb(47 141 205)-->
        }
        .fl07_invert{
            fill:#d07232; <!-- rgb(208 114 50)-->
        }
        
        .fl08{
            fill:#39a6de; <!-- OneDrive blue rgb(57 166 222)-->
        }
        .fl08_invert{
            fill:#c65921; <!-- rgb(198 89 33)-->
        }
        
        
        
        
        .fl09{
            fill:#2f76bc; <!-- OneDrive dark blue rgb(47 118 188)-->
        }
        .fl09_invert{
            fill:#d08943; <!-- rgb(208 137 67)-->
        }
        .str01{
            fill:none;
            stroke:#000;
            stroke-width:60;
        }




      </style>
    </defs>

  <g id="secreSync">
    <path d="M532 108h-30c-92 0-166 87-166 194v74h-34c-36 0-65 31-65 69v305c0 37 29 68 65 68h430c36 0 65-31 65-69V446c0-38-29-69-65-69h-34v-74c0-107-75-194-166-194ZM401 302c0-34 11-67 31-91 19-23 44-36 70-36h30c26 0 51 13 70 36 20 24 31 57 31 91v74H400v-74Zm311 239c20-2 32 11 26 30l-24 63c-5 12-14 20-25 27-26 15-70 28-103 29-11 1-23-3-35-13-8-6-17-12-26-16a29 29 0 0 0-20 0c-10 4-19 10-27 16a53 53 0 0 1-35 13c-32-1-77-14-103-29-11-7-20-15-25-27l-24-63c-6-19 6-32 26-30l70 6a2262 2262 0 0 0 255 0l70-6Z"/><path d="m115 663 58 61-21-82-2-10-11-44-9-32 36 10-27-47a278 278 0 0 1 2-301c52-79 144-135 255-153l7-1h3l4-1 6-1h1a449 449 0 0 1 103-1h1l7 1 5 1h3c30 4 59 11 87 20h1c38 13 77 31 115 56 11 10 52 42 93 70 25 16 46 28 63 36 15 7 28 10 38 10s16-2 22-6c5-4 14-13 14-30s-2-18-6-29a437 437 0 0 0-63-113c-25-31-39-36-49-36s-7 1-9 2c-6 2-20 10-19 34l5 26c2 11 5 23 5 32v4l-14-4c-10-4-21-10-34-19a471 471 0 0 0-152-84A554 554 0 0 0 459 0h-12a540 540 0 0 0-164 26A434 434 0 0 0 36 232 348 348 0 0 0 5 447a395 395 0 0 0 110 216Z"/><path d="M1019 577a395 395 0 0 0-110-216s-58-61-58-61l21 82 2 10c3 15 7 30 12 44l9 32-37-9 28 46c8 15 16 31 22 47a278 278 0 0 1-25 254 371 371 0 0 1-254 153l-7 1h-4l-4 1-6 1h-1a467 467 0 0 1-103 1h-1l-7-1-5-1h-3c-30-4-59-11-87-20h-1c-38-13-77-31-114-56-12-10-52-42-94-70-25-16-46-28-63-36-15-7-28-10-38-10s-16 2-22 6c-5 4-14 13-14 30s2 18 6 29a437 437 0 0 0 63 113c25 31 39 36 50 36s6-1 9-2c6-2 20-10 18-34l-5-26-5-32v-4l15 4c9 4 20 10 33 19a471 471 0 0 0 152 85 554 554 0 0 0 174 31h12a540 540 0 0 0 164-25c58-20 110-49 153-87 41-34 72-75 94-120a348 348 0 0 0 31-215Z"/><path d="m621 575-12 2c-12 3-28 8-40 22-7 8-10 17-9 26 2 9 8 17 17 22 3 2 8 4 12 4h6l13 1 10-1c19-2 35-10 46-23 6-8 9-18 7-27-1-8-7-16-15-20-6-3-12-4-19-6h-16Zm-168 19a83 83 0 0 0-51-18c-12 0-23 1-32 8-7 4-12 10-13 18-2 7 0 15 4 22l7 9a87 87 0 0 0 54 20c10 0 13 0 19-2 19-4 25-15 26-24 4-19-10-30-14-33Z"/>
  </g>

<!--   <g id="privMode">
    <path d="M510 605c-108 0-215-5-322-20-45-7-89-17-134-28-15-4-30-13-44-23-14-9-14-20 1-29 16-11 34-20 53-25 39-10 78-18 118-25 10-1 13-6 15-14l65-240c16-56 57-77 111-55l45 18c61 26 122 26 183 2l54-22c47-19 91 2 104 51l67 246c3 9 7 13 17 15 43 8 86 17 128 28 16 4 31 13 44 23 12 9 12 17 0 25-14 10-30 19-46 25-57 19-116 28-175 33-95 8-47 4-141 10 0-1-142 6-143 5zm126 282c-23 1-43-5-62-20-13-11-28-20-43-26-17-7-35-2-50 10l-1 1c-37 39-83 40-131 28-38-9-75-21-110-39a99 99 0 0 1-47-49c-14-33-28-68-38-103-8-26 11-47 38-44 176 20 352 21 529 10 37-2 74-6 111-10 34-3 53 17 43 50-10 32-22 64-35 95-11 26-31 44-56 56-47 23-96 38-148 41zM343 721l-56 8c-9 2-12 9-12 19 2 17 11 29 24 39 19 13 41 17 63 19 23 1 45-1 63-19 24-24 18-48-15-56-20-5-42-7-67-10zm324 86c10-3 28-6 44-12 19-8 35-20 42-41 5-15 2-22-13-26-44-10-88-7-130 7-20 6-23 19-15 38 13 27 38 32 72 34z"/>
  </g> -->
  
  <g id="privMode">
    <path d="M285 273c-10-16 35-205 48-230 59-108 94 24 170 24 81 0 126-156 182 8 8 25 41 167 38 185-4 29-58 38-82 44a559 559 0 0 1-356-31Z"/><path d="M873 441c-34 41-207 71-262 74-95 7-412 1-475-72-55-63 59-110 108-115 45-4 139 38 197 43 35 3 82 4 116 2 104-7 184-73 280-21 33 18 66 53 36 89ZM992 604 795 725l80 31a805 805 0 0 0-466 268 638 638 0 0 1 261-352c18-13 98-51 102-59 13-20 0-61 5-85 4-23 83-50 110-57l105 133ZM436 899 149 765c-20-21 76-37 80-49L32 604l99-121c11-6 86 23 94 32 12 15 41 108 63 142 46 70 112 122 171 180l-23 62Z"/><path d="m768 515-2 34c-51 4-31 50-57 82-30 36-98 41-141 34-20-4-44-22-58-23-36-3-77 41-153 19-66-19-53-54-79-92-7-11-41-26-39-41 2-16 17-8 24-7 138 14 230 36 373 20 44-5 88-18 132-26Zm-298 64-151-10c-20 81 158 89 160 32 0-3-7-21-9-22Zm226-10c-31 4-172-7-160 38 13 50 175 39 160-38Z"/>
  </g>

  <g id="langEN">
    <path fill="#002781" d="M981 128H43c-24 0-43 19-43 43v682c0 24 19 43 43 43h938c24 0 43-19 43-43V171c0-24-19-43-43-43z"/><path fill="#E6E6E6" d="M1024 171c0-24-19-43-43-43H871L597 339V128H427v211L153 128H43c-24 0-43 19-43 43v55l261 201H0v170h261L0 798v55c0 24 19 43 43 43h110l274-211v211h170V685l274 211h110c24 0 43-19 43-43v-55L763 597h261V427H763l261-201v-55z"/><path fill="#D10D24" d="M1024 469H555V128h-86v341H0v86h469v341h86V555h469z"/><path fill="#D10D24" d="M1003 135 623 427h70l331-255v-1c0-16-9-29-21-36zM693 597h-70l380 292c12-7 21-20 21-36v-1L693 597zm-362 0L0 852v1c0 16 9 29 21 36l380-292h-70zm0-170h70L21 135c-12 7-21 20-21 36v1l331 255z"/>
  </g>

  <g id="langPL">
    <path fill="#E6E6E6" d="M970 128H54c-30 0-54 23-54 52v332h1024V180c0-29-24-52-54-52z"/><path fill="#e73b28" d="M0 844c0 29 24 52 54 52h916c30 0 54-23 54-52V512H0v332z"/>
  </g>

  <g id="langES">
    <path fill="#c71620" d="M0 171h1024v682H0V171z"/><path fill="#fdc309" d="M0 341h1024v342H0V341z"/>
  </g>

  <g id="langFR">
    <path fill='#01209F' d="M341 896H43c-24 0-43-19-43-43V171c0-24 19-43 43-43h298v768z"/><path fill='#EF4234' d="M1024 853c0 24-19 43-43 43H683V128h298c24 0 43 19 43 43v682z"/><path fill='#E6E6E6' d="M341 128h341v768H341z"/>
  </g>

  <g id="newDb">
    <path d="M749 225V25c0-16 10-25 26-25s24 9 24 25v200h200c15 0 25 10 25 24s-10 24-25 24H799v201c0 16-10 26-24 26s-26-10-26-26V275H549c-15 0-25-11-25-26 0-13 10-24 25-24h200z" class="fl01"/><path d="M36 650c1 67 143 133 320 133 178 0 322-64 322-134V491c0-23 32-26 34-3l1 2v361c0 98-158 173-357 173S0 949 0 851V244C1 146 161 74 356 74c51 0 101 7 146 14h1c8 3 15 12 13 24a19 19 0 0 1-21 17c-43-11-89-16-137-16h-23c-55 3-106 12-151 23-91 26-146 69-146 108 0 68 142 133 319 133 11 0 20 11 19 23-1 10-8 16-19 16-139 0-260-37-318-94l-2 1v123c0 68 143 133 320 133 62 0 120-8 172-22 9-3 20 4 21 14 1 9-4 21-12 24-54 13-115 22-178 22-140 0-263-38-321-95 0-1 0-1 0 0l-3 128m0 77v124c0 64 131 134 320 134s320-70 320-134V727c-57 58-180 95-320 95S92 785 36 727zm567-56c-13 0-22-11-22-23 0-14 10-24 22-24s21 12 21 24c1 12-9 23-21 23zm0 201c-13 0-22-12-22-25s10-23 22-23c12 1 21 11 21 23 1 13-9 25-21 25z"/>
  </g>

  <g id="newDbInvert">
    <path d="M749 225V25c0-16 10-25 26-25s24 9 24 25v200h200c15 0 25 10 25 24s-10 24-25 24H799v201c0 16-10 26-24 26s-26-10-26-26V275H549c-15 0-25-11-25-26 0-13 10-24 25-24h200z" class="fl01_invert"/><path d="M36 650c1 67 143 133 320 133 178 0 322-64 322-134V491c0-23 32-26 34-3l1 2v361c0 98-158 173-357 173S0 949 0 851V244C1 146 161 74 356 74c51 0 101 7 146 14h1c8 3 15 12 13 24a19 19 0 0 1-21 17c-43-11-89-16-137-16h-23c-55 3-106 12-151 23-91 26-146 69-146 108 0 68 142 133 319 133 11 0 20 11 19 23-1 10-8 16-19 16-139 0-260-37-318-94l-2 1v123c0 68 143 133 320 133 62 0 120-8 172-22 9-3 20 4 21 14 1 9-4 21-12 24-54 13-115 22-178 22-140 0-263-38-321-95 0-1 0-1 0 0l-3 128m0 77v124c0 64 131 134 320 134s320-70 320-134V727c-57 58-180 95-320 95S92 785 36 727zm567-56c-13 0-22-11-22-23 0-14 10-24 22-24s21 12 21 24c1 12-9 23-21 23zm0 201c-13 0-22-12-22-25s10-23 22-23c12 1 21 11 21 23 1 13-9 25-21 25z"/>
  </g>

  <g id="local">
    <path d="M858 450c-14 0-26-7-34-18-2 3-5 5-9 5H663c-5 0-9-4-9-8v-13c0-5 4-9 9-9h61v-27H600c-25 0-45-23-45-52V144c0-29 20-52 46-52h212V52c0-29 20-52 45-52h122c24 0 44 23 44 52v346c0 29-20 52-44 52H858zm-19-52c0 13 9 23 19 23h122c10 0 17-10 17-23V52c0-13-7-23-17-23H858c-10 0-19 10-19 23v40h40c25 0 44 23 44 53v183c0 29-19 52-44 52h-40v18zm-26 9v-27h-59v27h59zM600 121c-9 0-19 9-19 24v183c0 13 9 25 20 25h278c9 0 18-12 18-25V144c0-12-9-23-18-23H600z" class="fl02"/><path d="M36 650c1 67 143 133 320 133 178 0 322-64 322-134V491c0-23 32-26 34-3l1 2v361c0 98-158 173-357 173S0 949 0 851V244C1 146 161 74 356 74c51 0 101 7 146 14h1c8 3 15 12 13 24a19 19 0 0 1-21 17c-43-11-89-16-137-16h-23c-55 3-106 12-151 23-91 26-146 69-146 108 0 68 142 133 319 133 11 0 20 11 19 23-1 10-8 16-19 16-139 0-260-37-318-94l-2 1v123c0 68 143 133 320 133 62 0 120-8 172-22 9-3 20 4 21 14 1 9-4 21-12 24-54 13-115 22-178 22-140 0-263-38-321-95 0-1 0-1 0 0l-3 128m0 77v124c0 64 131 134 320 134s320-70 320-134V727c-57 58-180 95-320 95S92 785 36 727zm567-56c-13 0-22-11-22-23 0-14 10-24 22-24s21 12 21 24c1 12-9 23-21 23zm0 201c-13 0-22-12-22-25s10-23 22-23c12 1 21 11 21 23 1 13-9 25-21 25z"/>
  </g>

  <g id="localInvert">
    <path d="M858 450c-14 0-26-7-34-18-2 3-5 5-9 5H663c-5 0-9-4-9-8v-13c0-5 4-9 9-9h61v-27H600c-25 0-45-23-45-52V144c0-29 20-52 46-52h212V52c0-29 20-52 45-52h122c24 0 44 23 44 52v346c0 29-20 52-44 52H858zm-19-52c0 13 9 23 19 23h122c10 0 17-10 17-23V52c0-13-7-23-17-23H858c-10 0-19 10-19 23v40h40c25 0 44 23 44 53v183c0 29-19 52-44 52h-40v18zm-26 9v-27h-59v27h59zM600 121c-9 0-19 9-19 24v183c0 13 9 25 20 25h278c9 0 18-12 18-25V144c0-12-9-23-18-23H600z" class="fl02_invert"/><path d="M36 650c1 67 143 133 320 133 178 0 322-64 322-134V491c0-23 32-26 34-3l1 2v361c0 98-158 173-357 173S0 949 0 851V244C1 146 161 74 356 74c51 0 101 7 146 14h1c8 3 15 12 13 24a19 19 0 0 1-21 17c-43-11-89-16-137-16h-23c-55 3-106 12-151 23-91 26-146 69-146 108 0 68 142 133 319 133 11 0 20 11 19 23-1 10-8 16-19 16-139 0-260-37-318-94l-2 1v123c0 68 143 133 320 133 62 0 120-8 172-22 9-3 20 4 21 14 1 9-4 21-12 24-54 13-115 22-178 22-140 0-263-38-321-95 0-1 0-1 0 0l-3 128m0 77v124c0 64 131 134 320 134s320-70 320-134V727c-57 58-180 95-320 95S92 785 36 727zm567-56c-13 0-22-11-22-23 0-14 10-24 22-24s21 12 21 24c1 12-9 23-21 23zm0 201c-13 0-22-12-22-25s10-23 22-23c12 1 21 11 21 23 1 13-9 25-21 25z"/>
  </g>
  
  <g id="dbxFile">
    <path d="m651 52-126 80 126 80 125-80-125-80zm249 0-124 80 124 80 125-80-125-80zM525 290l126 81 125-81-125-78-126 78zm375-78-124 78 124 81 125-81-125-78zM651 398l125 78 124-78-124-80-125 80z" class="fl05"/><path d="M36 650c1 67 143 133 320 133 178 0 322-64 322-134V491c0-23 32-26 34-3l1 2v361c0 98-158 173-357 173S0 949 0 851V244C1 146 161 74 356 74c51 0 101 7 146 14h1c8 3 15 12 13 24a19 19 0 0 1-21 17c-43-11-89-16-137-16h-23c-55 3-106 12-151 23-91 26-146 69-146 108 0 68 142 133 319 133 11 0 20 11 19 23-1 10-8 16-19 16-139 0-260-37-318-94l-2 1v123c0 68 143 133 320 133 62 0 120-8 172-22 9-3 20 4 21 14 1 9-4 21-12 24-54 13-115 22-178 22-140 0-263-38-321-95 0-1 0-1 0 0l-3 128m0 77v124c0 64 131 134 320 134s320-70 320-134V727c-57 58-180 95-320 95S92 785 36 727zm567-56c-13 0-22-11-22-23 0-14 10-24 22-24s21 12 21 24c1 12-9 23-21 23zm0 201c-13 0-22-12-22-25s10-23 22-23c12 1 21 11 21 23 1 13-9 25-21 25z"/>
  </g>
  
  <g id="dbxFileInvert">
    <path d="m651 52-126 80 126 80 125-80-125-80zm249 0-124 80 124 80 125-80-125-80zM525 290l126 81 125-81-125-78-126 78zm375-78-124 78 124 81 125-81-125-78zM651 398l125 78 124-78-124-80-125 80z" class="fl05_invert"/><path d="M36 650c1 67 143 133 320 133 178 0 322-64 322-134V491c0-23 32-26 34-3l1 2v361c0 98-158 173-357 173S0 949 0 851V244C1 146 161 74 356 74c51 0 101 7 146 14h1c8 3 15 12 13 24a19 19 0 0 1-21 17c-43-11-89-16-137-16h-23c-55 3-106 12-151 23-91 26-146 69-146 108 0 68 142 133 319 133 11 0 20 11 19 23-1 10-8 16-19 16-139 0-260-37-318-94l-2 1v123c0 68 143 133 320 133 62 0 120-8 172-22 9-3 20 4 21 14 1 9-4 21-12 24-54 13-115 22-178 22-140 0-263-38-321-95 0-1 0-1 0 0l-3 128m0 77v124c0 64 131 134 320 134s320-70 320-134V727c-57 58-180 95-320 95S92 785 36 727zm567-56c-13 0-22-11-22-23 0-14 10-24 22-24s21 12 21 24c1 12-9 23-21 23zm0 201c-13 0-22-12-22-25s10-23 22-23c12 1 21 11 21 23 1 13-9 25-21 25z"/>
  </g>

  <g id="oneDriveFile">
    <path d="m806 294 114-109a172 172 0 0 0-310-52l196 161z" class="fl06"/><path d="M684 154c-22-14-47-21-73-21h-1a137 137 0 0 0-111 216l170-21 130-105-115-69z" class="fl09"/><path d="M920 185a111 111 0 0 0-52 9l-69 29 76 94 136 33a112 112 0 0 0-91-165z" class="fl07"/><path d="M499 349c25 37 68 59 112 59h301c41 0 79-22 99-58L799 223 499 349z" class="fl08"/><path d="M36 650c1 67 143 133 320 133 178 0 322-64 322-134V491c0-23 32-26 34-3l1 2v361c0 98-158 173-357 173S0 949 0 851V244C1 146 161 74 356 74c51 0 101 7 146 14h1c8 3 15 12 13 24a19 19 0 0 1-21 17c-43-11-89-16-137-16h-23c-55 3-106 12-151 23-91 26-146 69-146 108 0 68 142 133 319 133 11 0 20 11 19 23-1 10-8 16-19 16-139 0-260-37-318-94l-2 1v123c0 68 143 133 320 133 62 0 120-8 172-22 9-3 20 4 21 14 1 9-4 21-12 24-54 13-115 22-178 22-140 0-263-38-321-95 0-1 0-1 0 0l-3 128m0 77v124c0 64 131 134 320 134s320-70 320-134V727c-57 58-180 95-320 95S92 785 36 727zm567-56c-13 0-22-11-22-23 0-14 10-24 22-24s21 12 21 24c1 12-9 23-21 23zm0 201c-13 0-22-12-22-25s10-23 22-23c12 1 21 11 21 23 1 13-9 25-21 25z"/>
  </g>

  <g id="oneDriveFileInvert">
    <path d="m806 294 114-109a172 172 0 0 0-310-52l196 161z" class="fl06_invert"/><path d="M684 154c-22-14-47-21-73-21h-1a137 137 0 0 0-111 216l170-21 130-105-115-69z" class="fl09_invert"/><path d="M920 185a111 111 0 0 0-52 9l-69 29 76 94 136 33a112 112 0 0 0-91-165z" class="fl07_invert"/><path d="M499 349c25 37 68 59 112 59h301c41 0 79-22 99-58L799 223 499 349z" class="fl08_invert"/><path d="M36 650c1 67 143 133 320 133 178 0 322-64 322-134V491c0-23 32-26 34-3l1 2v361c0 98-158 173-357 173S0 949 0 851V244C1 146 161 74 356 74c51 0 101 7 146 14h1c8 3 15 12 13 24a19 19 0 0 1-21 17c-43-11-89-16-137-16h-23c-55 3-106 12-151 23-91 26-146 69-146 108 0 68 142 133 319 133 11 0 20 11 19 23-1 10-8 16-19 16-139 0-260-37-318-94l-2 1v123c0 68 143 133 320 133 62 0 120-8 172-22 9-3 20 4 21 14 1 9-4 21-12 24-54 13-115 22-178 22-140 0-263-38-321-95 0-1 0-1 0 0l-3 128m0 77v124c0 64 131 134 320 134s320-70 320-134V727c-57 58-180 95-320 95S92 785 36 727zm567-56c-13 0-22-11-22-23 0-14 10-24 22-24s21 12 21 24c1 12-9 23-21 23zm0 201c-13 0-22-12-22-25s10-23 22-23c12 1 21 11 21 23 1 13-9 25-21 25z"/>
  </g>

  <g id="localFile">
    <path d="M782 540c-8 0-14-6-14-13v-35c0-9 6-15 14-15h6v-4c0-8 7-13 15-13h5v-27H640c-10 0-16-5-16-12V155l3-9 1-2L793 4l1-1 7-3h208c8 0 15 7 15 15v406c0 7-6 12-15 12H839v27h5c9 0 16 6 16 13v6h5c9 0 15 5 15 13v3h129c8 0 15 6 15 14s-6 13-15 13H880v5c0 8-6 13-15 13h-83zm68-27v-9h-6c-9 0-15-5-15-12v-6h-11v6c0 7-6 12-15 12h-6v9h53zm143-105V26H834v145c0 7-6 12-15 12H655v225h338zM803 157V32L659 157h144z" class="fl03"/><path d="M36 650c1 67 143 133 320 133 178 0 322-64 322-134V491c0-23 32-26 34-3l1 2v361c0 98-158 173-357 173S0 949 0 851V244C1 146 161 74 356 74c51 0 101 7 146 14h1c8 3 15 12 13 24a19 19 0 0 1-21 17c-43-11-89-16-137-16h-23c-55 3-106 12-151 23-91 26-146 69-146 108 0 68 142 133 319 133 11 0 20 11 19 23-1 10-8 16-19 16-139 0-260-37-318-94l-2 1v123c0 68 143 133 320 133 62 0 120-8 172-22 9-3 20 4 21 14 1 9-4 21-12 24-54 13-115 22-178 22-140 0-263-38-321-95 0-1 0-1 0 0l-3 128m0 77v124c0 64 131 134 320 134s320-70 320-134V727c-57 58-180 95-320 95S92 785 36 727zm567-56c-13 0-22-11-22-23 0-14 10-24 22-24s21 12 21 24c1 12-9 23-21 23zm0 201c-13 0-22-12-22-25s10-23 22-23c12 1 21 11 21 23 1 13-9 25-21 25z"/>
  </g>

  <g id="localFileInvert">
    <path d="M782 540c-8 0-14-6-14-13v-35c0-9 6-15 14-15h6v-4c0-8 7-13 15-13h5v-27H640c-10 0-16-5-16-12V155l3-9 1-2L793 4l1-1 7-3h208c8 0 15 7 15 15v406c0 7-6 12-15 12H839v27h5c9 0 16 6 16 13v6h5c9 0 15 5 15 13v3h129c8 0 15 6 15 14s-6 13-15 13H880v5c0 8-6 13-15 13h-83zm68-27v-9h-6c-9 0-15-5-15-12v-6h-11v6c0 7-6 12-15 12h-6v9h53zm143-105V26H834v145c0 7-6 12-15 12H655v225h338zM803 157V32L659 157h144z" class="fl03_invert"/><path d="M36 650c1 67 143 133 320 133 178 0 322-64 322-134V491c0-23 32-26 34-3l1 2v361c0 98-158 173-357 173S0 949 0 851V244C1 146 161 74 356 74c51 0 101 7 146 14h1c8 3 15 12 13 24a19 19 0 0 1-21 17c-43-11-89-16-137-16h-23c-55 3-106 12-151 23-91 26-146 69-146 108 0 68 142 133 319 133 11 0 20 11 19 23-1 10-8 16-19 16-139 0-260-37-318-94l-2 1v123c0 68 143 133 320 133 62 0 120-8 172-22 9-3 20 4 21 14 1 9-4 21-12 24-54 13-115 22-178 22-140 0-263-38-321-95 0-1 0-1 0 0l-3 128m0 77v124c0 64 131 134 320 134s320-70 320-134V727c-57 58-180 95-320 95S92 785 36 727zm567-56c-13 0-22-11-22-23 0-14 10-24 22-24s21 12 21 24c1 12-9 23-21 23zm0 201c-13 0-22-12-22-25s10-23 22-23c12 1 21 11 21 23 1 13-9 25-21 25z"/>
  </g>
  
<!-- Credentials -->
  <g id="trashBin">
    <path d="M260 1024c-70 0-125-55-125-125V380c1-17 11-28 29-28s29 11 29 28v519c0 34 23 68 67 68h511c34 0 68-23 68-68V380c0-17 11-28 28-28 9 0 16 3 20 7 3 4 3 10 1 16l-1 3v521c0 70-55 125-126 125H260z"/><path d="M622 848c-10 0-21-11-21-28V380c0-10 2-18 5-22 2-3 6-6 16-6 17 0 36 11 36 28v440c0 15-25 28-36 28zm-220 0c-18 0-29-11-29-28V380c0-15 25-28 37-28 9 0 20 11 20 28v440c0 17-11 28-28 28zM76 233c-17 0-28-11-28-29s11-28 28-28h235V99c0-54 45-99 99-99h212c53 0 98 45 98 99v77h235c18 0 29 11 29 28s-11 29-29 29H76zM410 57c-27 0-42 15-42 42v77h295V99c0-27-15-42-42-42H410z"/>
  </g>

  <g id="unlockDb">
    <path d="M215 1024c-73 0-133-58-133-129V561c0-71 60-129 133-129h17c5 0 9-2 12-6s4-9 2-13c-6-18-12-35-16-52-18-68-20-128-5-180 18-67 63-118 133-152a244 244 0 0 1 206-12c51 19 100 57 146 111l27 34c9 13 6 32-8 42-6 5-13 7-21 7-12 0-24-6-32-16l-20-25c-38-45-78-76-118-91-20-8-41-12-62-12-28 0-57 7-87 22-52 25-84 61-97 109-11 41-10 90 5 146 7 26 16 52 27 79 2 5 8 9 14 9h471c73 0 133 58 133 129v334c0 71-60 129-133 129H215zm0-525c-35 0-64 28-64 62v334c0 34 29 62 64 62h594c35 0 64-28 64-62V561c0-34-29-62-65-62H216z"/><path d="M537 733v82a25 25 0 0 1-50 0v-82a50 50 0 0 1 25-93c28 0 50 23 50 50 0 18-10 34-25 43z"/>
  </g>

  <g id="protectDb">
    <path d="M843 1024H181c-54 0-99-43-99-96V448c0-53 45-96 99-96h66v-96C247 115 366 0 512 0s265 115 265 256v96h66c55 0 99 43 99 96v480c0 53-44 96-99 96zM711 256c0-106-89-192-199-192s-198 86-198 192v96h396v-96zm165 192c0-18-15-32-33-32H181c-18 0-33 14-33 32v480c0 18 15 32 33 32h662c18 0 33-14 33-32V448zM537 733v82a25 25 0 0 1-50 0v-82a50 50 0 0 1 25-93c28 0 50 23 50 50 0 18-10 34-25 43z"/>
  </g>

  <g id="hint">
    <path d="M512 0a512 512 0 1 0 0 1024A512 512 0 0 0 512 0zm0 960a448 448 0 1 1 0-896 448 448 0 0 1 0 896zm-32-160h64v-96h-64v96zm32-576-128 32-32 128h64l32-64 64-32 64 32 32 64-32 64c-28 46-60 88-96 128v64h64v-64l32-32 64-64 32-96-32-128-128-32z"/>
  </g>

  <g id="checked">
    <path d="M954 953c7-7 12-17 12-28V98c0-10-5-20-12-28-7-7-17-11-28-11H99c-11 0-21 4-28 11-7 8-12 18-12 28v827c0 21 17 39 38 40h829c11 0 21-5 28-12zM99 0h827c54 0 98 44 98 98v827c0 54-44 98-98 98v1H99c-54 1-98-43-99-97V98C1 44 45 0 99 0z"/><path d="M414 746c-9 0-18-3-26-9a35 35 0 0 1-2-52l394-398c7-7 17-11 28-11 9 0 18 3 25 9a35 35 0 0 1 3 52L442 735c-7 7-17 11-28 11z"/><path d="M414 746c-10 0-19-4-27-11L189 538a40 40 0 0 1-2-54c7-8 16-13 27-13h1c10 0 19 4 27 11l198 197a40 40 0 0 1 2 54c-7 8-16 13-27 13h-1z"/>
  </g>

  <g id="unchecked"> <!-- THE SAME AS <g id="closeForm"> -->
  <path d="M955 953c7-7 12-17 12-28V98c0-10-5-20-12-28-7-7-17-11-28-11H100c-11 0-21 4-28 11-7 8-12 18-12 28v827c0 21 17 39 38 40h829c11 0 21-5 28-12zM100 0h827c54 0 98 44 98 98v827c0 54-44 98-98 98v1H100c-54 1-98-43-99-97V98C2 44 46 0 100 0z"/><path d="M315 747c-9 0-18-3-26-9a35 35 0 0 1-2-52l394-398c7-7 17-11 28-11 9 0 18 3 25 9a35 35 0 0 1 3 52L343 736c-7 7-17 11-28 11z"/><path d="M747 709c0 9-3 18-9 25a35 35 0 0 1-52 3L288 343c-7-7-11-17-11-28 0-9 3-18 9-25a35 35 0 0 1 52-3l398 394c7 7 11 17 11 28z"/></g>

<!-- Main Bars -->
  <g id="search">
    <path d="M1011 947 763 693c-5-4-9-7-14-9 53-72 85-161 85-259C834 190 647 0 416 0A422 422 0 0 0 0 426c0 235 186 426 416 426 107 0 203-40 276-106l8 11 248 253c17 19 46 19 63 0 17-17 17-45 0-63zM416 785A355 355 0 0 1 65 427v-1C65 228 223 66 416 66c195 0 351 162 351 360S611 785 416 785z"/>
  </g>

  <g id="arrowUp">
    <path d="M512 1024c-21 0-36-16-36-37V36c0-5 1-10 3-14h1c6-13 17-21 31-21 6 0 11 1 15 4 8 4 13 10 17 17 2 4 4 9 4 14v951c0 21-15 37-35 37z"/><path d="m76 595-3-2c-4-1-8-3-12-8a40 40 0 0 1-2-52L484 13l1-1c7-8 16-12 26-12 9 0 17 3 25 10v1c13 14 14 37 2 52L113 584c-4 5-9 8-16 9v1l-4 1-7 1-10-1z"/><path d="m931 596-4-1c-7-2-11-5-16-10L485 64l-4-7c-7-16-4-33 6-45l1-1c7-6 15-10 24-10 10 0 19 4 26 12l1 1 426 520a39 39 0 0 1-2 52l-1 1c-3 4-7 6-12 7v1l-3 1-9 1-7-1z"/>
  </g>

  <g id="moreMenu">
    <path d="M511 904a90 90 0 1 0 0-180 90 90 0 0 0 0 180zm0-301a90 90 0 1 0 0-180 90 90 0 0 0 0 180zm0-302a90 90 0 1 0 0-180 90 90 0 0 0 0 180z"/>
  </g>

  <g id="reload">
    <path d="M932 597c-16 0-28 12-33 26a404 404 0 0 1-778 1c-5-15-18-27-33-27-22 0-39 22-32 45a471 471 0 0 0 908 0 34 34 0 0 0-32-45M88 427c15 0 28-12 33-27a404 404 0 0 1 779 1c4 14 16 26 32 26 22 0 38-22 33-45a471 471 0 0 0-909 0 34 34 0 0 0 32 45"/><path d="m17 349 155 39a14 14 0 0 1 6 24L66 514a13 13 0 0 1-22-6L1 368c-3-7 1-15 8-18l8-1zm991 317-158-25a14 14 0 0 1-8-23l103-112c5-5 14-6 19 0l4 5 55 135c3 7 0 15-7 18-2 2-5 2-8 2z"/>
  </g>

  <g id="resetPass">
    <path d="M326 504c-17 0-34-9-43-23l-1-1v-1c-6-10-7-22-4-34 4-14 13-25 26-32 8-5 18-7 27-7a48 48 0 0 1 47 59c-3 13-12 25-24 32-8 4-18 7-28 7z"/><path d="m742 627-68 37-37-63-68 38-37-63-22 13h-3l-5 5v1l-1 2a237 237 0 0 1-268 42 191 191 0 0 1-96-220 219 219 0 0 1 104-132 233 233 0 0 1 217-5c44 23 77 62 93 109l1 3 323 75 76 129-169 95-40-66zm59 5 87-48-45-77-310-72c-12-3-20-11-25-26-23-65-85-109-154-109h-1c-79 0-148 51-172 127-10 41-5 82 16 116 28 47 82 77 142 77 30 0 60-8 85-21l1-1h1l2-1 6-3c12-8 37-23 54-39v-1l14-11h1c12-7 29-13 49-18h4l32 54 67-38 38 63 68-39 40 67z"/><path d="M510 1024A506 506 0 0 1 40 710 508 508 0 0 1 313 40C375 14 441 0 508 0h2a516 516 0 0 1 441 255l20 32v-91c0-14 12-26 26-26h1c14 0 26 12 26 26v150c0 6-2 13-7 18-5 6-11 9-18 9H849l-1-1a28 28 0 0 1-18-34c2-8 8-15 16-18l1-1h78l-7-16A457 457 0 0 0 517 59h-5A460 460 0 0 0 54 514a459 459 0 0 0 456 461c147-1 285-72 371-190v-1l2-4c4-8 13-13 23-13h1c14 0 26 10 27 25 0 5-2 11-5 16l-7 10a518 518 0 0 1-407 206h-5z"/>
  </g>

  <g id="donate">
    <path d="M-491 322h11M532 635c-16 0-32-5-47-17-19-13-34-34-50-54-19-26-39-53-65-65-19-9-42-10-61-10l-30 1-30 1c-18 0-33-2-45-5-28-7-48-23-58-50a320 320 0 0 1 9-245c35-76 101-136 182-165l16-6a327 327 0 0 1 247 12c78 36 137 101 167 182v1a313 313 0 0 1-190 409l-17 6c-10 4-19 5-28 5zM309 449c23 0 52 2 79 14 34 16 58 48 79 77 30 39 46 55 66 55l13-2 17-6 8-3a273 273 0 0 0 158-355v-1A285 285 0 0 0 367 57l-16 6c-71 26-129 78-160 145-30 67-33 145-7 214 9 24 30 29 66 29l27-1 32-1z"/><path d="M531 1025c-34 0-67-10-102-31h-1c-23-14-47-26-72-38-23-11-46-23-68-36-21-12-39-17-55-17-19 0-36 7-54 22l-1 1-21 13-13 8-19 11L0 680l19-7 55-24c49-22 100-45 153-60 8-2 17-3 26-3 27 0 55 9 80 17l12 4c24 7 44 23 61 37l1 1c38 33 81 57 129 70l5 1 34-31c39-36 74-58 107-66a105 105 0 0 1 84 10l4 2 4-2c33-14 54-19 70-19a58 58 0 0 1 51 29l4 7 7-3a139 139 0 0 1 49-9h1c23 1 51 18 63 37v1c16 24-11 63-14 67-10 16-26 26-39 34l-5 3-101 66c-70 46-142 93-212 141-40 28-78 42-117 42zM233 863c23 0 48 8 75 23 21 13 42 23 65 34 25 13 51 25 76 40 28 17 55 25 82 25 31 0 62-11 94-34a8292 8292 0 0 1 315-208l5-3c11-7 22-14 27-22l1-1c5-7 8-16 10-21l2-6-5-4c-6-6-18-12-27-13h-1c-11 0-23 4-37 9l-21 7-17 5-7-16c-9-21-14-26-18-28l-8-1-15 2c-12 3-29 10-54 20l-10 5-10-7a69 69 0 0 0-63-12c-10 2-20 6-30 12l-27 14 30 4 39 7c29 6 53 29 62 59 9 29 2 59-18 80s-52 37-79 40h-1a1934 1934 0 0 1-204 1c-52-3-89-35-119-66l-25-27 37-6 10-1 15 3h1c42 15 89 21 151 21l81-2 44-2c13-1 19-3 23-5l4-2v-5l1-3-1-8-7-2-13-2-9-1h-2a385 385 0 0 1-144-18c-48-15-91-40-129-73h-1c-15-13-31-26-47-30h-1l-13-5c-22-7-47-15-67-15l-16 2c-50 14-97 35-147 57l-1 1-28 12-9 4 91 202 10-7v-1h1a121 121 0 0 1 79-32z"/><path d="M457 101h19v21c9 0 21 3 35 8 14 4 25 12 33 22s12 21 12 33c0 10-3 17-7 23s-11 8-19 8c-6 0-11-2-16-7-4-4-6-9-6-16s2-13 7-20c6-7 8-12 8-14 0-4-3-8-10-12-10-6-22-9-37-10v118c31 11 54 25 68 41 14 17 21 36 21 57 0 23-7 42-23 57-15 15-38 23-66 26v54h-19v-54c-17 0-32-4-46-10-13-6-23-13-30-23-6-10-9-21-9-32s2-19 7-25c6-6 12-9 19-9s13 2 18 7 7 11 7 19c0 9-3 16-10 21-8 7-12 11-12 14 0 4 4 8 12 13 11 6 26 9 44 9V297c-55-17-82-48-82-91 0-23 7-42 22-57 15-16 35-24 60-26v-21zm0 147V138c-18 1-32 6-42 16a48 48 0 0 0-16 36c0 12 4 23 12 32s23 17 46 26zm19 55v117c20-1 35-7 46-18 11-10 16-23 16-37 0-13-4-24-13-34-8-10-25-19-49-28z"/>
  </g>

  <g id="expDb">
    <path d="M161 650c1 67 143 133 320 133 178 0 322-64 322-134V491c0-23 32-26 34-3l1 2v361c0 98-158 173-357 173s-356-75-356-173V244c1-98 161-170 356-170 51 0 101 7 146 14h1c8 3 15 12 13 24a19 19 0 0 1-21 17c-43-11-89-16-137-16h-23c-55 3-106 12-151 23-91 26-146 69-146 108 0 68 142 133 319 133 11 0 20 11 19 23-1 10-8 16-19 16-139 0-260-37-318-94l-2 1v123c0 68 143 133 320 133 62 0 120-8 172-22 9-3 20 4 21 14 1 9-4 21-12 24-54 13-115 22-178 22-140 0-263-38-321-95 0-1 0-1 0 0l-3 128m0 77v124c0 64 131 134 320 134s320-70 320-134V727c-57 58-180 95-320 95s-264-37-320-95zm567-56c-13 0-22-11-22-23 0-14 10-24 22-24s21 12 21 24c1 12-9 23-21 23zm0 201c-13 0-22-12-22-25s10-23 22-23c12 1 21 11 21 23 1 13-9 25-21 25z"/><path d="M892 271a25 25 0 0 0-36 0l-98 99V18c0-10-12-18-25-18s-25 8-25 18v352l-99-99a25 25 0 0 0-36 36l142 141a25 25 0 0 0 35 0l142-142c9-9 9-25 0-35z" class="fl01"/>
  </g>
  
  <g id="expDbInvert">
    <path d="M161 650c1 67 143 133 320 133 178 0 322-64 322-134V491c0-23 32-26 34-3l1 2v361c0 98-158 173-357 173s-356-75-356-173V244c1-98 161-170 356-170 51 0 101 7 146 14h1c8 3 15 12 13 24a19 19 0 0 1-21 17c-43-11-89-16-137-16h-23c-55 3-106 12-151 23-91 26-146 69-146 108 0 68 142 133 319 133 11 0 20 11 19 23-1 10-8 16-19 16-139 0-260-37-318-94l-2 1v123c0 68 143 133 320 133 62 0 120-8 172-22 9-3 20 4 21 14 1 9-4 21-12 24-54 13-115 22-178 22-140 0-263-38-321-95 0-1 0-1 0 0l-3 128m0 77v124c0 64 131 134 320 134s320-70 320-134V727c-57 58-180 95-320 95s-264-37-320-95zm567-56c-13 0-22-11-22-23 0-14 10-24 22-24s21 12 21 24c1 12-9 23-21 23zm0 201c-13 0-22-12-22-25s10-23 22-23c12 1 21 11 21 23 1 13-9 25-21 25z"/><path d="M892 271a25 25 0 0 0-36 0l-98 99V18c0-10-12-18-25-18s-25 8-25 18v352l-99-99a25 25 0 0 0-36 36l142 141a25 25 0 0 0 35 0l142-142c9-9 9-25 0-35z" class="fl01_invert"/>
  </g>

  <g id="impDb">
    <path d="M36 650c1 67 143 133 320 133 178 0 322-64 322-134V491c0-23 32-26 34-3l1 2v361c0 98-158 173-357 173S0 949 0 851V244C1 146 161 74 356 74c51 0 101 7 146 14h1c8 3 15 12 13 24a19 19 0 0 1-21 17c-43-11-89-16-137-16h-23c-55 3-106 12-151 23-91 26-146 69-146 108 0 68 142 133 319 133 11 0 20 11 19 23-1 10-8 16-19 16-139 0-260-37-318-94l-2 1v123c0 68 143 133 320 133 62 0 120-8 172-22 9-3 20 4 21 14 1 9-4 21-12 24-54 13-115 22-178 22-140 0-263-38-321-95 0-1 0-1 0 0l-3 128m0 77v124c0 64 131 134 320 134s320-70 320-134V727c-57 58-180 95-320 95S92 785 36 727zm567-56c-13 0-22-11-22-23 0-14 10-24 22-24s21 12 21 24c1 12-9 23-21 23zm0 201c-13 0-22-12-22-25s10-23 22-23c12 1 21 11 21 23 1 13-9 25-21 25z"/><path d="M1020 9c-9-11-26-12-39-2L620 276l20-139a25 25 0 0 0-49-7l-29 198a25 25 0 0 0 21 28l198 29a25 25 0 0 0 7-49l-138-20 361-269c13-10 17-27 9-38z" class="fl05"/>
  </g>

  <g id="impDbInvert">
    <path d="M36 650c1 67 143 133 320 133 178 0 322-64 322-134V491c0-23 32-26 34-3l1 2v361c0 98-158 173-357 173S0 949 0 851V244C1 146 161 74 356 74c51 0 101 7 146 14h1c8 3 15 12 13 24a19 19 0 0 1-21 17c-43-11-89-16-137-16h-23c-55 3-106 12-151 23-91 26-146 69-146 108 0 68 142 133 319 133 11 0 20 11 19 23-1 10-8 16-19 16-139 0-260-37-318-94l-2 1v123c0 68 143 133 320 133 62 0 120-8 172-22 9-3 20 4 21 14 1 9-4 21-12 24-54 13-115 22-178 22-140 0-263-38-321-95 0-1 0-1 0 0l-3 128m0 77v124c0 64 131 134 320 134s320-70 320-134V727c-57 58-180 95-320 95S92 785 36 727zm567-56c-13 0-22-11-22-23 0-14 10-24 22-24s21 12 21 24c1 12-9 23-21 23zm0 201c-13 0-22-12-22-25s10-23 22-23c12 1 21 11 21 23 1 13-9 25-21 25z"/><path d="M1020 9c-9-11-26-12-39-2L620 276l20-139a25 25 0 0 0-49-7l-29 198a25 25 0 0 0 21 28l198 29a25 25 0 0 0 7-49l-138-20 361-269c13-10 17-27 9-38z" class="fl05_invert"/>
  </g>

  <g id="emergDb">
    <path d="M971 397C899 277 828 155 758 33L640 231 539 398l20-1h412z" class="fl03"/><path d="M546 430c-15 0-28-6-34-15l-1-3c-5-12-4-24 4-36L725 21c8-14 19-21 32-21 12 0 23 7 31 21l211 355c7 12 8 26 3 37-5 8-15 17-35 17H546zm408-43L757 53 559 387h395z"/><path d="M757 372c-14 0-26-11-26-25s12-26 26-26c15 0 26 12 26 26s-11 25-26 25zm0-98c-12 0-20-8-20-16V131c0-8 8-16 20-16h1c10 0 18 8 19 16v127c-1 8-9 16-19 16h-1zM55 650c1 67 143 133 320 133 178 0 322-64 322-134V491c0-23 32-26 34-3l1 2v361c0 98-158 173-357 173S19 949 19 851V244c1-98 161-170 356-170 51 0 101 7 146 14h1c8 3 15 12 13 24a19 19 0 0 1-21 17c-43-11-89-16-137-16h-23c-55 3-106 12-151 23-91 26-146 69-146 108 0 68 142 133 319 133 11 0 20 11 19 23-1 10-8 16-19 16-139 0-260-37-318-94l-2 1v123c0 68 143 133 320 133 62 0 120-8 172-22 9-3 20 4 21 14 1 9-4 21-12 24-54 13-115 22-178 22-140 0-263-38-321-95 0-1 0-1 0 0l-3 128m0 77v124c0 64 131 134 320 134s320-70 320-134V727c-57 58-180 95-320 95s-264-37-320-95zm567-56c-13 0-22-11-22-23 0-14 10-24 22-24s21 12 21 24c1 12-9 23-21 23zm0 201c-13 0-22-12-22-25s10-23 22-23c12 1 21 11 21 23 1 13-9 25-21 25z"/>
  </g>

  <g id="emergDbInvert">
    <path class="fl03_invert" d="M970 398C898 278 827 156 757 34L639 232 538 399l20-1h412Z"/><path class="fl04_invert" d="M545 431c-15 0-28-6-34-15l-1-3c-5-12-4-24 4-36L724 22c8-14 19-21 32-21 12 0 23 7 31 21l211 355c7 12 8 26 3 37-5 8-15 17-35 17H545Zm408-43L756 54 558 388h395Z"/><path d="M756 373c-14 0-26-11-26-25s12-26 26-26c15 0 26 12 26 26s-11 25-26 25Zm0-98c-12 0-20-8-20-16V132c0-8 8-16 20-16h1c10 0 18 8 19 16v127c-1 8-9 16-19 16h-1ZM54 651c1 67 143 133 320 133s322-64 322-134V492c0-23 32-26 34-3l1 2v361c0 98-158 173-357 173S18 950 18 852V245c1-98 161-170 356-170 51 0 101 7 146 14h1c8 3 15 12 13 24a19 19 0 0 1-21 17c-43-11-89-16-137-16h-23c-55 3-106 12-151 23-91 26-146 69-146 108 0 68 142 133 319 133 11 0 20 11 19 23-1 10-8 16-19 16-139 0-260-37-318-94l-2 1v123c0 68 143 133 320 133 62 0 120-8 172-22 9-3 20 4 21 14 1 9-4 21-12 24-54 13-115 22-178 22-140 0-263-38-321-95q0-1 0 0l-3 128m0 77v124c0 64 131 134 320 134s320-70 320-134V728c-57 58-180 95-320 95s-264-37-320-95Zm567-56c-13 0-22-11-22-23 0-14 10-24 22-24s21 12 21 24c1 12-9 23-21 23Zm0 201c-13 0-22-12-22-25s10-23 22-23c12 1 21 11 21 23 1 13-9 25-21 25Z"/><path d="M756 275c-12 0-20-8-20-16V132c0-8 8-16 20-16h1c10 0 18 8 19 16v127c-1 8-9 16-19 16h-1Zm0 98c-14 0-26-11-26-25s12-26 26-26c15 0 26 12 26 26s-11 25-26 25Z" class="fl00"/>
  </g>

<!-- vList -->
  <g id="vSort">
    <path d="M385 992a32 32 0 1 1-64 0V33c0-18 14-32 32-32 17 0 32 14 32 32v959z"/><path d="M377 971a32 32 0 0 1-48 42l-1-1L8 628a32 32 0 0 1 49-41l320 384zM640 33a32 32 0 1 1 64 0v959a32 32 0 1 1-64 0V33z"/><path d="M648 53a32 32 0 0 1 48-42l1 1 320 385c11 13 9 33-5 44-13 11-33 9-44-4L648 53z"/>
  </g>

  <g id="vDetails">
    <path d="M44 343a50 50 0 1 0 100 0 50 50 0 0 0-100 0Zm911 31H246c-17 0-31-14-31-32s14-32 31-32h709c17 0 31 15 31 32s-14 32-31 32Zm37-310H32a32 32 0 1 1 0-64h960a32 32 0 1 1 0 64ZM44 653a50 50 0 1 0 100 0 50 50 0 0 0-100 0Zm911 31H246c-17 0-31-15-31-32s14-32 31-32h709c17 0 31 14 31 32s-14 32-31 32ZM44 974a50 50 0 1 0 100 0 50 50 0 0 0-100 0Zm911 31H246c-17 0-31-15-31-32s14-32 31-32h709c17 0 31 14 31 32s-14 32-31 32Z"/>
  </g>

  <g id="typeLog">
    <path d="M818 429h-6V293c0-78-32-152-90-208C664 30 588 0 507 0h-2a302 302 0 0 0-304 296v73c0 9 8 16 17 16h87c10 0 17-7 17-16v-73c0-99 82-179 183-180a183 183 0 0 1 187 177v136H196c-45 0-82 35-82 79v500c0 9 7 16 16 16h754c9 0 16-7 16-16V508c0-44-37-79-82-79ZM660 145c-41-40-97-61-155-61-119 1-216 96-216 212v57h-55v-57c0-145 122-264 271-264h2c72 0 141 27 192 76 52 49 81 115 81 185v136h-55V293c0-56-23-109-65-148Zm207 847H147V508c0-26 22-48 49-48h622c27 0 49 22 49 48Z"/><path d="M537 701c47-13 83-55 83-105 0-60-51-108-113-108s-113 48-113 108c0 50 35 92 83 105-82 13-144 82-144 164v84c0 9 7 16 16 16h316c9 0 16-7 16-16v-84c0-82-62-151-144-164ZM427 596c0-42 36-77 80-77s80 35 80 77-36 77-80 77-80-35-80-77Zm221 338H366v-69c0-75 63-135 141-135s141 60 141 135Zm148-396c-9 0-16 7-16 16v210c0 9 7 16 16 16s16-7 16-16V554c0-9-7-16-16-16Zm0 269c-9 0-16 7-16 16v84c0 9 7 16 16 16s16-7 16-16v-84c0-9-7-16-16-16ZM85 351H16c-9 0-16 7-16 15s7 16 16 16h69a16 16 0 1 0 0-32Zm30-49-43-42a17 17 0 0 0-23 0 15 15 0 0 0 0 22l43 42a17 17 0 0 0 23 0 15 15 0 0 0 0-22Zm0 107a17 17 0 0 0-23 0l-44 41a15 15 0 0 0 0 23 17 17 0 0 0 23 0l44-42a15 15 0 0 0 0-22Z"/>
  </g>

  <g id="typeNote">
    <path d="M224 53h-44c-50 0-90 44-90 98v683c0 53 40 97 90 97h451c49 0 90-44 90-97V151c0-54-41-98-90-98h-46v49h46c24 0 45 22 45 49v683c0 27-21 48-45 48H180c-25 0-45-21-45-48V151c0-27 20-49 45-49h44V53Zm113 49h135V53H337v49Z"/><path d="M224 317c0-13 10-24 23-24h315c13 0 23 11 23 24s-10 24-23 24H247c-13 0-23-11-23-24Zm1 126c0-13 10-24 23-24h315c12 0 23 11 23 24s-11 25-23 25H248c-13 0-23-11-23-25Zm0 122c0-13 10-24 23-24h315c12 0 23 11 23 24s-11 25-23 25H248c-13 0-23-11-23-25Zm0 124c0-14 10-25 23-25h180c12 0 22 11 22 25s-10 24-22 24H248c-13 0-23-11-23-24Z"/><path d="M23 170c12 0 22 11 22 24v659c0 68 50 122 113 122h429c12 0 23 11 23 25s-11 24-23 24H158C71 1024 0 948 0 853V194c0-13 10-24 23-24Zm832 244h-45v374l23 33 22-33Zm45 391-68 97-67-97V366h135Zm-45-561h-45v49h45Zm-45-49h45c25 0 45 22 45 49v97H765v-97c0-27 20-49 45-49ZM528 0c19 0 34 16 34 37v73c0 20-15 36-34 36s-33-16-33-36V37c0-21 15-37 33-37ZM281 0c19 0 34 16 34 37v73c0 20-15 36-34 36s-34-16-34-36V37c0-21 15-37 34-37Z"/>
  </g>

  <g id="vDates">
    <path d="M864 128h-96a32 32 0 0 0 0 64h96a32 32 0 0 1 32 32v96H128v-96a32 32 0 0 1 32-32h96a32 32 0 0 0 0-64h-96a96 96 0 0 0-96 96v637a96 96 0 0 0 96 96h704a96 96 0 0 0 96-96V224a96 96 0 0 0-96-96zm0 765H160a32 32 0 0 1-32-32V384h768v477a32 32 0 0 1-32 32z"/><path d="M448 192h128a32 32 0 0 0 0-64H448a32 32 0 0 0 0 64zm-96 32a32 32 0 0 0 32-32v-64a32 32 0 0 0-64 0v64a32 32 0 0 0 32 32zm320 0a32 32 0 0 0 32-32v-64a32 32 0 0 0-64 0v64a32 32 0 0 0 32 32zM288 512h-64a32 32 0 0 0 0 64h64a32 32 0 0 0 0-64zm256 0h-64a32 32 0 0 0 0 64h64a32 32 0 0 0 0-64zm256 0h-64a32 32 0 0 0 0 64h64a32 32 0 0 0 0-64zM288 640h-64a32 32 0 0 0 0 64h64a32 32 0 0 0 0-64zm256 0h-64a32 32 0 0 0 0 64h64a32 32 0 0 0 0-64zm256 0h-64a32 32 0 0 0 0 64h64a32 32 0 0 0 0-64zM288 768h-64a32 32 0 0 0 0 64h64a32 32 0 0 0 0-64zm256 0h-64a32 32 0 0 0 0 64h64a32 32 0 0 0 0-64z"/>
  </g>

  <g id="vNotes">
    <path d="M423 978H250c-41 0-75-33-75-74V213c0-41 34-74 75-74h113a23 23 0 0 0 0-46H250c-67 0-121 53-121 120v691c1 66 54 120 121 120h173v-46z"/><path d="M758 93H645a23 23 0 0 0 0 46h113c41 0 75 33 75 74v691c0 41-34 74-75 74H387a23 23 0 0 0 0 46h372c66 0 120-54 120-120V213c0-66-54-120-121-120z"/><path d="M448 206a76 76 0 0 1 0-151h112a76 76 0 0 1 0 151H448zm0-105a30 30 0 0 0 0 59h112a30 30 0 0 0 0-59H448z"/><path d="M290 828a23 23 0 0 1 0-46h427a23 23 0 0 1 0 46H290zm0-125a23 23 0 0 1 0-46h427a23 23 0 0 1 0 46H290zm0-127a23 23 0 0 1 0-46h427a23 23 0 0 1 0 46H290zm0-128a23 23 0 0 1 0-46h427a23 23 0 0 1 0 46H290zm0-127a23 23 0 0 1 0-46h427a23 23 0 0 1 0 46H290zM553 91c-12 0-22-10-22-23 0-12-10-22-23-22h-10c-12 0-22 10-22 22a22 22 0 0 1-45 0c0-37 30-68 67-68h10c38 0 69 31 69 68 0 13-11 23-24 23z"/>
  </g>

  <g id="vTags">
    <path d="M985 566 587 169c-21-21-49-33-78-33h-8l-287 19c-31 2-56 27-58 58l-7 103c-15-9-29-19-41-32-31-31-50-69-54-108-4-37 7-70 30-93 49-48 139-38 201 24a27 27 0 1 0 37-37C239-13 115-23 46 46 12 81-4 128 1 182a247 247 0 0 0 144 192l-9 127c-2 32 10 64 33 86l398 398a133 133 0 0 0 188 0l230-231a132 132 0 0 0 0-188Zm-38 151L717 947a80 80 0 0 1-113 0L206 550a58 58 0 0 1-17-45l8-116a270 270 0 0 0 33 3c45 0 85-16 115-46a27 27 0 1 0-37-38c-23 23-56 34-93 30l-15-2 8-119c0-4 4-8 9-9l288-19h4c15 0 30 6 41 17l397 398a80 80 0 0 1 0 113Zm0 0"/>
  </g>

  <g id="vCr8">
    <path d="M512 1024a508.8 508.8 0 0 1-362-150A511.1 511.1 0 0 1 0 512a508.8 508.8 0 0 1 150-362A511.1 511.1 0 0 1 512 0a508.8 508.8 0 0 1 362 150 511.1 511.1 0 0 1 109.7 561.3A506.8 506.8 0 0 1 874 874a511.1 511.1 0 0 1-362 150zm0-962.2A450.8 450.8 0 0 0 61.8 512c0 248.2 202 450.2 450.2 450.2s450.2-202 450.2-450.2S760.2 61.8 512 61.8zm0 731.7a30.4 30.4 0 0 1-30.4-30.4V542.4H260.9a30.4 30.4 0 1 1 0-60.8h220.7V260.9a30.4 30.4 0 1 1 60.8 0v220.7h220.7a30.4 30.4 0 1 1 0 60.8H542.4v220.7a30.4 30.4 0 0 1-30.4 30.4z"/>
  </g>

  <g id="vMod">
    <path d="M104 1024A105 105 0 0 1 0 919V104C0 47 47 0 104 0h557c14 0 26 13 26 27 0 15-12 27-26 27H109c-31 0-55 24-55 55v805c0 31 24 56 55 56h804c32 0 57-25 57-56V425c0-14 12-26 27-26 14 0 26 12 27 26v494a106 106 0 0 1-105 105H104zm210-269c-6 0-11-2-15-7-6-5-8-14-6-22l51-192 1-2L841 21c12-13 31-21 49-21 23 0 45 9 61 27l47 49c16 16 26 39 26 62 0 21-7 39-19 52L509 701l-4 2-185 51-6 1zm66-176h-3c-3 1-6 4-7 7l-26 98c-1 4 0 7 3 10a10 10 0 0 0 10 3l95-27c3-1 6-3 7-7 1-3 0-7-2-9l-70-72c-2-2-5-3-7-3zm401-422c-2 0-5 1-7 3L416 530c-4 4-4 10 0 14l81 84 7 3 7-3 358-370c4-3 4-10 0-13l-80-85c-2-2-5-3-8-3 1 0 0 0 0 0zM889 57c-8 0-16 3-21 8l-49 51c-3 4-4 10 0 14l80 83c2 2 4 3 7 3s5-1 7-3l50-50 1-2c3-4 8-11 8-20a43 43 0 0 0-11-25l-48-48c-6-7-15-11-24-11z"/>
  </g>

  <g id="vSortNameAsc">
    <path d="M465 769a26 26 0 0 0-37 0L263 934V26a26 26 0 0 0-53 0v908L45 769a26 26 0 0 0-37 37l210 210a26 26 0 0 0 37 0l210-210c10-10 10-26 0-37Zm556-395L867 16a26 26 0 0 0-47 0L666 374a26 26 0 0 0 48 20l59-138h142l59 138a26 26 0 0 0 33 13c13-5 19-20 14-33ZM795 205l49-114 49 114h-98Zm151 819H741a26 26 0 0 1-22-38l183-320H741a26 26 0 0 1 0-52h205a26 26 0 0 1 22 39L785 973h161a26 26 0 0 1 0 51Z"/>
  </g>
  
  <g id="vSortNameDesc">
    <path d="M465 769a26 26 0 0 0-37 0L263 934V26a26 26 0 0 0-53 0v908L45 769a26 26 0 0 0-37 37l210 210a26 26 0 0 0 37 0l210-210c10-10 10-27 0-37Zm557 219L868 629a26 26 0 0 0-47 0L667 988a26 26 0 0 0 48 20l59-138h142l59 138a26 26 0 0 0 33 13c13-5 19-20 14-33ZM796 819l49-115 49 115h-98Zm150-409H741a26 26 0 0 1-22-38L902 51H741a26 26 0 0 1 0-51h205a26 26 0 0 1 22 39L785 359h161a26 26 0 0 1 0 51Z"/>
  </g>

  <g id="vSortModAsc">
    <path d="M465 255a26 26 0 0 1-37 0L263 90v908a26 26 0 0 1-53 0V90L45 255a26 26 0 0 1-37-37L218 8a26 26 0 0 1 37 0l210 210c10 10 10 27 0 37ZM479 1024c-14 0-28-6-39-17a59 59 0 0 1-16-41V482c0-32 25-58 55-58h322c5 0 10 6 10 12s-5 12-10 12H482c-20 0-36 16-36 36v479c0 21 16 37 36 37h464c20 0 37-16 37-37V672c0-6 5-11 11-11s11 5 11 12v293a59 59 0 0 1-56 58H479Zm119-132c-2 0-5-1-6-3-3-2-3-6-2-9l30-116v-1l300-309c7-7 17-11 27-11 13 0 25 5 34 15l29 30c9 8 14 21 14 35 0 11-4 21-11 28L713 860l-113 32h-2Zm13-23 92-25-68-70-24 95Zm39-105 64 65 231-239-63-66-231 240Zm300-300c-6 0-11 2-15 6l-37 38 63 65 38-38 1-1c2-3 5-8 5-15s-4-14-7-17v-1l-29-29c-5-5-12-8-19-8Z"/>
  </g>

  <g id="vSortModDesc">
    <path d="M465 769a26 26 0 0 0-37 0L263 935V26a26 26 0 0 0-53 0v909L45 769a26 26 0 0 0-37 37l210 211a26 26 0 0 0 37 0l210-211c10-10 10-26 0-37Zm14-169c-14 0-28-6-39-17a59 59 0 0 1-16-41V58c0-32 25-58 56-58h321c5 0 10 6 10 12s-5 12-10 12H482c-20 0-36 16-36 36v479c0 21 16 37 36 37h464c20 0 37-16 37-37V248c0-6 5-11 11-11s11 5 11 11v294a59 59 0 0 1-56 58H479Zm119-132c-2 0-5-1-6-3-3-2-3-6-2-9l30-116v-1L920 30c7-7 17-11 27-11 13 0 25 5 34 15l29 29v1c9 8 14 21 14 34 0 12-4 22-11 29L713 436l-113 31-2 1Zm13-23 92-25-68-70-24 95Zm39-106 64 66 231-239-63-66-231 240ZM950 41c-6 0-11 2-15 6l-37 38 63 65 38-38 1-1c2-3 5-8 5-15s-4-14-7-17v-1l-29-29c-5-5-12-8-19-8Z"/>
  </g>

  <g id="vSortCr8Asc">
    <path d="M724 424a300 300 0 1 0 0 600 300 300 0 0 0 0-600Zm0 575a275 275 0 1 1 0-550 275 275 0 0 1 0 550Zm150-287H737V574a12 12 0 0 0-25 0v138H574a12 12 0 0 0 0 25h138v137a13 13 0 0 0 25 0V737h137a13 13 0 0 0 0-25Z"/><path d="M465 255a26 26 0 0 1-37 0L263 90v908a26 26 0 0 1-53 0V90L45 255a26 26 0 0 1-37-37L218 8a26 26 0 0 1 37 0l210 210c10 10 10 27 0 37Z"/>
  </g>

  <g id="vSortCr8Desc">
    <path d="M724 600a300 300 0 1 1 0-600 300 300 0 0 1 0 600Zm0-575a275 275 0 1 0 0 550 275 275 0 0 0 0-550Zm150 288H737v137a12 12 0 0 1-25 0V313H574a12 12 0 0 1 0-25h138V150a13 13 0 0 1 25 0v138h137a13 13 0 0 1 0 25Z"/><path d="M465 770a26 26 0 0 0-37 0L263 935V27a26 26 0 0 0-53 0v908L45 770a26 26 0 0 0-37 37l210 210a26 26 0 0 0 37 0l210-210c10-11 10-27 0-37Z"/>
  </g>

<!-- Forms -->
  <g id="closeForm"> <!-- THE SAME AS <g id="unchecked"> -->
    <path d="M955 953c7-7 12-17 12-28V98c0-10-5-20-12-28-7-7-17-11-28-11H100c-11 0-21 4-28 11-7 8-12 18-12 28v827c0 21 17 39 38 40h829c11 0 21-5 28-12zM100 0h827c54 0 98 44 98 98v827c0 54-44 98-98 98v1H100c-54 1-98-43-99-97V98C2 44 46 0 100 0z"/><path d="M315 747c-9 0-18-3-26-9a35 35 0 0 1-2-52l394-398c7-7 17-11 28-11 9 0 18 3 25 9a35 35 0 0 1 3 52L343 736c-7 7-17 11-28 11z"/><path d="M747 709c0 9-3 18-9 25a35 35 0 0 1-52 3L288 343c-7-7-11-17-11-28 0-9 3-18 9-25a35 35 0 0 1 52-3l398 394c7 7 11 17 11 28z"/>
  </g>

  <g id="saveForm">
    <path d="M98 1024c-54 0-98-44-98-98V98C0 44 44 0 98 0h625c27 0 51 10 70 29l202 200c19 18 29 44 29 70v627c0 54-44 98-98 98H98zm655-472c54 0 99 44 99 98v310c0 3 2 5 5 5h69c22 0 39-17 39-39V299c0-11-4-21-12-28L752 70c-8-7-17-11-28-11h-40c-2 0-5 2-5 5v172c0 54-44 99-98 99H236c-54 0-98-45-98-99V64c0-3-2-5-5-5H98c-22 0-39 17-39 39v828c0 22 17 39 39 39h69c3 0 5-2 5-5V650c0-54 45-98 99-98h482zm-482 58c-23 0-40 18-40 40v310c0 3 2 5 5 5h552c3 0 5-2 5-5V650c0-22-18-40-40-40H271zM202 59c-3 0-5 2-5 5v172c0 22 17 40 39 40h345c22 0 40-18 40-40V64c0-3-3-5-5-5H202zm310 172c-16 0-29-13-29-29v-69a29 29 0 0 1 58 0v69c0 16-13 29-29 29z"/>
  </g>

  <g id="restoreRevision">
    <path d="M514 1024a506 506 0 0 0 470-314A508 508 0 0 0 711 40C649 14 583 0 516 0h-2A516 516 0 0 0 73 255l-20 32v-91c0-14-12-26-26-26h-1c-14 0-26 12-26 26v150c0 6 2 13 7 18 5 6 11 9 18 9h150l1-1a28 28 0 0 0 18-34c-2-8-8-15-16-18l-1-1H99l7-16A457 457 0 0 1 507 59h5a460 460 0 0 1 458 455 459 459 0 0 1-456 461c-147-1-285-72-371-190v-1l-2-4c-4-8-13-13-23-13h-1c-14 0-26 10-27 25 0 5 2 11 5 16l7 10a518 518 0 0 0 407 206h5Z"/><path d="M791.7 740.5a35 35 0 0 1-20-6.2L492.2 542.1a33.1 33.1 0 0 1-14.5-27.3V226.4C477.6 208 493 193 512 193s34.4 15 34.4 33.4v271.2l265.2 182.2a32.7 32.7 0 0 1 7.3 47.6 35.1 35.1 0 0 1-27.3 13Z"/>
  </g>

  <g id="previousVersion">
    <path d="M995.2 1024a29 29 0 0 1-20.3-8.3L482.4 532a28 28 0 0 1 0-40L975 8.3a29 29 0 0 1 31.3-6.2 28.3 28.3 0 0 1 17.8 26.2V274a28 28 0 0 1-8.4 20l-222 218 222 218a28 28 0 0 1 8.4 20v245.7a28.3 28.3 0 0 1-28.8 28.3Zm-29.7-98.8V762L731.2 532a28 28 0 0 1 0-40l234.3-230V98.7L544.9 512l420.6 413.2Z"/><path d="M521.2 1024a29 29 0 0 1-20.3-8.3L8.4 532a28 28 0 0 1 0-40L501 8.3A29 29 0 0 1 532.2 2 28.3 28.3 0 0 1 550 28.3V274a28 28 0 0 1-8.4 20l-222 218 222 218a28 28 0 0 1 8.4 20v245.7a28.3 28.3 0 0 1-28.8 28.3Zm-29.7-98.8V762L257.2 532a28 28 0 0 1 0-40l234.3-230V98.7L70.9 512l420.6 413.2Z"/>
  </g>

  <g id="nextVersion">
    <path d="M28.8 1024a29 29 0 0 0 20.3-8.3L541.6 532a28 28 0 0 0 0-40L49 8.3A29 29 0 0 0 17.8 2 28.3 28.3 0 0 0 0 28.3V274a28 28 0 0 0 8.4 20l222 218-222 218A28 28 0 0 0 0 750v245.7a28.3 28.3 0 0 0 28.8 28.3Zm29.7-98.8V762L292.8 532a28 28 0 0 0 0-40L58.5 262V98.7L479.1 512 58.5 925.2Z"/><path d="M502.8 1024a29 29 0 0 0 20.3-8.3L1015.6 532a28 28 0 0 0 0-40L523 8.3A29 29 0 0 0 491.8 2 28.3 28.3 0 0 0 474 28.3V274a28 28 0 0 0 8.4 20l222 218-222 218a28 28 0 0 0-8.4 20v245.7a28.3 28.3 0 0 0 28.8 28.3Zm29.7-98.8V762L766.8 532a28 28 0 0 0 0-40L532.5 262V98.7L953.1 512 532.5 925.2Z"/>
  </g>

  <g id="hidePass">
    <path d="M856 168a31 31 0 0 0-43 0L173 808a31 31 0 1 0 43 43l640-641c11-11 11-30 0-42zM562 343a173 173 0 0 0-220 166c0 17 3 32 7 47l213-213zm-93 332a172 172 0 0 0 211-212L469 675z"/><path d="M514 825a567 567 0 0 1-169-27v-2l46-46 1-1 1 1a519 519 0 0 0 561-236v-5a531 531 0 0 0-157-166l40-40h2c73 50 134 117 177 193l8 14v2l-8 15a571 571 0 0 1-502 298zM186 722l-1-1A577 577 0 0 1 9 527l-9-14v-2l9-15a572 572 0 0 1 670-269v1l-46 46-1 1h-1A519 519 0 0 0 70 509v5a531 531 0 0 0 157 166l-40 41-1 1z"/>
  </g>

  <g id="showPass">
    <path d="M512 825c-105-2-207-30-297-83A567 567 0 0 1 4 526c-6-9-6-21 0-30a585 585 0 0 1 805-214 567 567 0 0 1 211 216c6 10 6 21 0 30l-1 1a563 563 0 0 1-210 214c-90 52-192 80-297 82zm0-565c-183 2-352 98-442 249v6a521 521 0 0 0 442 250c183-2 352-98 442-250v-6a521 521 0 0 0-442-249z"/><path d="M512 680a168 168 0 1 1 0-336 168 168 0 0 1 0 336zm0-289a121 121 0 1 0 0 242 121 121 0 0 0 0-242z"/>
  </g>

  <g id="copyClipboard">
    <path d="M140 1024c-37 0-72-15-99-41-26-26-41-61-41-98V304c0-37 15-72 41-99 27-26 62-41 99-41h580c77 0 140 63 140 140v581c0 76-63 139-140 139H140zm0-805c-47 0-85 38-85 85v581c0 46 38 84 85 84h581c47 0 85-38 85-85V303c-1-46-39-83-84-83H140z"/><path d="M962 880c-7 0-15-3-18-8-10-12-9-29 2-40 16-16 25-38 25-59V138c0-45-37-82-83-82H262c-27 0-51 11-67 33-5 8-14 13-23 13-6 0-11-2-15-6-14-11-17-28-8-40 28-35 69-56 111-56h627a138 138 0 0 1 137 138v633c0 38-17 76-43 100-5 6-12 9-19 9z"/><path d="M675 562H464V350a34 34 0 0 0-67 0v210H186a34 34 0 1 0 0 67h211v212a34 34 0 0 0 67 0V627h211c18 0 33-15 33-33 0-19-15-32-33-32z"/>
  </g>

  <g id="openLink">
    <path d="M99 1024a100 100 0 0 1-99-99V197A100 100 0 0 1 99 97h275c13 0 25 10 27 23a27 27 0 0 1-31 31H98c-25 0-45 21-45 46v728c0 24 21 45 45 45h729c24 0 44-19 45-43V654a27 27 0 1 1 54 1v270c0 26-11 51-30 70s-44 29-70 29H99zm418-490c-8 0-17-4-22-11-6-9-7-22-1-31L895 91a22 22 0 0 0-15-37H654l-4 1c-14 0-25-10-27-24-1-7 0-14 5-20a27 27 0 0 1 26-11h343c14 1 26 13 27 27v343a27 27 0 1 1-54 0V144a22 22 0 0 0-37-15L532 530c-4 3-9 4-15 4z"/>
  </g>

  <g id="share">
    <path d="M849 674c-43 0-83 16-114 42L350 520a179 179 0 0 0 0-17l385-195a175 175 0 1 0-61-126L287 377a175 175 0 1 0 1 268l386 196v7a175 175 0 1 0 175-175zm0 300a125 125 0 0 1-121-157l-10-5-435-218-10-5a125 125 0 1 1-1-156l45-23 398-199 13-6a125 125 0 1 1 21 45l-45 23-402 200-7 4a125 125 0 0 1 1 67l45 23 400 200 10 5a125 125 0 1 1 98 202z"/>
  </g>

  <g id="deleteLeft">
    <path d="M326 929c-16 0-32-6-46-16l-1-1v-1C175 822 85 717 13 600a88 88 0 0 1-3-87 990 990 0 0 1 275-320l1-1h1c14-9 27-13 41-13h620c43 0 76 36 76 82v585c0 47-33 83-76 83H326zm-8-68 8 4h622c7 0 13-8 13-18V262c0-11-6-18-13-18H328l-7 2A920 920 0 0 0 65 544c-3 7-3 15 1 22 69 111 154 211 252 295z"/><path d="M753 724c-8 0-15-3-21-9L614 597 495 715a30 30 0 0 1-43 0l-3-3a30 30 0 0 1 0-43l119-118-118-118a30 30 0 0 1 0-43l2-3a30 30 0 0 1 43 0l119 118 118-118a30 30 0 0 1 43 0l3 3a30 30 0 0 1 0 43L659 551l119 118c11 12 11 31 0 43l-3 3c-6 6-13 9-22 9z"/>
  </g>

  <g id="increase">
    <path d="M512 112v800M112 512h800" class="str01"/>
  </g>

  <g id="decrease">
    <path d="M112 512h800" class="str01"/>
  </g>

  <g id="toggleToLog">
    <path d="M975 671v-73a177 177 0 0 0-176-174 176 176 0 0 0-176 176v41c0 8 6 14 14 14h49c7 0 13-6 13-13v-42a99 99 0 0 1 199-2v73H626c-28 0-51 23-51 50v289c0 8 6 14 13 14h424c7 0 13-6 13-14V722c0-27-22-50-49-51zm-88-162c-24-24-55-36-91-36 1 0 1 0 0 0-68 1-124 58-124 127v28h-23v-28c0-81 67-148 149-149h1c39 0 76 16 104 44 29 28 44 64 44 103v73h-22v-73c-1-34-14-66-38-89zm109 488H601V722c0-13 10-23 23-23h348c13 0 23 10 23 23v275z"/><path d="M752 934c-7 0-13-5-13-12v-25c0-22 13-42 32-52a40 40 0 0 1-2-59 41 41 0 0 1 70 29c0 12-5 23-13 30 19 10 31 30 31 52v25c0 7-5 12-12 12h-93zm81-24v-13a35 35 0 0 0-69 0v13h69zm-35-111c-8 0-16 7-16 16s7 15 16 15 17-6 17-15-8-16-17-16zM177 458h97v32h-97z"/><path d="M64 458h33v32H64c-18 0-31 14-31 31v440c0 17 13 31 31 31h322c18 0 31-14 31-31V521c0-18-13-31-31-31h-34v-32h34c35 0 64 28 64 63v440c0 35-29 63-64 63H64c-35 0-64-28-64-63V521c0-35 29-63 64-63z"/><path d="M241 852c8 0 16 7 16 16s-7 15-16 15H113c-9 0-17-7-17-15 1-9 8-16 17-16h128zm-128-79h224c9 0 16 7 16 16s-7 15-16 15H113c-9 0-16-8-16-16s7-15 16-15zm224-129H112c-9 0-15-7-15-16 0-8 6-16 15-16h225c9 0 16 8 16 16 1 8-7 16-16 16zm-224 49h224c9 0 16 8 16 16 1 8-7 16-16 16H113c-9 0-16-7-16-16 0-8 7-16 16-16zm24-175c-13 0-24-10-24-24v-46c0-14 10-24 24-24 12 0 23 10 23 24v46c0 14-11 24-23 24zm176 0c-12 0-25-10-25-24v-46c0-14 12-24 24-24h1c13 0 24 10 24 24v46c0 14-11 24-24 24zm364-247c-1-5 0-10 3-15 6-9 18-12 26-5l117 73c9 6 11 18 6 27-6 9-18 11-27 6l-116-75c-5-2-8-5-9-11z"/><path d="M794 344c-1-5-1-9 3-14l75-114c5-10 16-12 26-6s12 18 6 26l-75 115c-6 9-18 11-27 6-5-4-7-7-8-13z"/><path d="M888 191c6-10 17-13 26-6 10 6 13 17 7 27l-60 90-32-21 59-90zm-227 76c-10-6-13-16-7-26s18-12 28-6l91 58-21 32-91-58z"/><path d="M794 324c-3 0-5-2-5-4C770 160 629 40 463 40S156 160 136 320c0 2-2 4-4 4h-29l-4-2-1-4a345 345 0 0 1 110-218C277 36 367 0 463 0a370 370 0 0 1 329 200 346 346 0 0 1 34 122l-4 2h-28z"/>
  </g>

  <g id="toggleToNote">
    <path d="M401 671v-73a177 177 0 0 0-176-174A176 176 0 0 0 49 600v41c0 8 6 14 14 14h49c7 0 13-6 13-13v-42c0-54 44-99 99-100a99 99 0 0 1 101 98v73H51c-28 0-51 23-51 50v289c0 8 6 14 13 14h424c7 0 13-6 13-14V722c0-27-22-50-49-51zm-88-162a128 128 0 0 0-216 91v28H76v-28c0-81 67-148 149-149h1c39 0 76 16 104 44 29 28 44 64 44 103v73h-22v-73c-1-34-14-66-38-89zm109 488H27V722c0-13 10-23 23-23h348c13 0 23 10 23 23v275z"/><path d="M178 934c-7 0-13-5-13-12v-25c0-22 13-42 32-52a40 40 0 0 1-2-59 41 41 0 0 1 70 29c0 12-5 23-13 30 19 10 31 30 31 52v25c0 7-5 12-12 12h-93zm81-24v-13a35 35 0 0 0-69 0v13h69zm-35-111c-9 0-16 7-16 16s7 15 16 15 16-6 16-15c1-9-7-16-16-16zm527-341h97v32h-97z"/><path d="M638 458h32v32h-32c-18 0-31 14-31 31v440c0 17 13 31 31 31h322c18 0 31-14 31-31V521c0-18-14-31-31-31h-34v-32h34c35 0 64 28 64 63v440c0 35-29 63-64 63H638c-35 0-64-28-64-63V521c0-35 29-63 64-63z"/><path d="M815 852c9 0 16 7 16 16s-7 15-16 15H687c-9 0-17-7-17-15 1-9 8-16 17-16h128zm-128-79h224c9 0 16 7 16 16s-7 15-16 15H687c-9 0-17-8-17-16 1-8 8-15 17-15zm224-129H686c-9 0-15-7-15-16 0-8 6-16 15-16h225c9 0 17 8 17 16s-8 16-17 16zm-224 49h224c9 0 16 8 16 16s-7 16-16 16H687c-9 0-17-7-17-16 1-8 8-16 17-16zm24-175c-13 0-24-10-24-24v-46c0-14 10-24 24-24 12 0 23 10 23 24v46c0 14-11 24-23 24zm176 0c-12 0-25-10-25-24v-46c0-14 12-24 24-24h1c13 0 24 10 24 24v46c0 14-11 24-24 24zM677 271c-1-5 0-10 3-15 6-9 18-12 26-5l117 73c9 6 11 18 6 27-6 9-18 11-27 6l-116-75c-5-2-8-5-9-11z"/><path d="M794 344c-1-5-1-9 3-14l75-114c5-10 16-12 26-6s12 18 6 26l-75 115c-6 9-18 11-27 6-5-4-7-7-8-13z"/><path d="M888 191c6-10 17-13 26-6 10 6 13 17 7 27l-60 90-32-21 59-90zm-227 76c-10-6-13-16-7-26s18-12 28-6l91 58-21 32-91-58z"/><path d="M794 324c-3 0-5-2-5-4C770 160 629 40 463 40S156 160 136 320c0 2-2 4-4 4h-29l-4-2-1-4a345 345 0 0 1 110-218C277 36 367 0 463 0a370 370 0 0 1 329 200 346 346 0 0 1 34 122l-4 2h-28z"/>
  </g>

  <g id="typeLogNew">
    <path d="M250 500a250 250 0 1 1 0-500 250 250 0 0 1 0 500Zm0-479a229 229 0 1 0 0 458 229 229 0 0 0 0-458Zm125 239H260v115a10 10 0 0 1-20 0V260H125a10 10 0 0 1 0-20h115V125a10 10 0 1 1 20 0v115h115a10 10 0 1 1 0 20Z"/><path d="M942 430h-5V294c0-78-32-152-91-208C789 31 712 1 631 1h-2c-50 0-97 12-138 33a333 333 0 0 1 20 25c36-17 76-26 118-27h2a271 271 0 0 1 273 262v136h-55V294c0-56-23-109-65-148a221 221 0 0 0-244-41l13 29a188 188 0 0 1 209 34c35 34 54 78 54 126v136H524a243 243 0 0 1-23 31h441c27 0 49 22 49 48v484H271V578a261 261 0 0 1-33 0v431c0 9 7 16 16 16h754c9 0 16-7 16-16V509c0-44-37-79-82-79Z"/><path d="M661 701c48-12 83-54 83-104 0-60-51-108-113-108s-113 48-113 108c0 50 36 92 83 104-81 14-144 83-144 165v84c0 9 7 16 16 16h316c9 0 16-7 16-16v-84c0-82-62-151-144-165ZM551 597c0-42 36-77 80-77s80 35 80 77-36 77-80 77-80-35-80-77Zm221 337H490v-68c0-75 63-136 141-136s141 61 141 136v68Zm148-126c-9 0-16 7-16 16v84c0 9 7 16 16 16s17-7 17-16v-84c0-9-8-16-17-16Zm0-269c-9 0-16 7-16 16v210c0 9 7 16 16 16s17-7 17-16V555c0-9-8-16-17-16Z"/>
  </g>

  <g id="typeNoteNew">
    <path d="M509 54a320 320 0 0 1 30 49h57V54h-87Zm246 0h-46v49h46c25 0 45 22 45 48v683c0 27-20 49-45 49H304c-25 0-45-22-45-49V575h-10l-35-2v261c0 54 41 98 90 98h451c49 0 90-44 90-98V152c0-54-41-98-90-98Z"/><path d="M687 420H527c-10 17-22 33-36 48h196c13 0 23-10 23-24s-10-24-23-24Zm-1-127H572c-2 17-6 33-11 49h125c13 0 23-11 23-24s-10-25-23-25Zm1 249H389l-14 5-24 11-2 8c0 13 10 24 23 24h315c13 0 23-11 23-24s-10-24-23-24ZM552 665H372c-13 0-23 11-23 24s10 25 23 25h180c12 0 23-11 23-25s-11-24-23-24Zm101-518c18 0 33-16 33-37V37c0-20-15-36-33-36-19 0-34 16-34 36v73c0 21 15 37 34 37Zm236 658 68 98 67-98V366H889v439Zm45-390h45v374l-22 32-23-32V415Z"/><path d="M711 976H282c-62 0-113-55-113-122V565a320 320 0 0 1-45-15v304c0 94 71 171 158 171h429c13 0 23-11 23-25s-10-24-23-24Zm268-780h-45c-25 0-45 21-45 48v98h135v-98c0-27-20-48-45-48Zm0 97h-45v-49h45v49ZM250 500a250 250 0 1 1 0-500 250 250 0 0 1 0 500Zm0-479a229 229 0 1 0 0 458 229 229 0 0 0 0-458Zm125 239H260v115a10 10 0 0 1-20 0V260H125a10 10 0 0 1 0-20h115V125a10 10 0 1 1 20 0v115h115a10 10 0 1 1 0 20Z"/>
  </g>
  
  <g id="accountName">
    <path d="M148 1012c-14 0-26-10-26-24V808c5-172 140-316 322-343l1-19c-51-13-97-40-131-78-34-39-52-86-52-135 0-59 26-114 73-156s110-65 177-65 130 23 177 65 73 97 73 156c0 49-19 97-52 135-33 39-79 66-131 78l1 19c89 14 171 56 230 119a315 315 0 0 1 92 224v180c0 13-12 24-26 24H148Zm364-505c-184 0-334 135-334 301v155h668V808c0-166-150-301-334-301Zm0-448c-107 0-193 78-193 174s86 174 193 174 193-78 193-174S619 59 512 59Z"/>
  </g>
  
  <g id="passKey">
    <path d="m425 649 13-5C171 761-140 434 68 187c178-227 599-77 558 223l378 296 20 218v1l-279 22h-1l-11-112-112 7h-1l-9-106-112 8-10-105h-1m64-53 9 90 110-9v1l12 107 113-11 11 114 143-11v-1l-11-128-363-286c-13-11-19-26-16-50 25-240-289-355-439-177-136 161 22 397 219 377 1 2-1 0 0 0 18-1 53-7 104-19"/><ellipse cx="318.6" cy="364.5" rx="83.2" ry="82.3"/>
  </g>

  <g id="chainLink">
    <path d="M643 605c0 9-4 18-11 25-42 42-99 64-161 60-61-3-119-29-164-74L75 385C27 338 0 274 0 209 0 152 22 99 61 60c42-42 99-63 161-60 61 4 119 30 164 75l116 115a36 36 0 0 1-50 51L336 125c-66-65-167-72-225-14-26 25-40 60-40 98 0 46 20 91 54 125l232 231c66 66 167 72 225 15a36 36 0 0 1 61 25Z"/><path d="M1024 815c0 57-21 110-61 149-42 42-99 63-161 60-61-4-119-30-164-75L522 834a36 36 0 0 1 50-51l116 116c66 65 167 72 225 14 26-25 40-60 40-98 0-46-20-91-54-125L667 459c-66-66-167-73-225-15a36 36 0 0 1-50-50c42-42 99-64 161-60 61 3 119 29 164 74l232 231c48 47 75 111 75 176Z"/>
  </g>
  
<!--   <g id="pin">
    <path d="M163 633c-22 0-40-8-40-19V410c0-11 18-19 40-19h1c22 0 39 8 39 19v204c0 11-17 19-39 19h-1Zm203 0c-22 0-40-8-40-19V410c0-11 18-19 40-19h1c22 0 39 8 39 19v204c0 11-17 19-39 19h-1Zm206 0c-22 0-40-8-40-19V410c0-11 18-19 40-19s40 8 40 19v204c0 11-18 19-40 19Zm116-40c0-22 9-40 20-40h203c11 0 20 18 20 40s-9 40-20 40H708c-11 0-20-18-20-40Z"/>
  </g> -->
  
<!-- Alerts -->
  <g id="cross">
    <path d="M923 974c-15 0-29-6-39-18L512 585 140 956a52 52 0 0 1-39 18 51 51 0 0 1-33-90l371-372L68 140a52 52 0 0 1-18-43 51 51 0 0 1 51-47c15 0 29 6 39 18l372 371L884 68a51 51 0 0 1 39-18 51 51 0 0 1 33 90L585 512l371 372 6 6a51 51 0 0 1-39 84z"/>
  </g>

<!-- Messages -->
  <g id="msgHistory">
    <path class="str01" stroke-linecap="round" d="M30 512A482 482 0 1 0 512 30"/><path class="str01" stroke-linecap="round" stroke-linejoin="round" d="M512 367v193h193"/><circle cx="512" cy="512" r="482" class="str01" stroke-dasharray="48 193" stroke-linecap="round"/>
  </g>

  <g id="crossRed">
    <path d="M923 974c-15 0-29-6-39-18L512 585 140 956a52 52 0 0 1-39 18 51 51 0 0 1-33-90l371-372L68 140a52 52 0 0 1-18-43 51 51 0 0 1 51-47c15 0 29 6 39 18l372 371L884 68a51 51 0 0 1 39-18 51 51 0 0 1 33 90L585 512l371 372 6 6a51 51 0 0 1-39 84z"  class="fl04"/>
  </g>

  <g id="crossRedInvert">
    <path d="M923 974c-15 0-29-6-39-18L512 585 140 956a52 52 0 0 1-39 18 51 51 0 0 1-33-90l371-372L68 140a52 52 0 0 1-18-43 51 51 0 0 1 51-47c15 0 29 6 39 18l372 371L884 68a51 51 0 0 1 39-18 51 51 0 0 1 33 90L585 512l371 372 6 6a51 51 0 0 1-39 84z"  class="fl04_invert"/>
  </g>
  
  <g id="tickGreen">
    <path d="M358 912c-13 0-27-6-36-16L15 574a56 56 0 0 1 0-77c20-21 53-21 73 0l269 283 578-651c19-22 52-23 73-2 20 20 22 54 2 76L396 895a50 50 0 0 1-37 17h-1z" class="fl01"/>
  </g>
  
  <g id="tickGreenInvert">
    <path d="M358 912c-13 0-27-6-36-16L15 574a56 56 0 0 1 0-77c20-21 53-21 73 0l269 283 578-651c19-22 52-23 73-2 20 20 22 54 2 76L396 895a50 50 0 0 1-37 17h-1z" class="fl01_invert"/>
  </g>

  <g id="info">
    <path class="fl09" d="M454 323c-69 32-127 88-185 169-9 12-9 19 0 25 6 5 9 3 18-6l2-3 27-31c44-51 64-71 98-89 29-17 53 7 49 37l-11 29-5 11-38 101v2l-11 30-56 145v3l-9 23c-17 48-29 79-35 112l-3 11-8 43c-3 21 0 39 6 55 7 16 25 28 43 31 45 7 95 2 129-15 43-15 80-40 118-71 34-27 65-62 99-104l6-8c9-12 14-21 16-29 2-10-4-19-11-16l-14 11-6 10c-24 27-49 54-76 81-11 11-27 21-40 29-25 11-47-4-45-30 2-18 7-37 13-55l72-196 44-123c18-46 27-81 32-115 2-27-5-52-23-70-17-20-44-29-78-28-35 0-78 12-118 31zM704 7c-65-25-143 18-156 88-11 51 9 94 47 113 75 36 167-22 167-106 0-48-20-80-58-95z"/>
  </g>
  
  <g id="infoInvert">
    <path class="fl09_invert" d="M454 323c-69 32-127 88-185 169-9 12-9 19 0 25 6 5 9 3 18-6l2-3 27-31c44-51 64-71 98-89 29-17 53 7 49 37l-11 29-5 11-38 101v2l-11 30-56 145v3l-9 23c-17 48-29 79-35 112l-3 11-8 43c-3 21 0 39 6 55 7 16 25 28 43 31 45 7 95 2 129-15 43-15 80-40 118-71 34-27 65-62 99-104l6-8c9-12 14-21 16-29 2-10-4-19-11-16l-14 11-6 10c-24 27-49 54-76 81-11 11-27 21-40 29-25 11-47-4-45-30 2-18 7-37 13-55l72-196 44-123c18-46 27-81 32-115 2-27-5-52-23-70-17-20-44-29-78-28-35 0-78 12-118 31zM704 7c-65-25-143 18-156 88-11 51 9 94 47 113 75 36 167-22 167-106 0-48-20-80-58-95z"/>
  </g>
  
  <g id="cog">
    <path d="M433 1023c-85-48-2-212-176-98-58 27-100-71-141-96-25-22-27-49-7-78C217 597 5 675 0 573c10-50-31-160 46-173 49-10 125-34 79-96-27-41-49-84 0-116 39-31 64-87 111-93 43 2 84 65 128 37C443-5 357-4 559 0c102-23 43 161 140 137 32-11 63-45 98-42 47 28 94 86 128 124 21 46-48 85-39 131 18 61 125 25 137 91-8 55 35 174-49 186-198 40 5 117-59 195-103 90-81 150-222 64-69-8-51 90-83 123-44 32-124 10-177 14Zm24-82c27 30 111 27 113-24 7-75 36-80 100-103 44-7 81 64 125 34 19-17 50-39 43-68-45-83-51-70-14-159 35-62 139 2 118-116-6-65-115-23-124-88-44-74 1-88 21-153 1-20-16-33-28-46-33-46-77-4-113 14-32 18-68-18-101-24-21-16-18-50-26-73-4-47-56-44-92-39-54 15-14 108-73 119-28 6-58 36-86 17-35-19-78-59-111-15-13 13-32 26-31 47 1 35 56 68 42 105-29 71-23 85-106 98-28 4-40 27-37 54-6 40 14 64 55 67 69 3 75 55 91 110-7 29-39 59-45 87-2 21 16 36 30 49 36 48 82 0 120-18 22-10 40 11 60 16 61 5 51 66 69 109Z"/><path d="M512 695c-259-1-226-395 24-363 222 22 199 371-24 363Zm0-283c-126-3-134 195-8 202 136 12 146-204 8-202Z"/>
  </g>
  
  <g id="installApp">
<!--     <path d="M763 0H269c-44 0-81 36-81 81v259h51V138h554v711H239V681h-51v262c0 45 37 81 81 81h494c44 0 81-36 81-81V81c0-45-37-81-81-81ZM516 957a33 33 0 1 1 0-67 33 33 0 0 1 0 67Z"/><path d="M80 535c-21 0-38-16-38-37s17-37 38-37h465c5 0 11 1 16 3l4 3a36 36 0 0 1 12 48 39 39 0 0 1-32 20H80Z"/><path d="M546 532c-8 0-16-3-23-8L305 346c-5-4-8-8-10-14l-1-4-1-1v-2l-1-3v-5l1-4 2-8c2-5 5-9 9-12a37 37 0 0 1 47-1 6361444 6361444 0 0 1 220 180c7 6 11 15 11 25 0 9-3 17-9 24l-5 4c-6 5-14 7-22 7Z"/><path d="M324 716a36 36 0 0 1-34-24l-1-1-1-4v-12l1-2v-3a34 34 0 0 1 11-16l219-179 2-2 3-2h2c5-3 10-4 16-4a38 38 0 0 1 25 10l1 1 1 1a34 34 0 0 1-2 49l-1-1-1 2-218 178c-7 6-15 9-23 9Z"/> -->
    
    
    <path d="M943 0H446c-45 0-82 36-82 81v259h51V138h558v711H415V681h-51v262c0 45 37 81 81 81h497c45 0 82-36 82-81V81c0-45-37-81-81-81ZM694 957c-19 0-34-15-34-33s15-34 34-34 34 15 34 34-15 33-34 33Z"/><path d="M29 537c-16 0-29-13-29-29s13-28 29-28h358l12 2 3 3c12 8 16 24 9 36-5 9-14 15-24 16H29Z"/><path d="M387 534c-6 0-12-2-17-6L202 392c-4-3-6-6-8-10v-3l-1-1v-2l-1-2v-4l1-3 1-6c2-4 4-7 7-9 11-9 26-9 36-1l170 138c5 4 8 11 8 19 0 7-2 13-7 18l-4 3c-4 4-11 5-17 5Z"/><path d="M217 675c-12 0-22-7-26-18l-1-1-1-3v-9l1-2v-2c1-5 4-9 8-12l169-137 1-2 2-1h2l12-3c7 0 14 3 19 7l1 1 1 1a26 26 0 0 1-2 37l-1 1-168 136c-5 5-11 7-17 7Zm442 73c-8 0-14-4-16-12v-1l-11-41c-1-3-4-6-7-8l-6-3a13 13 0 0 0-12 0l-36 21-8 2c-4 0-8-1-10-4l-1-2-50-50c-5-5-6-13-3-19l20-36c2-4 2-8 0-12l-3-6c-1-3-4-5-8-6l-41-12c-6-1-13-7-13-16v-69c0-9 5-14 12-16h1l41-12c4-1 7-3 8-6l3-6c2-4 2-8 0-12l-20-36c-4-8-3-14 2-18l1-1 50-51a17 17 0 0 1 19-3l36 20a13 13 0 0 0 12 1l6-3c3-2 6-5 7-8l11-41v-1c2-5 8-13 16-13h70c8 0 14 5 16 13v1l11 41c1 3 4 6 7 8l6 3a13 13 0 0 0 12-1l36-20 8-2c4 0 8 1 10 4l1 2 50 50c5 5 6 13 3 19l-20 36c-2 4-2 8 0 12l3 6c1 3 4 5 8 6l41 12c6 1 13 7 13 16v69c0 8-5 14-12 16h-1l-41 12c-4 1-7 3-8 6l-3 6c-2 4-2 8 0 12l20 36c4 8 3 14-2 18l-1 1-50 51a17 17 0 0 1-19 3l-37-21a13 13 0 0 0-11 0l-6 3c-3 2-6 5-7 8l-11 41c-4 8-10 13-16 13h-70Zm8-40c1 5 6 9 12 9h27c6 0 11-4 13-9l10-43 7-3 14-5 12-5 3-1 7-4 39 22a13 13 0 0 0 15-2l19-19c4-5 5-11 2-16l-22-38 5-8c5-8 8-18 10-28l3-8 43-10c6-1 10-6 10-12v-27c0-6-4-11-10-12l-43-11-3-7-5-14-4-11-2-4-4-7 22-38c3-5 2-12-2-16l-19-19a13 13 0 0 0-15-2l-39 22-7-4c-9-6-19-8-29-11l-7-3-10-43c-2-5-7-9-13-9h-27c-6 0-11 4-12 9l-10 43-8 3-14 5-11 5-3 1-8 4-38-22a13 13 0 0 0-15 2l-20 19c-4 4-5 11-2 16l23 38-5 8c-5 8-8 18-10 28l-3 7-43 11c-6 1-10 6-10 12v27c0 6 4 11 10 12l43 10 3 8 5 14 4 11 1 4 5 7-23 38c-3 5-2 11 2 16l20 19a13 13 0 0 0 15 2l39-22 7 4c8 6 18 8 28 11l8 3 10 43Z"/><path d="M694 594a85 85 0 0 1-86-86 85 85 0 0 1 86-85 85 85 0 0 1 86 85 85 85 0 0 1-86 86Zm0-133a47 47 0 1 0 0 95 47 47 0 0 0 0-95Z"/>
    
  </g>
  
  <g id="updateApp">
    <path d="M477 752c-8 0-14-4-16-12v-1l-11-41c-1-3-4-6-7-8l-6-3a13 13 0 0 0-12 0l-36 21-8 2c-4 0-8-1-10-4l-1-2-50-50c-5-5-6-13-3-19l20-36c2-4 2-8 0-12l-3-6c-1-3-4-5-8-6l-41-12c-6-1-13-7-13-16v-69c0-9 5-14 12-16h1l41-12c4-1 7-3 8-6l3-6c2-4 2-8 0-12l-20-36c-4-8-3-14 2-18l1-1 50-51a17 17 0 0 1 19-3l36 20a13 13 0 0 0 12 1l6-3c3-2 6-5 7-8l11-41v-1c2-5 8-13 16-13h70c8 0 14 5 16 13v1l11 41c1 3 4 6 7 8l6 3a13 13 0 0 0 12-1l36-20 8-2c4 0 8 1 10 4l1 2 50 50c5 5 6 13 3 19l-20 36c-2 4-2 8 0 12l3 6c1 3 4 5 8 6l41 12c6 1 13 7 13 16v69c0 8-5 14-12 16h-1l-41 12c-4 1-7 3-8 6l-3 6c-2 4-2 8 0 12l20 36c4 8 3 14-2 18l-1 1-50 51a17 17 0 0 1-19 3l-37-21a13 13 0 0 0-11 0l-6 3c-3 2-6 5-7 8l-11 41c-4 8-10 13-16 13h-70Zm8-40c1 5 6 9 12 9h27c6 0 11-4 13-9l10-43 7-3 14-5 12-5 3-1 7-4 39 22a13 13 0 0 0 15-2l19-19c4-5 5-11 2-16l-22-38 5-8c5-8 8-18 10-28l3-8 43-10c6-1 10-6 10-12v-27c0-6-4-11-10-12l-43-11-3-7-5-14-4-11-2-4-4-7 22-38c3-5 2-12-2-16l-19-19a13 13 0 0 0-15-2l-39 22-7-4c-9-6-19-8-29-11l-7-3-10-43c-2-5-7-9-13-9h-27c-6 0-11 4-12 9l-10 43-8 3-14 5-11 5-3 1-8 4-38-22a13 13 0 0 0-15 2l-20 19c-4 4-5 11-2 16l23 38-5 8c-5 8-8 18-10 28l-3 7-43 11c-6 1-10 6-10 12v27c0 6 4 11 10 12l43 10 3 8 5 14 4 11 1 4 5 7-23 38c-3 5-2 11 2 16l20 19a13 13 0 0 0 15 2l39-22 7 4c8 6 18 8 28 11l8 3 10 43Z"/><path d="M512 598a85 85 0 0 1-86-84v-2c0-47 38-85 85-85h1a85 85 0 0 1 86 84v1a85 85 0 0 1-84 86h-2Zm0-133a47.5 47.5 0 1 0 0 95 47.5 47.5 0 0 0 0-95Z"/><path d="M503.3 972c-113.7 0-216-39.2-295.8-113.5-71.8-66.9-122.2-160-141.7-262.4-19.5-101.8-7.2-206.3 34.7-294.3C147.1 204.1 228 130.1 334 88a422 422 0 0 1 172-36c84.5 0 168.7 24 243.4 69.8a473.1 473.1 0 0 1 156 154.3v-41.7c0-17.8 15-32.8 32.7-32.9h1a33.1 33.1 0 0 1 32.9 32.9v1l-.2 1c-.5 3.4-.1 20.6.2 35.8.5 21.6 1 48.5.4 70.4-.8 30.1-3.3 42.6-10.2 47.3a29.5 29.5 0 0 1-22.2 10H806.3l-1.8-.7a36.4 36.4 0 0 1-23.8-32.9c-.3-14 8-26.7 21.6-33l2-.8h54.8c-66-129.2-191-205.8-337.2-205.8-196.9 0-400.8 144.8-401.3 387.2v.3a354.1 354.1 0 0 0 100.6 264.6c76.5 79.3 189.5 126.6 302.4 126.6 126.2 0 234-56 303.7-157.6a32 32 0 0 1 32.2-21.6c18 .1 32.4 13.5 33.5 31.3.7 10.4-6 20.8-12.5 29.5a467 467 0 0 1-163 136 465.7 465.7 0 0 1-214.3 49Z"/>
  </g>
  
  <g id="secreSyncBarcode">
    <path d="M788 397c3-4 9-6 14-7 32-3 71 3 104 0 9 1 18 8 20 18s2 51 0 60c-1 12-11 19-23 20-33 3-70-2-104 0-26 7-24 45 4 48 16 1 51-4 64 4 15 9 14 36-3 43-12 5-20-1-30 12-9 11-6 29 7 36 12 6 22-2 32 12 8 11 1 22 11 33 10 10 21 3 32 11 16 11 6 24 16 36s21 5 31 11c18 10 16 40-4 46-10 3-15-2-24 7-12 11-5 21-12 32-9 12-28 13-39 3-11-12-1-32-21-40-18-7-54 4-70-4-20-11-4-38-28-45-26-8-79 15-82-27-2-26-2-70 0-96 0-6 2-14 7-18 8-8 15-5 24-8 10-2 16-10 18-20v-54c-2-12-10-21-22-22-33-3-70 2-103 0-9 0-19 8-21 17-3 22 10 69-15 79-10 3-46 3-57 2-21-2-33-19-23-38 8-16 22-9 33-15 8-4 11-11 12-19 1-11 1-47-1-57-3-11-12-17-23-18-32-3-70 3-104 0-25-6-24-42 0-49 34-2 72 3 106 0 8-1 16-5 19-13 5-9 1-20 10-28 11-11 25-2 36-14 24-27-19-61-39-33-7 11-1 20-9 30-8 12-23 13-34 5-14-11-5-23-14-35-10-14-22-6-33-14-19-12-11-41 11-44 17-1 37 2 54 1 8-1 16-7 19-14 3-9 0-17 6-25 7-10 26-13 35-5 15 10 6 25 17 37 9 9 19 4 29 9 8 4 12 12 13 21 3 32-3 68 0 100 0 8 5 16 12 19 11 6 22 0 31 11 10 11 1 33 21 40 7 2 53 2 62 1 7-1 14-4 17-10 7-11 1-22 11-32Z"/><path d="M481 495c8 8 9 21 2 31-11 17-34 3-42 25-3 9-3 46-2 57 1 13 7 24 22 26 32 3 70-3 102 0 5 0 10 2 14 5 12 10 5 24 13 34 10 14 23 6 34 15 16 12 11 39-9 43-9 2-49 2-58 0-6 0-13-5-17-10-8-11 0-25-16-35-23-13-47 15-32 35 10 15 23 7 34 15 4 2 7 6 8 11 3 8 3 54 1 63-1 6-5 13-11 16-9 4-18 1-27 8-14 11-5 22-14 34-10 13-23 5-35 14-14 12-10 38 7 43 24 7 77-14 81 24 1 12 1 47-1 58-1 3-3 8-6 10-8 8-27 8-35 0s-4-17-8-27c-6-19-34-21-44-3-5 10 0 22-11 31-6 6-18 6-25 5-8-1-16-12-16-20V849c1-8 8-17 16-19 6-2 14-1 20-4 8-3 12-11 13-18 3-34-2-73-1-108-1-5-6-12-11-15-11-5-22 1-31-10-8-9-4-18-8-28-3-7-11-12-19-13-17-2-37 1-54 0-29-3-30-41-7-47 14-4 42 1 59-1 50-6-2-93 44-98h56c5 1 11 3 14 7ZM19 1h300c14 1 23 12 23 26v288c0 16-8 26-24 27H26c-11 0-21-5-24-16-4-100-1-202-2-303C1 12 8 4 19 1Zm49 48c-12 3-19 12-20 24-6 62 4 132 0 195 0 12 9 24 22 24h206c9-4 15-11 16-22l-1-205c-2-8-13-15-21-16H68ZM701 1h302c9 0 15 6 19 13l1 309c0 12-12 19-23 19H708c-14 1-25-10-25-24V25c0-11 7-21 18-24Zm38 54c-4 4-7 10-7 16l1 206c3 8 10 14 18 15h203c13-1 21-12 22-25-4-62 4-129 0-190-2-18-8-27-26-28-63-5-132 3-195 0-6 0-12 2-16 6Z"/><path d="M20 683h298c15 1 23 10 24 25v289c-1 12-3 19-14 25H13c-7-4-12-11-13-20V705c2-11 9-20 20-22Zm35 55c-4 5-7 12-7 18 4 63-5 131 0 193 1 17 9 25 26 26 62 5 131-4 193 0 13 0 24-9 25-22V753c-1-11-9-21-21-21H70c-5 0-12 3-15 6ZM19 390c49 3 105-4 154 0 8 1 16 5 20 12 6 11-1 27 15 35 17 8 58-5 74 7 14 10 7 22 14 33 11 18 30 4 42 21 9 14 2 34-14 37-9 2-52 2-61 0-5 0-12-4-14-8-7-8-3-17-7-26-4-8-12-12-20-13h-55c-11 1-19 9-21 20v10c-6 24-43 24-47-1-3-16 1-38-1-55-4-42-67-12-89-27-15-12-10-41 10-45ZM627 8c8 8 9 23 2 32-11 14-37 3-42 25-4 14 0 41-1 57-2 20-20 31-38 22s-8-28-19-39c-9-9-17-4-27-8-7-3-13-11-14-19-1-13-2-44 0-56 1-12 10-20 22-21 32-3 69 2 102 0 5 0 11 3 15 7Zm-146 98c4 4 6 9 7 15v51c-1 7-3 14-8 19-10 8-24 2-34 12-10 11-3 26-15 36-14 12-38 4-41-15 2-33-3-70 0-103 1-12 8-21 21-22h56c5 0 11 3 14 7Zm222 675c11-2 23 4 27 15s-1 19 11 28c3 3 5 4 10 4 21 2 73-9 77 20 7 45-56 24-80 30-7 1-15 10-16 16v10c-6 32-46 29-49-1-3-31 2-67 0-99 0-11 8-21 20-23Zm315-384 4 6 1 166c-5 20-33 22-44 6-7-11 0-23-12-34-9-8-18-3-27-7-15-7-18-29-6-40 9-9 17-4 27-8 29-13 4-68 20-88 8-10 27-11 37-1ZM750 926c10-1 21 2 27 11 7 10 0 21 12 32 10 9 19 4 28 8 18 10 15 43-5 46h-63c-10-1-16-11-17-20-2-12-2-46 0-57 1-9 9-18 18-20ZM20 536c12-2 42-1 55 0 30 2 33 46-1 50-11 1-50 1-60-2-21-8-18-44 6-48Zm925 98c12-2 45-1 58 0 18 1 22 14 20 30 0 9-8 17-17 19h-57c-30-3-28-45-4-49ZM676 933c3 3 6 9 7 14 1 11 1 49-1 60-1 7-8 15-16 16-15 2-30-2-32-18-2-13-1-43 0-56 2-21 27-31 42-16ZM432 336c-10 9-28 8-37-3-16-21 6-50 31-39 15 7 18 31 6 42Zm-97 96c-3 4-9 7-14 7-41 4-37-55 1-49 20 4 26 29 13 42Zm560 543h12c20 2 26 29 13 42-8 8-28 8-36 0-12-12-7-38 11-42ZM559 829c32-2 35 44 6 48-35 5-40-47-6-48ZM408 1c41-7 42 54 0 48-24-4-24-43 0-48Zm195 876c39-7 42 53 2 49-25-3-26-44-2-49Zm1-730c37-6 42 54 0 49-24-3-25-45 0-49Zm390 779c22-3 34 14 29 34-4 13-23 18-34 12-21-9-17-42 5-46Zm-44-97c31-2 34 46 4 48-34 3-37-47-4-48ZM363 439c33-3 36 46 5 49-32 3-35-46-5-49Zm239 147c18-3 34 8 32 27-4 30-53 28-48-9 1-7 9-16 16-18Zm2 195c33-6 40 41 12 47-36 7-40-42-12-47ZM212 586c21-4 37 11 31 32-9 25-50 20-47-13 1-7 9-17 16-19ZM116 99c34 2 74-4 107 0 12 1 20 10 21 22-2 32 3 68 0 100-1 13-9 22-22 24-33-3-69 2-102 0-12-1-20-9-22-21 3-33-3-72 0-104 1-11 8-18 18-21Zm683 0c34 3 75-4 108 0 10 1 19 10 20 21-3 33 3 70 0 103-1 11-9 20-21 21-33-2-69 3-102 1-13-2-21-10-23-22 2-33-3-70 0-102 1-11 7-19 18-22Z"/><path d="M117 781c33 2 72-4 105 0 12 1 20 10 22 22-2 32 3 68 0 100-1 12-8 22-21 23-33 4-74-2-108 0-9-4-15-10-17-19 3-34-3-73 0-106 1-10 9-18 19-20Z"/>
  </g>
  
  <g id="swapTheme">
    <path d="M512 1024c-12 0-21-10-21-21v-98a21 21 0 0 1 42 0v98c0 11-9 21-21 21ZM130 915a21 21 0 0 1-21-21c0-6 2-11 6-15l109-110a21 21 0 0 1 31 1c8 8 8 21 0 30L145 909c-4 4-9 6-15 6Zm764 0c-6 0-11-2-15-6L770 800a21 21 0 0 1 0-30 21 21 0 0 1 30 0l109 109a21 21 0 0 1-15 36Zm-382-78a323 323 0 0 1-325-325 323 323 0 0 1 325-325 323 323 0 0 1 325 325 323 323 0 0 1-325 325Zm0-600a275 275 0 1 0 1 551 275 275 0 0 0-1-551Zm393 296a21 21 0 0 1 0-42h98a21 21 0 0 1 0 42h-98Zm-884 0a21 21 0 0 1 0-42h98a21 21 0 0 1 0 42H21Zm764-282c-6 0-12-2-16-7-8-8-7-22 1-30l109-99a21 21 0 0 1 30 1c8 9 8 22-1 30L799 246c-4 3-9 5-14 5Zm-546 0c-5 0-10-2-14-5L116 146a21 21 0 0 1 29-31l109 99a21 21 0 0 1-15 37Zm273-110c-12 0-21-10-21-22V21a21 21 0 0 1 42 0v98c0 12-9 22-21 22Z"/><path d="M512 759c133 0 241-110 241-245 0-11-17-13-23-4a156 156 0 0 1-291-82c0-58 30-108 76-136 10-6 8-23-4-23-133 0-241 110-241 245s108 245 241 245Z"/>
  </g>
  
  <g id="appWidth">
    <path d="M30 1024c-6 0-20-2-26-23-3-7-4-17-4-27V50c0-10 1-20 4-27C10 2 24 0 30 0s20 2 26 23c3 7 4 17 4 27v924c0 10-1 20-4 27-6 21-20 23-26 23Zm964 0c-6 0-20-2-26-23-3-7-4-17-4-27V50c0-10 1-20 4-27 6-21 20-23 26-23s20 2 26 23c3 7 4 17 4 27v924c0 10-1 20-4 27-6 21-20 23-26 23ZM288 483h449l-57-42c-27-25 1-59 32-50 6 2 10 5 15 8 38 26 75 55 111 82 13 10 27 17 23 36-2 12-9 15-17 22l-122 89c-31 21-72-15-43-44l57-42H288l11 9c15 10 32 21 45 32 30 26-7 65-40 47l-124-92c-9-6-16-10-18-23-2-17 9-23 21-32l119-87c33-22 71 18 43 44-16 15-39 27-56 41l-1 2Z"/>
  </g>
  
  <g id="logOffApp">
    <path d="M532 1023h-43A494 494 0 0 1 310 80c22-2 56 13 62 37 5 17-15 19-26 24a421 421 0 0 0 90 800 420 420 0 0 0 244-798c-22-10-45-12-21-41 34-40 74-18 109 4a494 494 0 0 1-236 917Z"/><path d="M515 0c17 5 30 18 32 36v226c-3 51-74 52-80 3V34c3-17 15-30 32-34h16ZM229 0c30 8 43 44 22 68-61 41-121 89-183 129-6 3-11 7-18 9-40 9-66-37-39-67L196 8l17-8h16Zm581 0 18 8c56 41 115 79 171 120 9 7 17 11 22 22 14 35-21 69-55 53l-10-6c-62-40-122-88-183-129-21-25-8-60 22-68h15ZM506 584l-12-4c-42-15-43-76-2-93 11-5 19-3 31-5l178-226c24-17 53 11 36 36L560 517c4 13 3 25-2 38l112 177c14 33-28 60-51 33L514 599l-8-15Z"/>
  </g>
</svg>