<?xml version="1.0" standalone="no"?>
<!DOCTYPE svg PUBLIC "-//W3C//DTD SVG 20010904//EN"
 "http://www.w3.org/TR/2001/REC-SVG-20010904/DTD/svg10.dtd">
<svg version="1.0" xmlns="http://www.w3.org/2000/svg"
 width="1024.000000pt" height="1024.000000pt" viewBox="0 0 1024.000000 1024.000000"
 preserveAspectRatio="xMidYMid meet">
<metadata>
Created by potrace 1.14, written by Peter Selinger 2001-2017
</metadata>
<g transform="translate(0.000000,1024.000000) scale(0.100000,-0.100000)"
fill="#000000" stroke="none">
<path d="M4257 10234 c-1 -1 -51 -4 -112 -8 -60 -3 -131 -8 -157 -11 -111 -12
-137 -15 -218 -25 -144 -18 -204 -27 -295 -46 -38 -8 -86 -17 -105 -20 -105
-17 -431 -107 -620 -172 -273 -94 -603 -248 -844 -393 -72 -44 -140 -85 -151
-92 -11 -7 -22 -15 -25 -18 -3 -3 -23 -18 -45 -32 -78 -50 -294 -212 -305
-228 -3 -4 -23 -22 -45 -39 -92 -73 -240 -215 -410 -394 -117 -122 -312 -387
-422 -571 -56 -93 -195 -366 -226 -445 -10 -25 -22 -54 -27 -65 -32 -76 -124
-355 -134 -408 -2 -12 -14 -62 -26 -112 -35 -145 -64 -341 -77 -510 -13 -167
-7 -526 12 -670 24 -190 42 -295 70 -410 9 -38 19 -83 22 -100 3 -16 11 -48
18 -70 7 -22 23 -74 35 -115 116 -393 353 -871 592 -1195 189 -256 275 -353
779 -879 53 -56 118 -123 144 -151 30 -32 45 -43 42 -30 -3 11 -9 36 -12 55
-4 19 -18 74 -31 121 -14 47 -26 95 -28 105 -3 10 -25 100 -51 199 -49 189
-84 330 -90 355 -2 8 -10 51 -20 95 -25 121 -49 211 -124 465 -34 114 -71 246
-71 255 0 8 47 -2 121 -24 92 -28 217 -61 230 -61 7 0 4 12 -7 28 -10 15 -32
52 -49 82 -18 30 -76 129 -130 220 -135 227 -230 415 -296 580 -62 157 -145
442 -164 565 -35 223 -48 365 -48 515 0 75 12 269 19 302 2 13 7 41 9 63 8 57
26 164 39 224 11 51 58 208 78 261 11 30 21 60 23 65 13 55 135 313 193 410
153 255 298 442 492 635 442 439 1012 758 1685 944 149 41 426 99 534 111 30
4 62 8 72 10 10 2 49 7 86 10 37 4 82 8 98 10 230 25 701 25 890 1 17 -3 59
-8 95 -11 36 -4 74 -9 85 -11 11 -2 43 -7 70 -10 28 -3 86 -12 130 -20 44 -9
94 -18 110 -21 235 -41 664 -172 934 -285 321 -135 692 -342 873 -487 58 -47
138 -111 177 -141 39 -30 95 -73 124 -96 191 -148 664 -474 782 -540 20 -11
117 -67 145 -85 37 -22 177 -95 200 -103 14 -5 31 -14 39 -20 25 -20 234 -91
296 -101 50 -7 160 -7 200 0 114 23 224 142 252 275 5 23 4 182 -2 209 -23
116 -167 443 -322 731 -87 162 -211 355 -316 495 -210 276 -375 407 -526 418
-53 3 -71 0 -119 -23 -114 -55 -165 -140 -168 -284 -1 -49 2 -103 7 -120 4
-17 10 -47 13 -66 3 -19 14 -78 25 -130 11 -53 23 -113 26 -135 3 -22 8 -46
10 -53 3 -7 8 -47 11 -88 7 -85 9 -83 -77 -58 -132 39 -332 156 -544 320 -152
118 -476 334 -500 334 -3 0 -23 11 -44 24 -57 36 -273 147 -381 195 -52 24
-111 50 -130 59 -214 96 -570 213 -870 285 -106 26 -346 74 -409 83 -19 2 -48
7 -64 9 -16 3 -50 8 -76 10 -25 3 -55 6 -66 9 -11 2 -56 7 -100 11 -44 4 -91
8 -105 11 -83 12 -691 29 -703 18z"/>
<path d="M4928 9155 c-2 -1 -30 -5 -63 -8 -83 -8 -249 -45 -310 -69 -27 -11
-54 -21 -60 -23 -19 -4 -50 -16 -65 -25 -8 -5 -46 -24 -85 -43 -142 -69 -308
-196 -443 -339 -266 -283 -460 -696 -518 -1103 -3 -27 -9 -59 -11 -70 -3 -11
-7 -238 -9 -504 -2 -266 -6 -486 -9 -489 -2 -3 -100 -6 -217 -7 -240 -2 -298
-12 -408 -72 -168 -90 -285 -243 -339 -445 -20 -72 -20 -106 -20 -1688 0
-1673 -1 -1633 37 -1757 14 -44 56 -126 91 -176 101 -147 275 -255 436 -272
66 -7 4430 -6 4475 1 160 24 312 116 412 249 57 74 91 142 120 237 l23 73 2
1620 c2 1404 1 1629 -12 1685 -62 269 -236 459 -484 527 -41 12 -113 16 -268
18 -117 1 -215 4 -218 6 -2 3 -6 221 -8 484 -3 264 -7 489 -10 500 -2 11 -8
45 -12 75 -3 30 -11 71 -15 90 -5 19 -12 51 -15 70 -10 65 -67 245 -110 350
-174 427 -476 765 -855 955 -76 39 -299 119 -308 111 -2 -3 -15 0 -29 5 -14 5
-42 12 -62 15 -20 2 -47 7 -61 11 -23 5 -566 13 -572 8z m592 -692 c68 -19
195 -74 245 -105 118 -75 246 -203 329 -328 126 -189 192 -381 231 -663 6 -42
7 -876 1 -885 -2 -4 -523 -7 -1158 -6 l-1153 0 0 455 c0 485 2 516 41 667 30
117 53 178 112 297 52 106 85 154 170 254 112 130 227 216 372 276 79 33 98
38 185 51 22 3 42 8 44 10 2 2 117 2 255 0 216 -2 261 -6 326 -23z"/>
<path d="M8515 7213 c3 -12 7 -30 9 -40 3 -10 18 -72 36 -138 17 -66 56 -217
86 -335 30 -118 61 -237 69 -265 8 -27 17 -66 20 -85 21 -123 62 -282 120
-470 71 -231 92 -320 75 -320 -6 0 -83 20 -172 45 -89 25 -166 45 -170 45 -5
0 3 -18 17 -41 15 -22 34 -55 44 -72 10 -18 42 -72 71 -122 153 -259 199 -343
266 -480 79 -165 147 -343 194 -515 31 -111 34 -122 46 -190 4 -19 8 -44 10
-55 11 -58 24 -134 28 -165 31 -225 25 -580 -14 -775 -5 -27 -12 -67 -16 -89
-9 -59 -12 -73 -47 -196 -78 -276 -193 -520 -362 -775 -99 -147 -108 -160
-194 -264 -88 -106 -257 -278 -356 -362 -21 -19 -47 -41 -56 -49 -10 -8 -24
-20 -31 -25 -7 -6 -42 -33 -78 -61 -77 -59 -96 -72 -290 -199 -167 -110 -463
-253 -715 -347 -163 -61 -505 -159 -605 -174 -19 -3 -51 -9 -70 -14 -19 -5
-51 -11 -70 -14 -19 -3 -44 -7 -55 -10 -17 -3 -54 -9 -140 -21 -11 -1 -49 -5
-85 -9 -36 -4 -81 -9 -100 -11 -104 -14 -211 -19 -455 -19 -273 -1 -403 6
-575 30 -25 3 -56 8 -70 9 -189 25 -334 53 -525 102 -55 13 -122 31 -150 38
-129 32 -479 155 -601 210 -32 15 -75 34 -94 42 -41 18 -231 113 -281 140 -19
11 -65 37 -104 58 -38 22 -97 56 -130 77 -33 21 -73 45 -90 54 -26 15 -66 45
-140 106 -293 242 -798 604 -1065 763 -36 22 -72 44 -80 51 -41 33 -378 196
-474 228 -184 63 -336 60 -435 -6 -113 -77 -153 -159 -157 -319 -2 -98 0 -114
31 -205 118 -351 375 -828 626 -1160 77 -102 227 -261 294 -311 120 -90 243
-112 346 -61 148 72 191 229 134 496 -3 12 -7 34 -10 50 -3 15 -10 43 -15 62
-4 19 -12 58 -16 85 -4 28 -8 52 -9 55 -15 58 -24 189 -13 196 36 22 412 -163
508 -251 46 -43 244 -187 370 -270 372 -246 838 -467 1265 -599 242 -76 232
-73 395 -111 8 -2 44 -10 80 -19 77 -18 87 -20 255 -51 72 -13 158 -26 190
-30 33 -3 92 -10 130 -15 200 -27 329 -33 635 -34 253 -1 455 6 530 18 14 3
52 7 85 10 33 4 71 8 85 11 14 2 49 6 78 9 29 3 61 7 70 10 9 3 37 7 62 10 45
6 76 12 118 21 52 12 69 15 102 21 159 28 582 150 705 204 22 9 51 21 65 25
62 19 209 83 430 189 8 4 45 24 81 44 36 20 90 50 119 66 30 15 65 36 80 46
14 10 77 52 140 94 172 113 238 162 380 280 313 261 571 547 782 866 76 116
99 155 168 286 21 39 43 79 48 90 10 18 27 54 82 179 119 270 222 660 255 961
3 27 8 67 11 89 9 67 11 515 4 600 -10 103 -21 205 -26 230 -2 10 -6 37 -9 60
-5 35 -27 160 -39 222 -13 62 -79 302 -111 398 -136 412 -325 773 -620 1183
-82 114 -254 312 -432 498 -32 34 -126 133 -209 220 -83 87 -179 188 -213 224
-40 41 -60 57 -56 43z"/>
</g>
</svg>
