<?xml version="1.0" standalone="no"?>
<!DOCTYPE svg PUBLIC "-//W3C//DTD SVG 20010904//EN"
 "http://www.w3.org/TR/2001/REC-SVG-20010904/DTD/svg10.dtd">
<svg version="1.0" xmlns="http://www.w3.org/2000/svg"
 width="512.000000pt" height="512.000000pt" viewBox="0 0 512.000000 512.000000"
 preserveAspectRatio="xMidYMid meet">
<metadata>
Created by potrace 1.14, written by Peter Selinger 2001-2017
</metadata>
<g transform="translate(0.000000,512.000000) scale(0.100000,-0.100000)"
fill="#000000" stroke="none">
<path d="M2295 3738 c-16 -4 -44 -10 -61 -12 -57 -10 -158 -54 -191 -85 -12
-12 -25 -21 -27 -21 -13 0 -80 -81 -121 -145 -65 -104 -88 -205 -89 -401 l-1
-102 -98 -43 c-55 -24 -104 -51 -111 -61 -8 -10 -11 -46 -10 -90 1 -40 5 -221
8 -403 15 -733 15 -734 34 -760 17 -24 40 -36 27 -14 -4 6 2 5 14 -2 14 -10
17 -15 8 -21 -7 -4 -7 -8 -2 -8 6 0 16 5 23 12 9 9 12 9 12 0 0 -7 13 -12 29
-12 16 0 31 -5 33 -12 2 -6 12 -12 21 -14 11 -1 15 2 10 9 -3 7 4 3 16 -7 19
-17 21 -17 15 -3 -5 13 -2 16 10 11 9 -3 14 -10 11 -14 -3 -4 2 -11 11 -14 8
-3 12 -2 9 4 -4 6 3 8 17 6 13 -3 26 -5 30 -5 3 -1 9 -9 11 -18 4 -16 5 -15 6
1 1 20 1 20 16 0 14 -19 14 -19 15 1 1 18 1 19 11 2 8 -14 14 -15 31 -6 11 6
18 7 14 1 -3 -5 2 -16 11 -23 10 -8 14 -9 10 -2 -4 6 -3 14 2 17 5 3 12 -1 15
-9 4 -12 10 -13 25 -5 15 7 23 6 35 -5 15 -16 31 -21 22 -7 -2 4 4 8 14 8 10
0 17 -3 14 -7 -2 -4 3 -9 11 -13 8 -3 15 -1 15 3 0 5 8 8 18 6 9 -2 23 -4 30
-4 7 -1 10 -6 6 -13 -5 -8 -2 -9 11 -5 9 4 25 2 33 -5 13 -11 15 -10 9 4 -5
15 -3 16 21 5 15 -6 30 -16 34 -22 5 -6 8 -5 8 3 0 6 5 12 11 12 5 0 8 -4 5
-8 -3 -5 1 -9 9 -9 8 0 15 4 15 9 0 5 7 2 16 -7 12 -12 19 -13 24 -5 5 8 10 9
14 2 4 -6 14 -8 23 -5 12 5 14 3 8 -8 -6 -11 -5 -12 6 -2 18 18 29 16 29 -4 1
-17 1 -17 11 0 8 14 14 16 24 7 8 -6 24 -10 37 -9 13 2 30 -1 38 -6 20 -13 41
-15 34 -4 -3 5 0 9 5 9 6 0 11 -4 11 -9 0 -5 8 -8 18 -6 9 1 25 -2 36 -7 13
-7 16 -7 12 1 -10 15 7 14 22 -1 7 -7 12 -8 12 -4 0 5 8 2 17 -5 10 -8 14 -9
10 -2 -5 8 0 11 13 10 11 -1 20 -4 20 -7 0 -3 23 -6 50 -7 28 0 57 -7 66 -13
12 -11 13 -10 9 3 -5 11 2 17 24 22 17 4 31 10 31 15 0 4 8 10 18 13 9 4 28
14 42 24 18 13 22 14 15 3 -4 -8 3 -3 18 13 29 30 39 34 31 13 -3 -8 -1 -17 4
-20 5 -3 10 0 9 7 -1 31 4 48 12 43 5 -4 11 0 14 6 3 10 8 10 23 -2 18 -14 18
-14 4 5 -8 11 -19 24 -25 28 -6 5 -3 7 7 4 9 -3 19 1 22 9 4 10 2 13 -7 8 -8
-6 -8 -3 1 9 8 9 11 21 7 27 -3 5 -3 10 2 10 4 0 7 38 5 84 -3 66 0 90 13 110
10 14 15 26 11 26 -3 0 -1 11 4 24 7 18 5 26 -5 30 -9 3 -12 12 -9 21 4 9 1
27 -6 40 -18 34 -9 47 39 51 67 6 166 59 231 123 183 179 177 464 -14 640 -73
66 -196 116 -278 112 -21 -1 -28 3 -28 17 0 11 -9 27 -20 37 -13 11 -17 22
-11 29 5 6 7 25 4 41 -2 17 -4 37 -4 45 -2 65 -91 202 -120 185 -7 -5 -10 -4
-6 2 4 6 -13 20 -36 33 -35 19 -48 35 -82 102 -21 45 -44 86 -50 92 -5 6 -22
27 -36 46 -86 115 -213 206 -329 236 -68 17 -164 23 -205 12z m152 -353 c50
-21 109 -72 149 -131 l36 -52 -18 -31 c-10 -17 -21 -31 -25 -31 -10 0 -30 -80
-31 -125 -1 -22 4 -53 10 -68 7 -16 12 -29 12 -31 0 -1 -44 4 -97 11 -54 6
-127 15 -163 19 -36 3 -72 8 -80 9 -8 2 -37 7 -63 11 l-48 7 2 126 c3 139 8
169 40 216 57 83 174 113 276 70z m570 -234 c12 -11 23 -18 26 -15 2 2 13 -17
24 -43 23 -57 25 -125 3 -129 -8 -2 -27 -6 -41 -10 -26 -6 -27 -4 -27 38 0 23
-1 45 -2 48 -1 3 -2 28 -4 55 -1 28 -6 56 -10 63 -11 19 8 14 31 -7z m-341
-125 c5 -89 -14 -102 -32 -23 -1 4 -3 10 -4 15 -5 15 2 47 13 61 10 12 9 13
-3 6 -13 -8 -13 -7 -1 8 8 10 16 16 18 13 3 -2 6 -38 9 -80z"/>
<path d="M3259 1748 c-5 -16 -4 -46 2 -42 4 2 7 13 6 24 -1 17 -5 26 -8 18z"/>
<path d="M3316 1687 c3 -10 9 -15 12 -12 3 3 0 11 -7 18 -10 9 -11 8 -5 -6z"/>
<path d="M3243 1677 c-3 -6 -1 -7 5 -3 5 3 12 1 14 -6 3 -8 6 -7 10 3 7 17
-19 22 -29 6z"/>
<path d="M3240 1645 c0 -2 6 -8 13 -14 10 -8 14 -7 14 2 0 8 -6 14 -14 14 -7
0 -13 -1 -13 -2z"/>
<path d="M3305 1640 c-3 -6 1 -7 9 -4 18 7 21 14 7 14 -6 0 -13 -4 -16 -10z"/>
<path d="M3335 1621 c-3 -5 -2 -12 3 -15 5 -3 9 1 9 9 0 17 -3 19 -12 6z"/>
<path d="M3253 1552 c-1 -22 0 -24 9 -8 6 10 6 22 2 26 -5 5 -10 -3 -11 -18z"/>
<path d="M2216 1462 c-3 -5 1 -9 9 -9 8 0 12 4 9 9 -3 4 -7 8 -9 8 -2 0 -6 -4
-9 -8z"/>
<path d="M3075 1420 c-3 -5 -1 -10 4 -10 6 0 11 5 11 10 0 6 -2 10 -4 10 -3 0
-8 -4 -11 -10z"/>
</g>
</svg>
